<svg id="Layer_1" data-name="Layer 1" xmlns="http://www.w3.org/2000/svg" viewBox="0 0 168.54 26.75"><defs><style>.cls-1{fill:#d7282f;}.cls-2{fill:none;stroke:#fff;stroke-miterlimit:10;stroke-width:0.75px;fill-rule:evenodd;}.cls-3{font-size:11px;fill:#fff;font-family:MuseoSans-900;font-weight:900;}</style></defs><path class="cls-1" d="M615.16,553.38H464.84a9.15,9.15,0,0,1-9.11-9.12v-8.53a9.14,9.14,0,0,1,9.11-9.11H615.16a9.14,9.14,0,0,1,9.11,9.11v8.53a9.15,9.15,0,0,1-9.11,9.12" transform="translate(-455.73 -526.62)"/><path class="cls-2" d="M482.09,542.17l-8.21-9.81a2.79,2.79,0,0,0-2.11-1h0a2.79,2.79,0,0,0-2.11,1l-8.22,9.81,2.46,2.5,5.34-4.95c1.76-1.63,3.32-1.63,5.08,0l5.34,4.95Z" transform="translate(-455.73 -526.62)"/><path class="cls-2" d="M477.2,547.15c-3.14-3.14-4.28-4.73-5.41-4.76h-.06c-1.13,0-2.28,1.62-5.41,4.76l2.43,2.47,2.6-2a.68.68,0,0,1,.37-.14h.07a.71.71,0,0,1,.38.14l2.6,2Z" transform="translate(-455.73 -526.62)"/><text class="cls-3" transform="translate(31.61 17.11)">Centro Corporativo</text></svg>