<svg id="Layer_1" data-name="Layer 1" xmlns="http://www.w3.org/2000/svg" viewBox="0 0 185.34 26.75"><defs><style>.cls-1{fill:#d7282f;}.cls-2{font-size:11px;fill:#fff;font-family:MuseoSans-900;font-weight:900;letter-spacing:-0.02em;}.cls-3{letter-spacing:-0.03em;}.cls-4{fill:none;stroke:#fff;stroke-linejoin:round;stroke-width:0.75px;}</style></defs><path class="cls-1" d="M623,553.38H457a9.67,9.67,0,0,1-9.64-9.65v-7.47a9.67,9.67,0,0,1,9.64-9.64H623a9.67,9.67,0,0,1,9.64,9.64v7.47a9.67,9.67,0,0,1-9.64,9.65" transform="translate(-447.33 -526.62)"/><text class="cls-2" transform="translate(34.08 16.9)">Defens<tspan class="cls-3" x="35.41" y="0">a</tspan></text><path class="cls-4" d="M469,540a.88.88,0,0,1,.8-.87,5.78,5.78,0,0,0-1.06-2.58.85.85,0,0,1-.61.25.87.87,0,0,1-.87-.87.88.88,0,0,1,.24-.61,5.81,5.81,0,0,0-2.58-1.07.86.86,0,0,1-.86.8.87.87,0,0,1-.87-.8,5.86,5.86,0,0,0-2.58,1.07.89.89,0,0,1,.25.61.87.87,0,0,1-.88.87.84.84,0,0,1-.6-.25,5.8,5.8,0,0,0-1.07,2.58.87.87,0,0,1,.8.87.86.86,0,0,1-.8.86,5.79,5.79,0,0,0,1.07,2.59.84.84,0,0,1,.6-.25.87.87,0,0,1,.88.87.89.89,0,0,1-.25.61,5.86,5.86,0,0,0,2.58,1.07.88.88,0,0,1,.87-.81.87.87,0,0,1,.86.81,5.81,5.81,0,0,0,2.58-1.07.88.88,0,0,1-.24-.61.87.87,0,0,1,.87-.87.85.85,0,0,1,.61.25,5.77,5.77,0,0,0,1.06-2.59A.86.86,0,0,1,469,540Z" transform="translate(-447.33 -526.62)"/><path class="cls-4" d="M466.66,540a2.62,2.62,0,1,1-2.62-2.62A2.62,2.62,0,0,1,466.66,540Z" transform="translate(-447.33 -526.62)"/><line class="cls-4" x1="21.07" y1="8.72" x2="21.65" y2="8.72"/><line class="cls-4" x1="21.07" y1="18.03" x2="21.65" y2="18.03"/><line class="cls-4" x1="16.42" y1="6.98" x2="17" y2="6.98"/><line class="cls-4" x1="16.42" y1="19.78" x2="17" y2="19.78"/><line class="cls-4" x1="11.76" y1="8.72" x2="12.34" y2="8.72"/><line class="cls-4" x1="22.82" y1="13.38" x2="23.4" y2="13.38"/><line class="cls-4" x1="11.76" y1="18.03" x2="12.34" y2="18.03"/><path class="cls-4" d="M471.89,540a7.86,7.86,0,1,1-7.85-7.85A7.84,7.84,0,0,1,471.89,540Z" transform="translate(-447.33 -526.62)"/><circle class="cls-4" cx="16.71" cy="13.38" r="9.02"/></svg>