<svg id="Layer_1" data-name="Layer 1" xmlns="http://www.w3.org/2000/svg" viewBox="0 0 220.88 26.75"><defs><style>.cls-1{fill:#d7282f;}.cls-2,.cls-3{fill:#fff;}.cls-3{font-size:11px;font-family:MuseoSans-900;font-weight:900;}</style></defs><path class="cls-1" d="M641.94,553.38H438.06a8.53,8.53,0,0,1-8.5-8.51v-9.74a8.53,8.53,0,0,1,8.5-8.51H641.94a8.53,8.53,0,0,1,8.5,8.51v9.74a8.53,8.53,0,0,1-8.5,8.51" transform="translate(-429.56 -526.62)"/><path class="cls-2" d="M455.5,533.71a5.68,5.68,0,0,0-8.63-2.12,5.68,5.68,0,0,0-.29,8.87,2,2,0,0,1,.72,1.57,2,2,0,0,0,.26,1,1.7,1.7,0,0,1,.27,1.09c0,.26,0,.43,0,.6a2.16,2.16,0,0,0,1.46,2,.44.44,0,0,1,.36.34.64.64,0,0,0,.67.44A.71.71,0,0,0,451,547a.53.53,0,0,1,.25-.26,2.09,2.09,0,0,0,1.47-1.59,9.36,9.36,0,0,0,.07-1.3,3.38,3.38,0,0,1,.17-.6,5.56,5.56,0,0,0,.34-1.17,2.24,2.24,0,0,1,.77-1.62,5.59,5.59,0,0,0,1.43-6.71m-6.91,10.14c0-.05.11-.13.17-.13h1.48v.07l-1.66.73c0-.26,0-.46,0-.66m.17-7c.12-.1.31-.19.36-.33s-.08-.31-.12-.46c.53,0,.53,0,.53-.53a1.14,1.14,0,0,0,.46.13,1.23,1.23,0,0,0,.41-.21c.08.09.15.18.24.2s.31-.08.45-.13c0,.5,0,.53.54.54-.25.49-.23.55.24.75-.13.11-.32.19-.37.33s.07.31.11.46c-.13,0-.34,0-.44.11s-.08.3-.11.45c-.44-.26-.52-.24-.74.24-.27-.48-.33-.5-.77-.25,0-.51,0-.51-.56-.54.25-.49.23-.53-.23-.76m1.87,4.47c.23,0,.31.27.3.51s0,.7,0,1.09h-1.22v-1.31c0-.06.06-.18.11-.19a2.85,2.85,0,0,1,.81-.1m1.2,3.39c-.1,0-.17.17-.26.26l.35.12c-.26.78-1.09,1.09-2.14.86.48-.21.91-.38,1.32-.58.12-.06.33-.25.31-.28-.12-.24-.29-.07-.44,0-.47.19-.93.4-1.4.61s-.38.13-.62-.21a1.68,1.68,0,0,0,.33-.16,1.28,1.28,0,0,0,.23-.29,1.93,1.93,0,0,0-.34,0,3.07,3.07,0,0,0-.44.19c-.05-.13-.09-.25-.13-.39.88-.38,1.73-.77,2.59-1.1a1.58,1.58,0,0,1,.83,0l-.3.15-1.72.76c-.11,0-.28.2-.26.25s.24.1.37,0l1.61-.7.29-.11c0,.22.13.44-.18.56m3.44-8.28a4.62,4.62,0,0,1-1.34,3l-.5.49a2.44,2.44,0,0,0-.86,1.89l0,.32c-.09.7-.27.83-1,.73v-.81c0-.9-.12-1.07-1-1.42.06-.71-.15-1.46.19-2.08.27.1.57.33.75.26.34-.13.06-.48.08-.78a2,2,0,0,0,.42.07.63.63,0,0,0,.38-.15c.05-.07,0-.26-.09-.37a2,2,0,0,0-.29-.33,2.56,2.56,0,0,0,.47-.18c.1-.06.22-.18.22-.27s-.12-.22-.22-.28a2.32,2.32,0,0,0-.47-.17,2.85,2.85,0,0,0,.33-.39c.06-.09.1-.25.05-.32a.44.44,0,0,0-.31-.15,2.46,2.46,0,0,0-.5.08,1.67,1.67,0,0,0,0-.29c0-.18,0-.42-.1-.51s-.36,0-.51.17-.13.11-.21.2a2.46,2.46,0,0,0-.17-.46.5.5,0,0,0-.3-.22c-.09,0-.21.11-.27.21a2.12,2.12,0,0,0-.17.45,2,2,0,0,0-.36-.3.52.52,0,0,0-.38,0c-.07,0-.11.21-.11.33a2.23,2.23,0,0,0,.07.47,2,2,0,0,0-.45-.08c-.13,0-.31.05-.36.13s0,.26.07.37a2.38,2.38,0,0,0,.3.36,1.78,1.78,0,0,0-.41.14c-.11.08-.3.21-.28.29s.17.24.29.32a1.54,1.54,0,0,0,.4.14,2.48,2.48,0,0,0-.31.36.47.47,0,0,0-.05.38c0,.07.21.11.32.12a3.08,3.08,0,0,0,.47-.08,2.08,2.08,0,0,0-.06.46c0,.12,0,.31.13.35s.26,0,.37-.07a1.71,1.71,0,0,0,.33-.29,5,5,0,0,1,.25,2.17,2.42,2.42,0,0,0-.35.11,1,1,0,0,0-.61.9c0,.39,0,.79,0,1.18-.77.18-1,.07-1.05-.78a3.44,3.44,0,0,0-1.2-2.44,4.62,4.62,0,0,1-1.35-4.85,4.77,4.77,0,0,1,3.75-3.55,5,5,0,0,1,6,5.18" transform="translate(-429.56 -526.62)"/><path class="cls-2" d="M450.75,531.82l-.27.16c.1.08.19.22.29.22a3.88,3.88,0,0,1,2.63,1.29c.06.07.21.06.32.08s0-.25-.06-.32a4.14,4.14,0,0,0-2.91-1.43" transform="translate(-429.56 -526.62)"/><path class="cls-2" d="M454.25,535.1a.22.22,0,0,0,.21.11c.06,0,.11-.12.17-.2-.12-.3-.23-.59-.36-.86,0-.07-.15-.08-.23-.12s-.11.19-.09.27a6,6,0,0,0,.3.8" transform="translate(-429.56 -526.62)"/><text class="cls-3" transform="translate(39.07 17.06)">Distribución eléctrica</text></svg>