<?xml version="1.0" encoding="UTF-8"?>
<svg id="Capa_1" data-name="Capa 1" xmlns="http://www.w3.org/2000/svg" viewBox="0 0 372 372.13">
  <defs>
    <style>
      .cls-1 {
        fill: #767778;
        stroke-width: 0px;
      }
    </style>
  </defs>
  <path class="cls-1" d="m372,174.44v22.53c-.79,6.34-1.26,12.73-2.42,19-12.03,64.67-47.78,111.26-107.1,139.61-7.89,3.77-16.32,6.42-24.85,9.73v-138.07h39.82c2.02-15.65,3.99-30.93,6.03-46.71h-45.98c0-11.32-.2-22.21.05-33.09.29-12.03,6.46-18.26,18.53-18.78,8.22-.36,16.46-.18,24.7-.24,1.27,0,2.55,0,3.77,0v-42.45c-14.59-.22-29-1.12-43.31-.37-7.4.39-15.12,2.68-21.86,5.88-19.55,9.26-28.15,26.27-29.63,46.99-.9,12.54-.38,25.18-.49,37.77-.01,1.4,0,2.81,0,4.62h-39.74v46.42h39.74v4.31c0,45.54,0,91.08-.02,136.63,0,1.31-.23,2.63-.35,3.94h-14.53c-3.46-.45-6.91-.94-10.38-1.35-36.3-4.32-69.02-17.68-96.57-41.59C11.37,280.55-10.15,219.08,4.43,146.27,20.94,63.86,95.96,2.1,179.94.06c36.22-.88,70.21,7.26,101.17,26.2,48.16,29.47,77.64,72.12,88.04,127.73,1.26,6.76,1.92,13.63,2.85,20.45Z"/>
</svg>