<?xml version="1.0" encoding="UTF-8"?>
<svg id="Capa_1" data-name="Capa 1" xmlns="http://www.w3.org/2000/svg" viewBox="0 0 368.86 369">
  <defs>
    <style>
      .cls-1 {
        fill: #767778;
        stroke-width: 0px;
      }
    </style>
  </defs>
  <path class="cls-1" d="m172.97,0c7.69,0,15.37,0,23.06,0,2.36.29,4.72.62,7.09.87,38.85,4.22,73.47,18.6,102.55,44.72,48.66,43.71,69.58,98.64,61.51,163.5-6.29,50.5-30.82,91.49-71.3,122.3-40.3,30.68-86.12,42.37-136.28,35.87-36.93-4.79-69.48-19.88-97.3-44.68-31.91-28.45-51.85-63.78-59.43-105.93C1.64,209.83.94,202.91,0,196.03c0-7.69,0-15.37,0-23.06.29-2.36.61-4.72.87-7.09,4.27-39.08,19.05-73.64,45.12-103.1C74.66,30.38,110.36,10.23,153.07,2.78c6.59-1.15,13.26-1.87,19.9-2.78Zm119.72,278.71c.07-1.24.17-2.3.17-3.35,0-24.5.06-48.99-.04-73.49-.02-5.03-.37-10.08-.98-15.07-3.22-26.31-18.97-42.88-44.33-45.84-18.36-2.14-33.91,3.39-44.9,19.11-.38.55-.86,1.02-1.94,2.29v-18.47h-44.72v134.82h44.72v-4.43c0-18.01-.02-36.02.01-54.03.01-7.08,0-14.17.29-21.24.34-8.14,4.43-14.39,10.93-18.94,12.92-9.06,29.71-3.36,34.02,11.75,1.43,4.99,1.91,10.4,1.96,15.62.21,22.45.09,44.91.09,67.36v3.91h44.73ZM86.18,143.66v135.02h44.76v-4.49c0-40.83,0-81.67,0-122.5,0-1.56-.15-3.14.03-4.68.33-2.78-.87-3.43-3.49-3.41-11.77.12-23.54.05-35.31.05-1.9,0-3.8,0-5.99,0Zm-2.81-41.78c-.02,13.69,10.43,23.47,25.04,23.42,14.73-.04,25.42-9.77,25.46-23.17.04-13.64-10.44-23.53-24.99-23.58-15-.05-25.49,9.55-25.51,23.32Z"/>
</svg>