<?xml version="1.0" encoding="UTF-8"?>
<svg id="Capa_1" data-name="Capa 1" xmlns="http://www.w3.org/2000/svg" viewBox="0 0 371.2 371.2">
  <defs>
    <style>
      .cls-1 {
        fill: #767778;
      }

      .cls-1, .cls-2 {
        stroke-width: 0px;
      }

      .cls-2 {
        fill: #fff;
      }
    </style>
  </defs>
  <circle class="cls-1" cx="185.6" cy="185.6" r="185.6"/>
  <path class="cls-2" d="m278.05,86.74c-6.34,7.39-12.4,14.44-18.46,21.5-18.46,21.48-36.9,42.98-55.4,64.42-1.28,1.49-1.36,2.42-.23,4.06,24.13,35.04,48.18,70.13,72.26,105.22,2.41,3.52,4.84,7.03,7.25,10.55.35.52.67,1.06,1.13,1.79-.85.04-1.47.1-2.09.1-18.82,0-37.64,0-56.47.05-1.47,0-2.18-.63-2.93-1.72-17.69-25.82-35.4-51.62-53.11-77.42-.32-.47-.67-.92-1.1-1.5-4.27,4.96-8.45,9.8-12.61,14.65-17.53,20.41-35.16,40.73-52.49,61.3-2.97,3.53-5.84,5.23-10.42,4.73-3.58-.39-7.24-.09-10.86-.11-.1,0-.2-.12-.52-.32,26.28-30.61,52.54-61.2,78.93-91.92-26.32-38.38-52.63-76.74-79.23-115.51,1.1,0,1.77,0,2.44,0,18.69,0,37.39.02,56.08-.04,1.49,0,2.32.52,3.14,1.7,16.58,24.23,33.19,48.42,49.8,72.63.43.63.89,1.24,1.46,2.04,2.33-2.7,4.57-5.27,6.79-7.85,19.21-22.37,38.41-44.76,57.65-67.1.56-.65,1.55-1.3,2.35-1.31,5.17-.12,10.35-.06,15.52-.05.24,0,.48.05,1.13.12Zm-171.82,13.5c.76,1.11,1.3,1.91,1.85,2.7,17.16,24.59,34.33,49.19,51.5,73.78,24.01,34.39,48.03,68.78,72.02,103.19.79,1.14,1.63,1.56,3.01,1.55,7.76-.07,15.52-.03,23.28-.04.61,0,1.22-.07,2.07-.12-.51-.79-.87-1.39-1.27-1.95-19.24-27.56-38.47-55.13-57.71-82.69-22.17-31.74-44.35-63.48-66.49-95.24-.68-.97-1.41-1.3-2.55-1.29-7.95.04-15.91.02-23.86.03-.5,0-.99.04-1.84.08Z"/>
</svg>