<?xml version="1.0" encoding="UTF-8"?>
<svg id="Capa_1" data-name="Capa 1" xmlns="http://www.w3.org/2000/svg" viewBox="0 0 371.14 371.2">
  <defs>
    <style>
      .cls-1 {
        fill: #767778;
        stroke-width: 0px;
      }
    </style>
  </defs>
  <path class="cls-1" d="m0,197.23c0-7.73,0-15.46,0-23.2.22-1.05.48-2.09.64-3.15,1.24-8.35,1.96-16.81,3.77-25.03C26.96,43.71,128.55-19.71,230.28,5.55c96.69,24,156.34,118.49,137.33,216.2-14.55,74.8-74.94,133.83-150.05,146.6-6.75,1.15-13.57,1.91-20.36,2.85h-23.2c-.8-.2-1.59-.54-2.39-.59-15.73-1.12-31.13-4.01-45.92-9.49C58.28,336.15,17.38,288.33,2.94,217.94c-1.4-6.82-1.98-13.81-2.94-20.72Zm185.98-81.37c-19.81,0-39.62-.06-59.43.02-22.99.09-38.64,15.8-38.69,38.75-.04,20.65-.04,41.3,0,61.96.04,22.95,15.7,38.74,38.65,38.79,39.38.08,78.76.08,118.13,0,23-.05,38.64-15.79,38.69-38.75.04-20.65.05-41.3-.03-61.95-.01-3.24-.23-6.55-.93-9.7-3.95-17.71-18.4-28.98-37.33-29.08-19.69-.11-39.38-.02-59.07-.02Z"/>
  <path class="cls-1" d="m160.2,155.87c17.13,9.99,33.85,19.74,51.15,29.83-17.28,10.03-34,19.73-51.15,29.69v-59.51Z"/>
</svg>