<?xml version="1.0" encoding="UTF-8"?>
<svg id="Capa_1" data-name="Capa 1" xmlns="http://www.w3.org/2000/svg" xmlns:xlink="http://www.w3.org/1999/xlink" viewBox="0 0 499.2 497.28">
  <defs>
    <style>
      .cls-1 {
        fill: #efedee;
        filter: url(#drop-shadow-1);
      }

      .cls-1, .cls-2 {
        stroke-width: 0px;
      }

      .cls-2 {
        fill: #767778;
      }
    </style>
    <filter id="drop-shadow-1" filterUnits="userSpaceOnUse">
      <feOffset dx="2" dy="4"/>
      <feGaussianBlur result="blur" stdDeviation="5"/>
      <feFlood flood-color="#000" flood-opacity=".37"/>
      <feComposite in2="blur" operator="in"/>
      <feComposite in="SourceGraphic"/>
    </filter>
  </defs>
  <rect class="cls-1" x="13.14" y="11.16" width="468.83" height="467.04" rx="7.45" ry="7.45"/>
  <g>
    <path class="cls-2" d="m251.82,162.12c44.06.14,79.83,36.15,79.66,80.2-.18,44.05-36.23,79.8-80.28,79.59-44.05-.22-79.74-36.28-79.51-80.35.23-43.92,36.2-79.58,80.13-79.44Zm-53.5,126.34c0-13.82,0-27.13,0-40.44,0-4.57,1.41-5.99,5.92-6,5.34-.01,10.67,0,16.27,0v-2.98c0-5.73,0-11.47,0-17.2,0-5.17,1.23-6.42,6.3-6.46.8,0,1.6-.09,2.57-.15,0-4.05-.01-7.92,0-11.79.02-4.34,1.47-5.79,5.84-5.81,3.93-.01,7.87,0,12,0v-17.57h8.92v17.57c4.19,0,8.07-.01,11.94,0,4.17.02,5.66,1.52,5.68,5.69.02,3.95,0,7.9,0,12.06,1.3,0,2.3,0,3.29,0,4.01.04,5.55,1.55,5.58,5.51.02,3.24,0,6.47,0,9.71,0,3.75,0,7.5,0,11.41,4.99,0,9.6,0,14.22,0,7.26,0,7.98.7,7.98,7.84,0,11.84,0,23.67,0,35.51v2.94c21.03-22.21,26.37-64.07-.72-93.95-27.25-30.05-73.45-31.35-102.34-2.87-28.9,28.48-26.44,71.9-3.47,96.97Zm75.26,21.1v-85.16h-44.05v85.13c2.84.73,5.65,1.45,8.38,2.15.2-.39.28-.47.28-.55.03-6.47.04-12.94.09-19.41.03-3.65,1.61-5.26,5.22-5.3,4.07-.04,8.14-.01,12.21-.01,8.95,0,9.2.24,9.2,9.11v16.3c3.16-.82,5.91-1.54,8.68-2.26Zm9.28-58.54v55.03c4.08-2.63,7.67-5.01,11.33-7.28,1.42-.89,1.83-2.01,1.83-3.66-.06-13.95-.03-27.9-.04-41.85,0-.71-.07-1.42-.11-2.24h-13Zm-62.56,55.06v-55.03h-12.81c-.12.31-.24.47-.25.63-.02,14.78-.05,29.56-.02,44.33,0,.65.28,1.57.76,1.9,3.92,2.69,7.92,5.27,12.31,8.17Zm18.2-99.51v8.64h26.18v-8.64h-26.18Zm17.33,106.27v-17.33h-8.49v17.33h8.49Z"/>
    <path class="cls-2" d="m182.79,340.7c1.52-2.64,2.89-5.02,4.43-7.68,6.81,3.91,13.5,7.75,20.42,11.72,2.29-3.96,4.53-7.87,6.8-11.76,1.96-3.37,3.39-3.84,7.08-2.77,3.98,1.16,7.99,2.25,12.03,3.24,3.73.91,4.71,2.02,4.72,5.93.01,4.42,0,8.84,0,13.43h26.63c0-4.61-.01-9.11,0-13.62.02-3.69,1.05-4.85,4.63-5.73,3.94-.97,7.87-2,11.76-3.16,4.06-1.21,5.4-.78,7.52,2.85,2.23,3.82,4.44,7.64,6.75,11.61,7.67-4.43,15.17-8.77,23-13.3-2.11-3.68-4.15-7.26-6.2-10.82-2.79-4.84-2.62-5.54,1.54-9.4,2.51-2.32,4.91-4.76,7.23-7.28,3.37-3.66,4.42-3.89,8.8-1.37,3.59,2.06,7.18,4.14,11.09,6.4,4.46-7.7,8.83-15.25,13.32-23.01-4-2.32-7.91-4.58-11.8-6.86-3.36-1.97-3.82-3.37-2.74-7.09,1.18-4.07,2.26-8.18,3.28-12.3.81-3.24,2.06-4.38,5.36-4.41,4.6-.03,9.21,0,13.97,0v-26.63c-4.04,0-8.16,0-12.27,0-5.49,0-6.18-.65-7.44-6.01-.88-3.77-1.97-7.49-3.03-11.22-.88-3.11-.39-4.62,2.38-6.26,4.04-2.4,8.11-4.74,12.28-7.17-4.44-7.69-8.77-15.2-13.3-23.03-3.78,2.19-7.42,4.31-11.07,6.41-4.38,2.52-5.43,2.28-8.8-1.35-2.58-2.77-5.29-5.42-8.05-8.02-3.02-2.84-3.32-4.16-1.31-7.69,2.19-3.84,4.41-7.66,6.78-11.78-7.73-4.47-15.28-8.84-23.03-13.33-2.33,4.04-4.57,7.95-6.85,11.85-1.94,3.32-3.39,3.78-7.12,2.7-4.07-1.18-8.18-2.25-12.3-3.28-3.2-.8-4.35-2.09-4.38-5.39-.03-4.6,0-9.2,0-13.94h-26.63c0,4.27,0,8.58,0,12.88,0,4.66-.79,5.55-5.25,6.63-3.94.96-7.86,2.05-11.75,3.18-3.39.98-4.89.48-6.68-2.58-2.29-3.9-4.53-7.82-6.94-12.01-7.66,4.41-15.21,8.76-23.05,13.28,2.24,3.9,4.39,7.64,6.54,11.37,2.33,4.06,2.06,5.22-1.3,8.37-2.96,2.78-5.78,5.72-8.6,8.65-2.34,2.44-3.92,2.76-6.86,1.1-4-2.27-7.97-4.59-12.21-7.03-4.49,7.77-8.86,15.32-13.32,23.04,4.08,2.35,8,4.59,11.9,6.87,3.21,1.88,3.7,3.36,2.68,6.89-1.18,4.08-2.28,8.18-3.29,12.3-.86,3.52-2.06,4.57-5.77,4.59-4.43.02-8.87,0-13.61,0v26.45h-9.01c0-.77,0-1.48,0-2.19,0-9.25-.02-18.49,0-27.74.01-3.8,1.59-5.36,5.41-5.39,4.16-.03,8.32-.06,12.48.02,1.59.03,2.4-.27,2.84-2.08,1.55-6.43,1.65-6.4-4.11-9.72-2.48-1.43-4.98-2.83-7.43-4.32-2.68-1.64-3.36-3.91-1.82-6.6,5.73-10.02,11.51-20.02,17.33-29.99,1.67-2.86,3.85-3.37,6.82-1.72,4.35,2.43,8.64,4.95,12.94,7.41,1.96-2.15,3.82-4.19,5.99-6.57-2.03-3.53-4.36-7.59-6.69-11.65-2.39-4.18-1.94-5.93,2.2-8.33,9.27-5.37,18.55-10.73,27.83-16.08,4.11-2.37,6-1.89,8.36,2.16,2.04,3.51,4.11,7.01,6.07,10.57.7,1.27,1.44,1.59,2.88,1.2,6.53-1.77,6.55-1.72,6.55-8.54,0-2.87-.05-5.73.02-8.6.08-3.11,1.73-4.8,4.86-4.81,11.56-.05,23.12-.05,34.67,0,3.1.01,4.77,1.73,4.82,4.85.07,4.34.07,8.69,0,13.04-.03,1.59.26,2.39,2.08,2.82,6.43,1.5,6.4,1.61,9.71-4.12,1.43-2.48,2.83-4.98,4.32-7.42,1.64-2.68,3.9-3.35,6.6-1.8,10.02,5.73,20.02,11.5,29.99,17.33,2.86,1.68,3.36,3.86,1.7,6.83-2.43,4.35-4.95,8.64-7.72,13.46,1.79,1.61,3.5,3.31,5.41,4.75.57.43,1.89.42,2.56.06,3.74-2.02,7.37-4.23,11.06-6.33,3.51-2,5.54-1.46,7.57,2.03,5.56,9.59,11.11,19.19,16.63,28.8,1.99,3.46,1.42,5.61-1.97,7.61-3.58,2.11-7.16,4.23-10.82,6.19-1.53.82-1.78,1.63-1.29,3.29,1.83,6.23,1.76,6.25,8.18,6.25,2.68,0,5.36-.01,8.04,0,4.12.03,5.62,1.55,5.62,5.75.01,10.91.01,21.82,0,32.73,0,4.48-1.46,5.89-6.03,5.9-4.07,0-8.14.05-12.2-.02-1.43-.03-2.05.36-2.44,1.87-1.7,6.56-1.77,6.55,4.11,9.95,2.48,1.43,4.99,2.81,7.42,4.32,2.66,1.65,3.29,3.9,1.73,6.63-5.68,9.95-11.41,19.86-17.18,29.76-1.76,3.03-3.93,3.58-7,1.86-4.34-2.43-8.63-4.95-13.33-7.65-1.68,1.83-3.41,3.51-4.85,5.41-.42.55-.36,1.88,0,2.56,1.97,3.66,4.12,7.22,6.18,10.83,2.12,3.72,1.64,5.69-1.97,7.79-9.58,5.57-19.18,11.11-28.8,16.62-3.44,1.97-5.56,1.38-7.57-2.06-2.15-3.67-4.17-7.41-6.42-11.01-.41-.66-1.78-1.25-2.54-1.08-6.77,1.48-6.76,1.53-6.76,8.55,0,2.87.06,5.73-.02,8.6-.09,2.96-1.74,4.69-4.68,4.71-11.65.06-23.3.06-34.95,0-3.05-.01-4.68-1.79-4.72-4.95-.06-4.35-.06-8.69,0-13.04.02-1.46-.22-2.26-1.91-2.7-6.53-1.69-6.5-1.78-9.93,4.18-1.43,2.48-2.84,4.97-4.32,7.43-1.31,2.16-3.36,3.34-5.63,2.09-8.32-4.57-16.51-9.38-24.84-14.14Z"/>
    <path class="cls-2" d="m124.58,312.16c-14.82-12.39-12.34-30.36-3.06-39.76,10.59-10.72,27.12-10.89,37.81-.39,9.64,9.46,12.27,27.65-2.73,40.26.8.5,1.55.96,2.28,1.42,11.07,7.01,16.99,17.05,17.2,30.16.21,13.04.06,26.08.04,39.11,0,3.97-1.57,5.52-5.56,5.53-19.97.01-39.95.01-59.92,0-3.97,0-5.52-1.57-5.52-5.57-.02-12.67-.05-25.34,0-38.01.07-13.91,6.15-24.45,18.03-31.66.39-.24.78-.48,1.17-.73.07-.05.11-.15.27-.36Zm42.59,67.34c0-12.72.2-25.19-.09-37.65-.13-5.87-2.66-11.08-6.64-15.48-3.6-3.98-7.92-6.72-13.59-8.06.34,1.31.54,2.18.78,3.03,1.91,6.75,3.94,13.46,5.68,20.26.42,1.66.36,3.71-.23,5.31-2.47,6.66-5.26,13.2-7.85,19.81-.88,2.24-2.05,4.01-4.69,3.97-2.5-.03-3.66-1.71-4.5-3.85-2.63-6.7-5.44-13.33-7.96-20.07-.56-1.51-.6-3.47-.2-5.05,1.45-5.72,3.19-11.37,4.81-17.05.56-1.98,1.08-3.98,1.7-6.28-1.08.25-1.71.35-2.31.55-10.6,3.53-17.96,13.51-18.07,24.77-.1,11.46-.03,22.92-.02,34.39,0,.44.08.87.14,1.4h53.04Zm-26.5-93.11c-5.96.03-11.33,1.53-16.17,4.65-.75.48-1.41,1.93-1.28,2.8,1.31,8.35,8.51,14.55,16.89,14.74,8.64.2,16.01-5.67,17.84-14.01.38-1.72.07-2.68-1.46-3.59-4.96-2.93-10.26-4.53-15.83-4.59Zm.06,67.55c.83-2.03,1.54-3.61,2.12-5.23.64-1.8,1.89-3.77,1.59-5.43-.79-4.36-2.28-8.6-3.58-13.21-4.77,9-4.81,14.97-.13,23.87Zm-13.51-74.16c9-3.04,17.79-2.93,27.01.16-6.98-8.97-20.82-8.93-27.01-.16Z"/>
    <path class="cls-2" d="m238.42,233.27h8.52v8.57h-8.52v-8.57Z"/>
    <path class="cls-2" d="m256.14,241.81v-8.53h8.53v8.53h-8.53Z"/>
    <path class="cls-2" d="m247.09,251.12v8.44h-8.63v-8.44h8.63Z"/>
    <path class="cls-2" d="m256.15,259.61v-8.52h8.57v8.52h-8.57Z"/>
    <path class="cls-2" d="m238.49,268.75h8.48v8.63h-8.48v-8.63Z"/>
    <path class="cls-2" d="m256.22,268.77h8.54v8.53h-8.54v-8.53Z"/>
  </g>
</svg>