<?xml version="1.0" encoding="UTF-8"?>
<svg id="Capa_1" data-name="Capa 1" xmlns="http://www.w3.org/2000/svg" xmlns:xlink="http://www.w3.org/1999/xlink" viewBox="0 0 501.41 497.76">
  <defs>
    <style>
      .cls-1 {
        fill: #efedee;
        filter: url(#drop-shadow-1);
      }

      .cls-1, .cls-2 {
        stroke-width: 0px;
      }

      .cls-2 {
        fill: #565a5c;
      }
    </style>
    <filter id="drop-shadow-1" filterUnits="userSpaceOnUse">
      <feOffset dx="2" dy="4"/>
      <feGaussianBlur result="blur" stdDeviation="5"/>
      <feFlood flood-color="#000" flood-opacity=".37"/>
      <feComposite in2="blur" operator="in"/>
      <feComposite in="SourceGraphic"/>
    </filter>
  </defs>
  <rect class="cls-1" x="14.98" y="11.18" width="469.21" height="467.42" rx="7.45" ry="7.45"/>
  <g>
    <path class="cls-2" d="m273.35,304.98c2.9-6.44,5.91-13.16,8.95-19.86,2.24-4.95,5.99-8.18,11.3-9.32,4.57-.98,8.87-.06,12.92,2.86,3.04-4.37,6.81-7.55,12.37-7.79,5.44-.24,9.64,2.07,12.91,6.41,3.55-1.81,7.18-2.45,10.99-1.4,9.59,2.66,13.52,14.06,7.6,22.05-.27.37-.55.75-.87,1.07-15.4,15.28-30.24,31.2-46.37,45.67-19.03,17.08-42.09,23.98-67.62,22.02-20.53-1.58-38.51-9.37-54-22.93-.29-.25-.59-.48-1.32-1.06,0,3,0,5.63,0,8.25-.01,3.89-1.17,5.03-5.12,5.04-3.14,0-6.27,0-9.66,0,0,2.48.05,4.77-.01,7.05-.06,2.49-1.41,3.99-3.81,4-9.69.05-19.38.02-29.25.02v-7.35h25.57v-73.83h-25.6v-7.47h11.8c5.31,0,10.62,0,15.93,0,4.3,0,5.35,1.03,5.38,5.24,0,.61,0,1.22,0,2.14,3.15,0,6.2,0,9.25,0,4.54,0,5.47.94,5.53,5.56,0,.46.04.91.07,1.54,1.87-.74,3.59-1.56,5.4-2.11,10.87-3.31,20.66-1.26,29.27,6.16,2.09,1.8,4.02,3.81,5.92,5.83,1.03,1.1,2.1,1.52,3.61,1.52,13.47-.06,26.93-.07,40.4,0,2.74.01,5.47.42,8.49.66Zm-52.4,25.16c.99,0,1.83,0,2.66,0,14.31,0,28.62.01,42.94,0,4.36,0,7.81-2.34,9.15-6.1,2.19-6.13-2.27-12.33-9-12.35-14.85-.04-29.7-.04-44.55.02-2,0-3.52-.59-4.9-2.04-2.44-2.56-4.92-5.1-7.55-7.46-7.71-6.91-19.59-7.36-27.95-1.27-1.2.87-1.61,1.8-1.59,3.26.08,6,.02,12,.04,18.01.01,3.38-.93,7.25.4,10,1.51,3.11,4.93,5.39,7.79,7.71,19.95,16.23,42.76,22.51,68.14,18.66,18.68-2.83,34.56-11.43,47.87-24.85,12.79-12.9,25.67-25.69,38.51-38.54.49-.49,1.01-.96,1.42-1.51,1.58-2.16,1.91-4.5.81-6.96-1.07-2.39-3.01-3.66-5.57-3.89-2.4-.22-4.26.86-5.93,2.53-10.31,10.36-20.67,20.68-31,31.03-6.43,6.44-13.73,11.59-22.08,15.24-.69.3-1.41.67-1.95,1.18-3.61,3.43-7.91,4.78-12.83,4.75-14.16-.06-28.32-.02-42.47-.02-.75,0-1.5,0-2.36,0v-7.39Zm-48.3,18.37v-55.12h-7.1v55.12h7.1Zm111.88-27.88c.2.2.39.4.59.61,3.18-2.49,6.62-4.72,9.5-7.52,10.41-10.13,20.63-20.46,30.91-30.72.2-.2.33-.48.47-.68-2.96-5.2-8.7-5.59-12.29-.82-6.61,8.78-13.14,17.61-19.7,26.42-3.16,4.24-6.32,8.47-9.47,12.71Zm17.56-35.93c-4.82-3.39-10.49-1.96-12.91,3.22-3.02,6.46-5.78,13.05-8.87,19.48-1.05,2.18-.57,3.49,1.24,4.85,6.86-9.21,13.65-18.32,20.53-27.55Z"/>
    <path class="cls-2" d="m257.74,202.57c11.64-11.63,23.2-23.19,34.99-34.97-2.75,0-5.39.01-8.03,0-3.49-.02-4.75-1.26-4.76-4.7-.02-4.31-.02-8.62,0-12.92.02-3.19,1.31-4.53,4.45-4.53,14.23-.02,28.46-.02,42.7,0,3.28,0,4.56,1.32,4.56,4.67.01,14.16.01,28.31,0,42.47,0,3.2-1.32,4.55-4.42,4.57-4.46.03-8.92.03-13.39,0-3-.02-4.31-1.38-4.34-4.41-.03-2.74,0-5.47,0-8.66-.95.88-1.55,1.41-2.12,1.98-15.18,15.17-30.36,30.35-45.53,45.53-3.5,3.5-4.87,3.44-8.24-.31-9.21-10.24-18.42-20.47-27.64-30.7-.46-.51-.94-1-1.53-1.63-.65.6-1.26,1.14-1.84,1.71-9.2,9.19-18.39,18.39-27.58,27.58-2.94,2.94-4.47,2.95-7.35.08-3.16-3.15-6.33-6.29-9.46-9.47-2.28-2.31-2.32-4.1-.06-6.36,14.4-14.43,28.82-28.84,43.25-43.25,2.37-2.36,4.28-2.22,6.65.41,9.42,10.46,18.84,20.92,28.26,31.39.51.56,1.04,1.1,1.46,1.54Zm66.36-12.92v-36.71h-36.63v7.28c4.59,0,9.04.04,13.49-.02,1.99-.02,3.71.32,4.55,2.37.81,1.97-.18,3.37-1.51,4.69-14.26,14.25-28.51,28.51-42.77,42.76-2.66,2.65-4.46,2.6-6.97-.19-5.98-6.63-11.94-13.27-17.91-19.9-3.95-4.39-7.92-8.78-11.68-12.95-13.02,13.01-25.9,25.89-38.72,38.71,1.75,1.72,3.64,3.56,5.79,5.66.52-.61,1.06-1.36,1.71-2.01,9.13-9.15,18.27-18.29,27.42-27.43,2.96-2.96,4.64-2.9,7.45.22,9.37,10.41,18.74,20.81,28.1,31.23.49.55.8,1.26,1.36,2.18,1.14-1.31,1.71-2.05,2.36-2.7,16.53-16.55,33.08-33.08,49.61-49.64,1.38-1.38,2.79-2.48,4.87-1.58,2.04.88,2.32,2.62,2.3,4.59-.05,4.44-.02,8.88-.02,13.44h7.22Z"/>
    <path class="cls-2" d="m224.61,289.4h-7.47v-2.36c0-18.39,0-36.78,0-55.17,0-4.06,1.11-5.15,5.23-5.16,4.23,0,8.46-.03,12.7.01,2.77.03,4.22,1.38,4.22,4.06.02,21.78,0,43.55,0,65.33,0,.15-.06.3-.12.61h-7.22v-62.51h-7.34v55.18Z"/>
    <path class="cls-2" d="m313.27,263.54h-7.47v-2.36c0-17.16,0-34.32,0-51.48,0-4.06,1.11-5.15,5.23-5.15,4.23,0,8.46-.03,12.7.01,2.76.03,4.21,1.38,4.22,4.07.02,18.08,0,36.17,0,54.25,0,.15-.06.29-.12.61h-7.22v-51.44h-7.34v51.49Z"/>
    <path class="cls-2" d="m261.55,248.99h-7.42v47.74h-7.33c-.04-.74-.1-1.49-.1-2.23,0-15.93,0-31.86,0-47.78,0-4.12,1.09-5.23,5.15-5.23,4.31,0,8.62-.04,12.93.01,2.61.03,4.06,1.41,4.06,3.98.03,16.85.01,33.7,0,50.55,0,.21-.1.43-.18.74h-7.11v-47.8Z"/>
    <path class="cls-2" d="m202.44,245.29h-7.42v36.66h-7.32c-.04-.67-.11-1.33-.11-2,0-12.39,0-24.78,0-37.16,0-3.8,1.17-4.99,4.92-5,4.39,0,8.77-.04,13.16.01,2.61.03,4.05,1.41,4.06,3.99.03,13.16.01,26.31,0,39.47,0,.21-.1.43-.18.74h-7.11v-36.71Z"/>
    <path class="cls-2" d="m283.71,270.92h-7.47c0-.71,0-1.3,0-1.9,0-12.54,0-25.08,0-37.63,0-3.44,1.27-4.68,4.76-4.69,4.39-.01,8.77-.03,13.16,0,2.67.02,4.2,1.34,4.21,3.83.05,12.15.02,24.3.02,36.62h-7.35v-32.96h-7.34v36.71Z"/>
  </g>
</svg>