<?xml version="1.0" encoding="UTF-8"?>
<svg id="Capa_1" data-name="Capa 1" xmlns="http://www.w3.org/2000/svg" xmlns:xlink="http://www.w3.org/1999/xlink" viewBox="0 0 498.48 496.56">
  <defs>
    <style>
      .cls-1 {
        fill: #efedee;
        filter: url(#drop-shadow-1);
      }

      .cls-1, .cls-2 {
        stroke-width: 0px;
      }

      .cls-2 {
        fill: #565a5c;
      }
    </style>
    <filter id="drop-shadow-1" filterUnits="userSpaceOnUse">
      <feOffset dx="2" dy="4"/>
      <feGaussianBlur result="blur" stdDeviation="5"/>
      <feFlood flood-color="#000" flood-opacity=".37"/>
      <feComposite in2="blur" operator="in"/>
      <feComposite in="SourceGraphic"/>
    </filter>
  </defs>
  <rect class="cls-1" x="13.23" y="11.01" width="468.17" height="466.38" rx="7.45" ry="7.45"/>
  <g>
    <path class="cls-2" d="m303.81,337.08c-3.44.02-6.38-1.27-8.99-3.44-3.67-3.05-7.38-6.06-11.01-9.16-2.73-2.33-5.74-3.18-9.11-1.8-3.38,1.39-4.9,4.1-5.14,7.7-.33,4.83-.84,9.66-1.24,14.48-.55,6.66-5.14,11.79-11.75,12.75-8.09,1.18-16.22,1.17-24.32.21-7.11-.85-11.59-5.69-12.35-12.9-.48-4.6-.92-9.2-1.3-13.81-.3-3.67-1.59-6.67-5.21-8.18-3.62-1.51-6.64-.37-9.45,2.07-3.54,3.08-7.14,6.11-10.78,9.08-5.8,4.74-12.79,4.91-18.35-.1-5.58-5.03-10.95-10.34-15.98-15.91-4.83-5.34-4.64-12.39-.11-18,3.05-3.77,6.15-7.49,9.29-11.18,2.33-2.73,3.17-5.75,1.79-9.12-1.39-3.38-4.09-4.9-7.7-5.14-4.83-.33-9.66-.84-14.49-1.23-6.66-.54-11.78-5.15-12.75-11.75-1.19-8.09-1.16-16.22-.2-24.32.85-7.12,5.69-11.6,12.89-12.35,4.6-.48,9.2-.92,13.81-1.29,3.68-.3,6.66-1.61,8.17-5.22,1.52-3.62.37-6.65-2.06-9.45-3.08-3.55-6.1-7.15-9.09-10.77-4.67-5.66-4.92-12.73-.04-18.17,5.06-5.65,10.43-11.06,16.05-16.15,5.34-4.83,12.39-4.64,18-.11,3.77,3.04,7.5,6.15,11.19,9.29,2.73,2.33,5.74,3.18,9.11,1.8,3.38-1.39,4.9-4.1,5.15-7.7.33-4.83.84-9.66,1.23-14.49.53-6.65,5.13-11.78,11.74-12.75,8.09-1.19,16.22-1.16,24.32-.21,7.09.83,11.63,5.73,12.35,12.9.47,4.67.92,9.35,1.31,14.03.31,3.6,1.68,6.48,5.19,7.96,3.52,1.48,6.52.46,9.28-1.91,3.62-3.11,7.27-6.19,10.94-9.23,5.63-4.67,12.7-4.93,18.17-.04,5.66,5.05,11.06,10.43,16.16,16.05,4.83,5.33,4.64,12.37.12,18-3.04,3.78-6.13,7.51-9.28,11.2-2.33,2.73-3.18,5.74-1.8,9.11,1.39,3.39,4.1,4.89,7.71,5.14,4.54.31,9.06.85,13.59,1.18,8.05.59,13.34,5.29,13.83,13.35.45,7.42.43,14.9.03,22.33-.4,7.26-5.57,12.04-12.9,12.79-4.6.48-9.2.92-13.81,1.29-3.68.29-6.65,1.6-8.17,5.21-1.53,3.62-.39,6.64,2.05,9.45,3.08,3.54,6.1,7.15,9.09,10.77,4.66,5.66,4.92,12.73.04,18.18-5.06,5.65-10.54,10.93-16.03,16.19-2.72,2.61-5.71,3.43-9.21,3.39Zm-120.38-172.74c-2.29,1.1-4.63,1.65-6.15,3.06-5.27,4.93-10.42,10.02-15.3,15.32-3.71,4.03-3.47,8.68.08,12.95,3.33,4.02,6.86,7.89,10.01,12.04,5.85,7.73,1.48,18.63-8.08,20.08-5.37.81-10.82,1.11-16.23,1.69-4.7.51-8.3,3.42-8.51,8.02-.36,7.79-.32,15.63.12,23.42.27,4.72,4.03,7.64,8.75,8.03,4.75.4,9.5.9,14.26,1.23,5.4.38,9.42,2.81,11.52,7.83,2.14,5.11.99,9.75-2.57,13.91-3.05,3.57-6.04,7.2-9.02,10.83-3.31,4.05-3.49,8.76.07,12.6,4.86,5.23,9.93,10.29,15.19,15.12,4.07,3.74,8.7,3.53,12.95,0,3.9-3.24,7.69-6.61,11.66-9.77,7.85-6.25,19.04-1.94,20.53,7.97.8,5.37,1.11,10.82,1.69,16.23.49,4.54,3.39,7.81,7.95,8.39,7.87,1.01,15.78,1.03,23.64-.14,4.58-.68,7.46-4.1,7.85-8.74.41-4.83.9-9.65,1.26-14.48.39-5.31,2.85-9.25,7.76-11.34,5-2.13,9.62-1.08,13.75,2.38,3.6,3.02,7.21,6.03,10.84,9.01,4.26,3.51,8.94,3.72,12.96,0,5.13-4.75,10.08-9.73,14.81-14.88,3.95-4.3,3.78-8.83.06-13.3-3.29-3.96-6.77-7.77-9.88-11.86-5.95-7.83-1.56-18.73,8.14-20.19,5.37-.8,10.82-1.1,16.23-1.69,4.57-.49,7.83-3.36,8.42-7.92,1.02-7.94,1.05-15.93-.16-23.86-.66-4.33-4.06-7.26-8.43-7.66-4.9-.44-9.8-.91-14.71-1.27-5.31-.39-9.27-2.82-11.36-7.73-2.13-4.99-1.14-9.61,2.34-13.75,3.07-3.65,6.13-7.32,9.14-11.02,3.39-4.16,3.56-8.85-.08-12.78-4.81-5.18-9.83-10.18-15.04-14.96-4.16-3.82-8.75-3.6-13.12.03-4.02,3.33-7.87,6.88-12.05,10-7.78,5.82-18.57,1.42-20.03-8.18-.82-5.37-1.1-10.82-1.68-16.23-.5-4.59-3.35-7.89-7.87-8.47-7.94-1.03-15.93-1.06-23.86.14-4.45.67-7.34,4.1-7.73,8.6-.42,4.83-.9,9.65-1.26,14.48-.4,5.39-2.84,9.41-7.87,11.5-4.93,2.04-9.48,1.04-13.55-2.36-3.66-3.06-7.24-6.23-11.06-9.09-1.82-1.37-4.11-2.11-6.4-3.24Z"/>
    <path class="cls-2" d="m243.67,299.3c-27.69-.02-50.39-22.69-50.45-50.41-.06-27.77,22.74-50.6,50.51-50.57,27.8.03,50.57,22.88,50.45,50.62-.12,27.74-22.82,50.37-50.51,50.35Zm.04-18.5c17.65,0,31.99-14.35,31.98-32,0-17.65-14.35-31.99-32-31.99-17.65,0-31.97,14.34-31.97,32,0,17.67,14.33,31.99,31.99,31.98Z"/>
    <path class="cls-2" d="m249.79,257.05c-.07-3.4-2.59-5.72-6.49-6.01-4.5-.34-7.77-2.55-9.41-6.77-1.57-4.03-.78-7.77,2.12-11,.59-.66,1.28-1.3,2.06-1.7,1.85-.96,4-1.51,3.64-4.41-.05-.42,1.57-1.58,2.09-1.4.85.28,2.01,1.37,2.02,2.13.02,1.72.74,2.32,2.17,3.04,1.6.81,3.01,2.14,4.28,3.45,1.01,1.04.92,2.38-.33,3.3-1.16.85-2.1.29-3.17-.53-1.42-1.08-3.01-2.34-4.67-2.6-3.34-.52-6.08,2.02-6.44,5.37-.34,3.21,2.01,6.13,5.34,6.6,1.1.16,2.24.17,3.31.44,4.54,1.14,7.62,4.91,7.98,9.65.31,4.21-2.23,8.45-6.31,10.16-1.38.58-2.11,1.12-2.14,2.81-.02.83-1.2,2.14-2.05,2.32-1.42.29-2.4-.87-2.26-2.35.15-1.58-.6-2.05-1.88-2.72-1.66-.87-3.14-2.2-4.48-3.55-1.02-1.03-.96-2.37.3-3.3,1.16-.85,2.29-.53,3.13.57,1.59,2.09,3.65,3.01,6.25,2.59,2.82-.46,5.01-3.17,4.95-6.07Z"/>
  </g>
</svg>