<?xml version="1.0" encoding="UTF-8"?>
<svg id="Capa_1" data-name="Capa 1" xmlns="http://www.w3.org/2000/svg" xmlns:xlink="http://www.w3.org/1999/xlink" viewBox="0 0 499.2 497.52">
  <defs>
    <style>
      .cls-1 {
        fill: #efedee;
        filter: url(#drop-shadow-1);
      }

      .cls-1, .cls-2 {
        stroke-width: 0px;
      }

      .cls-2 {
        fill: #767778;
      }
    </style>
    <filter id="drop-shadow-1" filterUnits="userSpaceOnUse">
      <feOffset dx="2" dy="4"/>
      <feGaussianBlur result="blur" stdDeviation="5"/>
      <feFlood flood-color="#000" flood-opacity=".37"/>
      <feComposite in2="blur" operator="in"/>
      <feComposite in="SourceGraphic"/>
    </filter>
  </defs>
  <rect class="cls-1" x="13.05" y="11.06" width="469.03" height="467.24" rx="7.45" ry="7.45"/>
  <g>
    <path class="cls-2" d="m180.71,348.66c-1.26-.52-2.59-.93-3.77-1.59-4.35-2.46-6.43-6.31-6.5-11.25-.05-3.94-.01-7.87-.01-11.81,0-50.98,0-101.96-.01-152.94,0-3.66.79-6.98,3.33-9.73,2.64-2.86,5.97-4.11,9.82-4.11,7.67,0,15.34-.02,23,.02,1.35,0,2.15-.25,2.87-1.63,2.25-4.34,6.02-6.54,10.9-6.68,3.17-.09,6.36-.05,9.53,0,1.05.02,1.52-.3,1.92-1.35,2.65-6.93,8.64-11.14,15.66-11.14,7.03,0,12.99,4.18,15.66,11.13.4,1.04.86,1.37,1.92,1.35,3.04-.06,6.08-.05,9.12-.01,5.22.07,9.16,2.35,11.51,7.05.54,1.07,1.19,1.27,2.25,1.27,7.6-.03,15.2-.02,22.8-.02,8.63,0,13.76,5.16,13.76,13.84,0,54.02,0,108.04,0,162.06,0,9.16-1.97,12.15-10.28,15.54h-133.46Zm-1.99-95.83c0,27.22,0,54.44,0,81.65,0,4.62,1.28,5.88,5.93,5.88,41.86,0,83.73,0,125.59,0,4.64,0,5.93-1.27,5.93-5.89,0-23.35,0-46.7,0-70.05,0-30.95,0-61.9,0-92.84,0-4.83-1.27-6.08-6.17-6.08-7.25,0-14.51.03-21.76-.03-1.31-.01-2.05.3-2.71,1.57-2.31,4.39-6.02,6.75-11.04,6.76-18.03.03-36.06.03-54.09,0-5.01,0-8.73-2.37-11.04-6.76-.66-1.26-1.4-1.58-2.71-1.57-7.25.06-14.51.03-21.76.03-4.91,0-6.16,1.24-6.16,6.09,0,27.08,0,54.16,0,81.24Zm68.55-87.3c8.84,0,17.67.01,26.51,0,3.07,0,4.84-1.55,4.83-4.14,0-2.57-1.82-4.16-4.85-4.18-4.21-.02-8.42,0-12.63,0-3.81,0-5.02-1.12-5.4-4.94-.42-4.24-3.97-7.49-8.22-7.52-4.34-.03-7.95,3.25-8.36,7.6-.34,3.67-1.62,4.85-5.26,4.86-4.35.01-8.7-.03-13.05.02-2.99.03-4.81,1.94-4.55,4.65.22,2.28,1.92,3.65,4.67,3.66,8.77.02,17.53,0,26.3,0Z"/>
    <path class="cls-2" d="m247.46,198.85c-18.09,0-36.17,0-54.26,0-.96,0-1.95,0-2.88-.19-1.94-.39-3.2-2.08-3.16-4.05.04-1.96,1.39-3.59,3.34-3.91.81-.13,1.65-.13,2.48-.13,36.31,0,72.63,0,108.94,0,3.95,0,5.9,1.42,5.84,4.22-.06,2.73-1.97,4.07-5.81,4.07-18.16,0-36.31,0-54.47,0Z"/>
    <path class="cls-2" d="m203.59,286.21c-3.87,0-7.74.03-11.6,0-3.34-.03-4.85-1.48-4.87-4.79-.04-7.87-.05-15.75,0-23.62.02-3.28,1.6-4.82,4.87-4.83,7.87-.03,15.75-.03,23.62,0,3.11.01,4.76,1.61,4.78,4.73.05,7.94.05,15.89,0,23.83-.02,3.15-1.59,4.65-4.78,4.69-4.01.04-8.01.01-12.02.01Zm8.4-24.86h-16.48v16.45h16.48v-16.45Z"/>
    <path class="cls-2" d="m187.1,311.3c0-3.87-.02-7.74,0-11.6.03-3.59,1.46-5.08,5.01-5.09,7.74-.03,15.47-.03,23.21,0,3.57.01,5.07,1.5,5.08,5.03.03,7.74.03,15.47,0,23.21-.01,3.47-1.61,5.02-5.12,5.03-7.67.02-15.33.02-23,0-3.64,0-5.14-1.5-5.17-5.18-.03-3.8,0-7.6,0-11.4Zm8.49-8.28v16.39h16.41v-16.39h-16.41Z"/>
    <path class="cls-2" d="m268.16,265.4c-11.19,0-22.37,0-33.56,0-.76,0-1.53.03-2.28-.06-1.88-.23-3.31-1.69-3.53-3.53-.24-1.97.82-3.77,2.71-4.37.83-.26,1.76-.32,2.65-.32,22.72-.02,45.44-.02,68.16,0,.89,0,1.81.05,2.65.31,1.92.59,2.96,2.36,2.73,4.34-.22,1.86-1.61,3.32-3.48,3.57-.75.1-1.52.06-2.28.06-11.26,0-22.51,0-33.77,0Z"/>
    <path class="cls-2" d="m268.37,215.56c11.26,0,22.51,0,33.77,0,.62,0,1.25-.03,1.86.03,1.99.18,3.46,1.62,3.69,3.58.23,1.99-.81,3.76-2.73,4.33-.97.29-2.04.33-3.06.33-22.44.02-44.89.01-67.33.01-.41,0-.83.01-1.24,0-2.81-.12-4.61-1.84-4.55-4.3.06-2.42,1.8-3.97,4.59-3.97,11.67-.02,23.34,0,35.01,0Z"/>
    <path class="cls-2" d="m268.34,298.78c11.19,0,22.37,0,33.56,0,.76,0,1.52-.02,2.27.08,1.98.24,3.39,1.75,3.54,3.72.16,2.05-1.09,3.81-3.12,4.28-.8.18-1.64.21-2.46.21-22.58.01-45.16.01-67.74,0-.82,0-1.67-.03-2.47-.21-2.03-.45-3.28-2.2-3.15-4.26.13-1.94,1.55-3.48,3.52-3.73.75-.1,1.52-.08,2.27-.08,11.26,0,22.51,0,33.77,0Z"/>
    <path class="cls-2" d="m199.2,233.96c4.34-3.96,8.37-7.63,12.39-11.32.51-.47.95-1,1.45-1.48,1.93-1.84,4.39-1.94,6.08-.26,1.72,1.7,1.65,4.07-.22,6.09-1.41,1.52-2.87,2.98-4.32,4.47-3.6,3.72-7.2,7.45-10.82,11.15-2.66,2.72-4.69,2.7-7.41-.01-2.54-2.53-5.1-5.06-7.61-7.62-2-2.04-2.14-4.49-.4-6.24,1.71-1.72,4.22-1.61,6.23.39,1.76,1.75,3.43,3.58,4.62,4.83Z"/>
    <path class="cls-2" d="m249.44,232.17c5.31,0,10.62-.01,15.93,0,3.08,0,4.88,1.53,4.89,4.1.02,2.58-1.79,4.18-4.83,4.18-10.62.02-21.25.02-31.87,0-2.98,0-4.84-1.68-4.8-4.22.04-2.48,1.82-4.04,4.73-4.05,5.31-.02,10.62,0,15.93,0Z"/>
    <path class="cls-2" d="m249.44,323.71c-5.31,0-10.62.02-15.93-.01-2.87-.02-4.69-1.64-4.73-4.09-.04-2.44,1.67-4.14,4.38-4.17,5.03-.05,10.07-.02,15.1-.02,5.72,0,11.45-.02,17.17,0,3.08.01,4.85,1.56,4.83,4.14-.02,2.54-1.84,4.12-4.89,4.13-5.31.02-10.62,0-15.93,0Z"/>
    <path class="cls-2" d="m249.42,282.03c-5.24,0-10.48.01-15.72,0-3.12-.01-4.9-1.5-4.92-4.05-.03-2.52,1.81-4.21,4.82-4.22,10.62-.03,21.24-.03,31.86,0,3.01,0,4.85,1.69,4.82,4.22-.03,2.55-1.81,4.04-4.92,4.05-5.31.02-10.62,0-15.93,0Z"/>
  </g>
</svg>