<?xml version="1.0" encoding="UTF-8"?>
<svg id="Capa_1" data-name="Capa 1" xmlns="http://www.w3.org/2000/svg" xmlns:xlink="http://www.w3.org/1999/xlink" viewBox="0 0 578.84 542.55">
  <defs>
    <style>
      .cls-1 {
        clip-path: url(#clippath);
      }

      .cls-2 {
        fill: none;
      }

      .cls-2, .cls-3, .cls-4, .cls-5 {
        stroke-width: 0px;
      }

      .cls-6 {
        opacity: .2;
      }

      .cls-3 {
        fill: #ed1b24;
        filter: url(#drop-shadow-1);
      }

      .cls-4 {
        fill: #fff;
      }

      .cls-5 {
        fill: #efedee;
      }
    </style>
    <filter id="drop-shadow-1" filterUnits="userSpaceOnUse">
      <feOffset dx="2" dy="4"/>
      <feGaussianBlur result="blur" stdDeviation="5"/>
      <feFlood flood-color="#000" flood-opacity=".37"/>
      <feComposite in2="blur" operator="in"/>
      <feComposite in="SourceGraphic"/>
    </filter>
    <clipPath id="clippath">
      <rect class="cls-2" x="66.33" y="55.46" width="467.95" height="328.07" rx="6" ry="6"/>
    </clipPath>
  </defs>
  <rect class="cls-3" x="67.61" y="55.99" width="469.21" height="467.42" rx="7.45" ry="7.45"/>
  <g class="cls-6">
    <g class="cls-1">
      <path class="cls-5" d="m0,69.97l230.08,274.74c14.78,17.65,36.85,26.58,59.01,26.81h.33s.33,0,.33,0c22.16-.23,44.23-9.17,59.01-26.81l230.08-274.74L509.98,0l-149.4,138.56c-49.32,45.74-92.98,45.76-142.32,0L68.86,0,0,69.97Z"/>
    </g>
  </g>
  <g>
    <path class="cls-4" d="m169.4,216.43c2.26-6.53,6.88-9.01,13.7-8.89,14.11.25,28.23.11,42.34.06,4.93-.02,8.64,1.86,11.07,6.24.3.55,1.18.89,1.85,1.1.6.18,1.29.04,1.95.04,54.82,0,109.64,0,164.47,0,9.92,0,15.27,5.34,15.27,15.24,0,51.23,0,102.46,0,153.7,0,13.25-8.26,21.48-21.55,21.48-28.31,0-56.62,0-84.92,0-.57,0-1.14.03-1.71,0-2.28-.14-3.82-1.58-3.88-3.6-.06-2.1,1.54-3.73,3.95-3.75,6.85-.05,13.71-.02,20.56-.02,22.11,0,44.22,0,66.32,0,8.74,0,13.86-5.09,13.86-13.8,0-41.36,0-82.72,0-124.08,0-.73,0-1.46,0-2.62h-3.14c-57.76,0-115.52,0-173.28,0-5.19,0-6.09-.9-6.09-6.14,0-10.44,0-20.88,0-31.33,0-3.94-1.12-5.05-5.11-5.05-14.36,0-28.72,0-43.07,0-4.08,0-5.2,1.14-5.2,5.25,0,54.74,0,109.48,0,164.22,0,8.37,5.21,13.53,13.63,13.54,34.02,0,68.04,0,102.06,0,4.19,0,5.96,1.12,5.91,3.74-.04,2.58-1.8,3.64-6.04,3.64-33.69,0-67.38,0-101.08,0-11.68,0-18.26-4.98-21.55-16.29-.04-.14-.21-.24-.31-.35,0-57.44,0-114.88,0-172.32Zm121.42,33.56v-27.49h-53.07v27.49h53.07Zm60.87,0v-27.49h-53.07v27.49h53.07Zm60.98.02c0-6.79,0-13.3,0-19.82,0-5.66-2.17-7.85-7.81-7.85-14.35,0-28.7,0-43.04,0-.79,0-1.58.07-2.38.1v27.56h53.23Z"/>
    <path class="cls-4" d="m346.85,358.12c11.99,0,23.97,0,35.96,0,.81,0,1.64-.03,2.44.07,2.05.25,3.26,1.44,3.42,3.51.15,1.91-1.28,3.46-3.4,3.79-.64.1-1.3.09-1.95.09-24.46,0-48.92,0-73.38-.01-.97,0-2.21.13-2.84-.39-1.03-.85-2.33-2.23-2.27-3.31.08-1.21,1.37-2.57,2.47-3.41.71-.54,2.04-.31,3.09-.32,12.15-.02,24.3-.01,36.45-.01Z"/>
    <path class="cls-4" d="m346.87,293.81c-12.48,0-24.95.04-37.43-.06-1.33-.01-3-.52-3.89-1.41-1.95-1.95-.61-5.25,2.17-5.81.71-.14,1.46-.09,2.19-.09,24.47,0,48.93,0,73.4,0,.33,0,.65,0,.98,0,2.77.07,4.47,1.55,4.4,3.82-.07,2.17-1.71,3.55-4.39,3.55-12.48.02-24.95,0-37.43,0Z"/>
    <path class="cls-4" d="m346.86,334.28c12.07,0,24.14,0,36.2,0,.81,0,1.64-.03,2.44.07,1.87.24,2.94,1.42,3.14,3.22.19,1.82-.68,3.19-2.44,3.77-.83.27-1.76.32-2.64.32-24.54.02-49.09.01-73.63.01-.33,0-.65.01-.98,0-2.61-.12-4.29-1.59-4.3-3.74,0-2.16,1.65-3.64,4.29-3.65,12.64-.03,25.28-.01,37.92-.01Z"/>
    <path class="cls-4" d="m323.61,317.76c-4.81,0-9.62.02-14.43,0-2.8-.02-4.53-1.46-4.54-3.7,0-2.25,1.7-3.66,4.53-3.66,9.62-.02,19.23-.02,28.85,0,2.84,0,4.54,1.41,4.54,3.66,0,2.24-1.73,3.69-4.53,3.71-4.81.03-9.62,0-14.43,0Z"/>
    <path class="cls-4" d="m370.57,310.38c4.57,0,9.13-.02,13.7,0,2.69.01,4.33,1.35,4.41,3.52.09,2.27-1.62,3.83-4.37,3.84-9.22.03-18.43.03-27.65,0-2.79,0-4.45-1.51-4.39-3.81.06-2.21,1.64-3.54,4.35-3.56,4.65-.03,9.3,0,13.95,0Z"/>
    <path class="cls-4" d="m200.59,239.92c-2.2,0-4.41.05-6.61-.01-2.44-.07-4.02-1.57-4.02-3.69,0-2.12,1.58-3.63,4.02-3.66,4.49-.05,8.97-.05,13.46,0,2.3.03,3.84,1.51,3.92,3.53.08,2.09-1.54,3.72-3.92,3.8-2.28.08-4.57.02-6.85.02Z"/>
    <path class="cls-4" d="m262.41,232.55c2.2,0,4.4-.05,6.6.01,2.33.07,3.78,1.48,3.82,3.57.04,2.08-1.41,3.7-3.66,3.75-4.64.09-9.29.09-13.93,0-2.28-.04-3.71-1.62-3.69-3.71.02-2.1,1.46-3.54,3.78-3.61,2.36-.07,4.72-.02,7.09-.02Z"/>
    <path class="cls-4" d="m325.3,232.55c2.2,0,4.41-.05,6.61.01,2.29.07,3.84,1.52,3.9,3.54.07,2.12-1.51,3.76-3.91,3.8-4.57.07-9.14.07-13.7,0-2.24-.04-3.8-1.68-3.8-3.68,0-2.01,1.56-3.57,3.81-3.64,2.36-.08,4.73-.02,7.1-.02Z"/>
    <path class="cls-4" d="m385.89,239.92c-2.2,0-4.4.05-6.6-.01-2.44-.07-4.02-1.55-4.03-3.68,0-2.14,1.54-3.64,4-3.67,4.48-.05,8.96-.05,13.45,0,2.34.03,3.81,1.44,3.88,3.52.07,2.18-1.43,3.73-3.85,3.82-2.28.08-4.56.02-6.84.02Z"/>
    <g>
      <path class="cls-4" d="m288.92,365.2c-.51.74-1.21.96-2.1.96-32.07-.02-64.14-.01-96.22-.01-1.71,0-2.15-.44-2.15-2.14.12-23.67,17.44-44.29,40.89-48.7,24.87-4.67,49.24,9.72,57.09,33.71,1.23,3.77,2.01,7.64,2.31,11.6.02.29.11.57.17.85v3.73Zm-17.16-2.05c-.13-3.51-.76-6.81-1.99-9.96-3.98-10.21-11.24-16.95-21.66-20.3-1.19-.38-1.65-1.05-1.37-1.98.26-.85,1.07-1.2,2.17-.84,13.42,4.43,21.84,13.47,25.08,27.25.44,1.89.58,3.86.87,5.81h11.03c-.39-23.78-20.36-46.06-47.71-45.74-27.79.33-46.53,23.36-46.67,45.75h11.08c.15-1.37.22-2.71.44-4.02,1.96-11.39,7.94-20.04,17.93-25.81,2.43-1.41,5.19-2.26,7.82-3.32.78-.31,1.46.04,1.79.78.33.74.13,1.42-.6,1.86-.25.15-.54.22-.82.31-12.27,4.13-19.97,12.45-22.9,25.09-.38,1.66-.49,3.38-.73,5.14h22.3c.05-.14.1-.26.12-.38,1.07-4.73,3.91-7.72,8.67-8.79.64-.14.62-.54.62-1.01,0-5.79,0-11.58,0-17.36,0-.26-.05-.52-.11-.98-.68.9-1.2,1.61-1.74,2.31-.69.9-1.55,1.11-2.27.58-.72-.54-.77-1.41-.09-2.33,1.42-1.92,2.85-3.83,4.29-5.73.89-1.17,1.89-1.16,2.79.02,1.42,1.87,2.83,3.76,4.24,5.65.72.96.68,1.87-.08,2.41-.72.52-1.56.29-2.26-.62-.54-.7-1.07-1.41-1.74-2.29-.05.42-.09.57-.09.73,0,5.92,0,11.84-.02,17.76,0,.66.3.79.85.92,4.35,1.07,7.11,3.8,8.29,8.12.09.34.18.68.26,1.01h22.21Zm-25.36,0c-.38-3.56-3.92-6.46-7.77-6.43-3.81.02-7.34,2.97-7.65,6.43h15.42Z"/>
      <path class="cls-4" d="m237.24,322.93c0-.26-.02-.52,0-.78.09-.85.68-1.42,1.45-1.43.77,0,1.37.57,1.45,1.42.05.52.04,1.04,0,1.56-.06.96-.6,1.5-1.45,1.5-.85,0-1.38-.54-1.46-1.49-.02-.26,0-.52,0-.78h0Z"/>
      <path class="cls-4" d="m256.62,325.27c-.48,1.01-.75,1.92-1.31,2.59-.28.33-1.21.45-1.62.23-.41-.22-.77-.99-.74-1.48.05-.68.36-1.43.81-1.95.33-.38,1.09-.67,1.57-.58.47.09.82.73,1.29,1.19Z"/>
      <path class="cls-4" d="m222.64,323.98c1.08.07,1.21,1.12,1.6,1.95.33.7.41,1.38-.19,1.98-.66.67-1.77.54-2.26-.3-.32-.56-.58-1.17-.75-1.8-.27-1.01.44-1.87,1.59-1.84Z"/>
      <path class="cls-4" d="m201.07,350.71c-1.01-.49-1.93-.76-2.6-1.32-.33-.28-.46-1.22-.24-1.63.22-.41.99-.77,1.49-.73.68.05,1.43.36,1.95.81.38.33.67,1.09.57,1.57-.1.47-.73.84-1.17,1.3Z"/>
      <path class="cls-4" d="m278.09,346.71c.46.47,1.05.81,1.16,1.27.11.47-.1,1.24-.46,1.53-.58.47-1.38.82-2.12.9-.47.05-1.21-.38-1.45-.81-.21-.38-.08-1.29.24-1.54.71-.56,1.64-.86,2.64-1.34Z"/>
      <path class="cls-4" d="m211.23,336.02c-.14.19-.36.76-.75.93-.43.19-1.12.17-1.53-.06-.57-.32-1.11-.86-1.43-1.43-.23-.41-.28-1.11-.08-1.52.18-.36.79-.67,1.24-.72.9-.1,2.52,1.57,2.55,2.8Z"/>
      <path class="cls-4" d="m267.3,337.19c-.18-.14-.75-.36-.91-.75-.18-.44-.16-1.12.07-1.52.33-.57.86-1.1,1.43-1.43.41-.23,1.11-.27,1.52-.07.37.18.67.79.73,1.24.1.88-1.61,2.51-2.83,2.53Z"/>
    </g>
  </g>
</svg>