<?xml version="1.0" encoding="UTF-8"?>
<svg id="Capa_1" data-name="Capa 1" xmlns="http://www.w3.org/2000/svg" xmlns:xlink="http://www.w3.org/1999/xlink" viewBox="0 0 498.24 496.32">
  <defs>
    <style>
      .cls-1 {
        fill: #efedee;
        filter: url(#drop-shadow-1);
      }

      .cls-1, .cls-2 {
        stroke-width: 0px;
      }

      .cls-2 {
        fill: #767778;
      }
    </style>
    <filter id="drop-shadow-1" filterUnits="userSpaceOnUse">
      <feOffset dx="2" dy="4"/>
      <feGaussianBlur result="blur" stdDeviation="5"/>
      <feFlood flood-color="#000" flood-opacity=".37"/>
      <feComposite in2="blur" operator="in"/>
      <feComposite in="SourceGraphic"/>
    </filter>
  </defs>
  <rect class="cls-1" x="13.14" y="11.15" width="467.89" height="466.1" rx="7.45" ry="7.45"/>
  <g>
    <g>
      <path class="cls-2" d="m165.94,377.35c0-5.23,0-10.3,0-15.36,0-10.79,0-21.58,0-32.36,0-10.72,0-21.45-.01-32.17,0-7.86-.02-15.73.02-23.59.01-1.94,1.09-3.3,2.89-4,5.7-2.23,11.41-4.43,17.12-6.64,3.77-1.46,7.54-2.95,11.32-4.38.7-.26.89-.61.89-1.34-.03-11.28-.02-22.55-.02-33.83,0-3.25,1.73-4.98,4.98-4.98,28.76,0,57.52.02,86.28-.04,3.03,0,5.02,2.07,5.01,5.03-.06,11.18-.02,22.36-.02,33.54v1.25c2.56,1,5.12,1.99,7.67,2.98,7.18,2.79,14.36,5.59,21.55,8.38,2.03.79,3.01,2.28,3.01,4.42,0,8.74,0,17.48,0,26.22,0,8.77,0,17.55,0,26.32,0,8.74,0,17.48,0,26.22,0,7.93,0,15.86,0,23.79,0,.15.03.31.06.55,1.2,0,2.37-.03,3.53,0,1.82.06,3.19.9,3.86,2.62.69,1.77.49,3.52-.87,4.88-.61.61-1.59.9-2.45,1.22-.4.15-.9.08-1.35.08-55.41,0-110.82,0-166.23.01-2,0-3.66-.43-4.6-2.39-1.44-3.01.53-6.31,3.85-6.42,1.13-.04,2.26,0,3.51,0Zm41.14-.06h23.58c0-.6,0-1.15,0-1.69,0-8.84.04-17.67-.06-26.51-.03-2.56,1.91-4.94,4.7-4.8,2.07.11,4.15.01,6.23.02,5.45,0,10.91-.01,16.36.04,2.19.02,3.99,1.92,4,4.11.02,7.44.01,14.88.01,22.32,0,2.17,0,4.33,0,6.51h23.55v-149.69h-78.38v149.7Zm87.37-.02h23.39c0-5.12,0-10.15,0-15.18,0-14.62,0-29.24,0-43.86,0-13.45,0-26.9.02-40.35,0-.67-.22-.94-.83-1.18-5.59-2.15-11.17-4.34-16.75-6.51-1.92-.75-3.84-1.48-5.82-2.24v109.32Zm-96.32.04v-109.28c-.1,0-.17-.03-.22-.01-7.51,2.92-15.02,5.86-22.55,8.76-.62.24-.63.61-.63,1.12.01,5.36.01,10.72.01,16.09,0,27.56,0,55.12,0,82.68,0,.22.05.43.07.66h23.31Zm41.36-.03h13.56v-24.11h-13.56v24.11Z"/>
      <path class="cls-2" d="m253.05,244.39v13.47h-13.51v-13.47h13.51Z"/>
      <path class="cls-2" d="m239.53,309.66h13.48v13.49h-13.48v-13.49Z"/>
      <path class="cls-2" d="m229.88,244.37v13.5h-13.43v-13.5h13.43Z"/>
      <path class="cls-2" d="m276.1,257.87h-13.41v-13.5h13.41v13.5Z"/>
      <path class="cls-2" d="m253.07,277.08v13.4h-13.53v-13.4h13.53Z"/>
      <path class="cls-2" d="m216.42,323.17v-13.47h13.46v13.47h-13.46Z"/>
      <path class="cls-2" d="m276.12,323.18h-13.43v-13.48h13.43v13.48Z"/>
      <path class="cls-2" d="m229.88,290.51h-13.45v-13.43h13.45v13.43Z"/>
      <path class="cls-2" d="m276.13,290.51h-13.44v-13.43h13.44v13.43Z"/>
    </g>
    <g>
      <path class="cls-2" d="m332.84,222.36c-.88,1.27-2.08,1.65-3.61,1.65-55.27-.03-110.53-.02-165.8-.02-2.95,0-3.71-.77-3.7-3.69.21-40.79,30.05-76.33,70.47-83.91,42.86-8.04,84.84,16.75,98.37,58.09,2.13,6.5,3.47,13.16,3.98,19.98.04.49.19.98.29,1.47v6.42Zm-29.56-3.53c-.23-6.06-1.31-11.74-3.43-17.17-6.86-17.59-19.37-29.21-37.32-34.98-2.05-.66-2.85-1.82-2.37-3.41.45-1.46,1.85-2.07,3.74-1.44,23.12,7.63,37.64,23.21,43.21,46.96.77,3.26,1.01,6.65,1.49,10.01h19.01c-.67-40.97-35.09-79.38-82.22-78.81-47.89.57-80.18,40.25-80.42,78.83h19.09c.25-2.36.37-4.67.76-6.93,3.38-19.62,13.68-34.54,30.89-44.48,4.19-2.42,8.94-3.9,13.47-5.73,1.34-.54,2.51.06,3.08,1.34.56,1.27.22,2.45-1.04,3.2-.43.25-.93.38-1.41.54-21.15,7.11-34.41,21.45-39.46,43.23-.66,2.86-.84,5.83-1.26,8.86h38.43c.08-.24.17-.45.21-.66,1.84-8.15,6.73-13.3,14.94-15.15,1.1-.25,1.06-.93,1.06-1.75,0-9.97,0-19.95-.01-29.92,0-.45-.09-.89-.18-1.68-1.17,1.55-2.07,2.77-3,3.97-1.18,1.54-2.67,1.92-3.91,1-1.25-.92-1.33-2.44-.15-4.02,2.45-3.3,4.91-6.6,7.4-9.87,1.53-2.01,3.26-2,4.81.04,2.45,3.23,4.88,6.48,7.3,9.73,1.23,1.66,1.17,3.22-.14,4.15-1.25.89-2.7.49-3.89-1.07-.93-1.21-1.85-2.44-2.99-3.95-.09.72-.16.99-.16,1.26,0,10.2.01,20.4-.03,30.6,0,1.13.52,1.35,1.46,1.59,7.5,1.85,12.25,6.55,14.29,13.99.16.58.3,1.17.45,1.74h38.27Zm-43.7,0c-.65-6.13-6.75-11.13-13.39-11.08-6.57.04-12.65,5.12-13.18,11.08h26.57Z"/>
      <path class="cls-2" d="m243.77,149.52c0-.45-.04-.9,0-1.34.16-1.47,1.17-2.45,2.49-2.46,1.32,0,2.37.98,2.5,2.45.08.89.08,1.8.02,2.69-.11,1.66-1.04,2.58-2.51,2.58-1.46,0-2.38-.93-2.52-2.58-.04-.45,0-.9,0-1.35,0,0,0,0,.01,0Z"/>
      <path class="cls-2" d="m277.18,153.57c-.83,1.74-1.29,3.31-2.25,4.46-.48.57-2.09.77-2.8.4-.71-.37-1.33-1.7-1.27-2.56.08-1.16.63-2.47,1.39-3.36.57-.66,1.88-1.16,2.71-.99.8.16,1.42,1.26,2.22,2.05Z"/>
      <path class="cls-2" d="m218.63,151.34c1.86.12,2.08,1.94,2.76,3.37.57,1.21.71,2.38-.32,3.42-1.14,1.16-3.06.94-3.89-.53-.55-.97-1-2.02-1.29-3.09-.47-1.74.76-3.22,2.74-3.16Z"/>
      <path class="cls-2" d="m181.46,197.39c-1.75-.84-3.32-1.3-4.48-2.27-.58-.48-.79-2.1-.42-2.81.37-.71,1.71-1.33,2.57-1.27,1.17.08,2.47.63,3.36,1.39.66.57,1.15,1.88.98,2.71-.17.82-1.26,1.45-2.02,2.24Z"/>
      <path class="cls-2" d="m314.18,190.51c.78.81,1.81,1.4,1.99,2.18.19.8-.18,2.14-.79,2.63-1.01.81-2.38,1.42-3.65,1.55-.82.08-2.09-.65-2.5-1.39-.36-.65-.14-2.23.41-2.66,1.23-.97,2.82-1.48,4.54-2.31Z"/>
      <path class="cls-2" d="m198.97,172.09c-.25.33-.62,1.31-1.3,1.6-.75.32-1.93.29-2.63-.1-.99-.56-1.91-1.48-2.47-2.46-.4-.7-.48-1.91-.14-2.62.3-.63,1.36-1.15,2.14-1.24,1.55-.18,4.34,2.7,4.39,4.83Z"/>
      <path class="cls-2" d="m295.59,174.1c-.32-.24-1.29-.62-1.58-1.3-.31-.75-.28-1.93.12-2.63.56-.98,1.48-1.9,2.47-2.46.7-.4,1.91-.46,2.62-.11.63.31,1.16,1.36,1.25,2.14.17,1.52-2.78,4.33-4.88,4.36Z"/>
    </g>
  </g>
</svg>