<svg id="Layer_1" data-name="Layer 1" xmlns="http://www.w3.org/2000/svg" viewBox="0 0 245.5 35"><defs><style>.cls-1{fill:#ed1b24;}.cls-2,.cls-3{fill:#fff;}.cls-3{font-size:15px;font-family:MuseoSans-500, Museo Sans;font-weight:500;}.cls-4{letter-spacing:-0.03em;}</style></defs><rect class="cls-1" width="245.5" height="35" rx="17.5"/><path class="cls-2" d="M447,540.43l-7.37-9.1a2.49,2.49,0,0,0-1.89-.89h0a2.49,2.49,0,0,0-1.89.89l-7.37,9.1,2.21,2.32,4.78-4.59c1.58-1.51,3-1.52,4.57,0l4.78,4.59Z" transform="translate(-417.25 -522.5)"/><path class="cls-2" d="M442.61,545.05c-2.82-2.91-3.84-4.38-4.86-4.42h-.05c-1,0-2,1.51-4.86,4.42l2.19,2.29,2.33-1.86a.5.5,0,0,1,.33-.13h.07a.5.5,0,0,1,.33.13l2.33,1.86Z" transform="translate(-417.25 -522.5)"/><text class="cls-3" transform="translate(45.68 22.85)"><tspan class="cls-4">V</tspan><tspan x="9.03" y="0">er Memoria Anual 2022</tspan></text></svg>