<svg id="Layer_1" data-name="Layer 1" xmlns="http://www.w3.org/2000/svg" viewBox="0 0 21.68 19.1"><defs><style>.cls-1{fill:none;stroke:#fff;stroke-miterlimit:10;stroke-width:0.75px;fill-rule:evenodd;}</style></defs><path class="cls-1" d="M550.05,541.76l-8.21-9.82a2.75,2.75,0,0,0-2.11-1h0a2.75,2.75,0,0,0-2.11,1l-8.22,9.82,2.46,2.5,5.34-5c1.76-1.64,3.32-1.64,5.08,0l5.34,5Z" transform="translate(-528.88 -530.6)"/><path class="cls-1" d="M545.16,546.73c-3.14-3.14-4.28-4.72-5.41-4.76h-.06c-1.13,0-2.28,1.62-5.41,4.76l2.43,2.47,2.6-2a.68.68,0,0,1,.37-.14h.07a.71.71,0,0,1,.38.14l2.6,2Z" transform="translate(-528.88 -530.6)"/></svg>