<svg id="Layer_1" data-name="Layer 1" xmlns="http://www.w3.org/2000/svg" viewBox="0 0 18.79 18.79"><defs><style>.cls-1{fill:none;stroke:#fff;stroke-linejoin:round;stroke-width:0.75px;}</style></defs><path class="cls-1" d="M545,540a.87.87,0,0,1,.8-.87,5.91,5.91,0,0,0-1.07-2.58.85.85,0,0,1-.61.25.87.87,0,0,1-.87-.87.85.85,0,0,1,.25-.61,5.91,5.91,0,0,0-2.58-1.07.87.87,0,0,1-1.74,0,5.91,5.91,0,0,0-2.58,1.07.85.85,0,0,1,.25.61.87.87,0,0,1-.87.87.85.85,0,0,1-.61-.25,5.91,5.91,0,0,0-1.07,2.58.87.87,0,0,1,.8.87.86.86,0,0,1-.8.86,5.9,5.9,0,0,0,1.07,2.59.85.85,0,0,1,.61-.25.87.87,0,0,1,.87.87.85.85,0,0,1-.25.61,5.91,5.91,0,0,0,2.58,1.07.87.87,0,0,1,1.74,0,5.91,5.91,0,0,0,2.58-1.07.85.85,0,0,1-.25-.61.87.87,0,0,1,.87-.87.85.85,0,0,1,.61.25,5.9,5.9,0,0,0,1.07-2.59A.86.86,0,0,1,545,540Z" transform="translate(-530.61 -530.61)"/><path class="cls-1" d="M542.62,540a2.62,2.62,0,1,1-2.62-2.62A2.62,2.62,0,0,1,542.62,540Z" transform="translate(-530.61 -530.61)"/><line class="cls-1" x1="13.76" y1="4.74" x2="14.34" y2="4.74"/><line class="cls-1" x1="13.76" y1="14.05" x2="14.34" y2="14.05"/><line class="cls-1" x1="9.1" y1="2.99" x2="9.68" y2="2.99"/><line class="cls-1" x1="9.1" y1="15.79" x2="9.68" y2="15.79"/><line class="cls-1" x1="4.45" y1="4.74" x2="5.03" y2="4.74"/><line class="cls-1" x1="15.5" y1="9.39" x2="16.08" y2="9.39"/><line class="cls-1" x1="4.45" y1="14.05" x2="5.03" y2="14.05"/><path class="cls-1" d="M547.85,540a7.85,7.85,0,1,1-7.85-7.85A7.84,7.84,0,0,1,547.85,540Z" transform="translate(-530.61 -530.61)"/><circle class="cls-1" cx="9.39" cy="9.39" r="9.02"/></svg>