<svg id="Layer_1" data-name="Layer 1" xmlns="http://www.w3.org/2000/svg" viewBox="0 0 18.85 19.04"><defs><style>.cls-1{fill:#fff;}</style></defs><path class="cls-1" d="M548.66,547.67H545.3a.38.38,0,0,1-.35-.4v-2.49a1.76,1.76,0,0,0-1.62-1.87h-10a.37.37,0,0,1-.34-.39v-3.87a.38.38,0,0,1,.34-.39h11.4c2.35,0,4.26,2.2,4.26,4.9v4.11a.37.37,0,0,1-.34.4m-3-.79h2.68v-3.72a3.88,3.88,0,0,0-3.58-4.11h-11v3.08h9.64a2.5,2.5,0,0,1,2.31,2.65Z" transform="translate(-530.57 -530.48)"/><path class="cls-1" d="M532.66,544.42h-1.75a.38.38,0,0,1-.34-.39v-6.72a.37.37,0,0,1,.34-.39h1.75a1.11,1.11,0,0,1,1,1.17v5.15a1.11,1.11,0,0,1-1,1.18m-1.4-.79h1.4a.36.36,0,0,0,.34-.39v-5.15a.37.37,0,0,0-.34-.39h-1.4Z" transform="translate(-530.57 -530.48)"/><path class="cls-1" d="M541,539.05h-5.1a.38.38,0,0,1-.34-.4v-.84a1.28,1.28,0,0,1,1.19-1.36h3.41a1.28,1.28,0,0,1,1.18,1.36v.84a.37.37,0,0,1-.34.4m-4.75-.79h4.41v-.45a.54.54,0,0,0-.5-.58h-3.41a.54.54,0,0,0-.5.58Z" transform="translate(-530.57 -530.48)"/><path class="cls-1" d="M538.45,534.54a2,2,0,1,1,1.77-2,1.91,1.91,0,0,1-1.77,2m0-3.27a1.26,1.26,0,1,0,1.09,1.24,1.17,1.17,0,0,0-1.09-1.24" transform="translate(-530.57 -530.48)"/><path class="cls-1" d="M537.35,533.93h-2.47a1.43,1.43,0,0,1,0-2.83h2.47a.33.33,0,0,1,.3.22.42.42,0,0,1,0,.42,1.3,1.3,0,0,0-.24.77,1.36,1.36,0,0,0,.24.78.4.4,0,0,1,0,.41.33.33,0,0,1-.3.23m-2.47-2a.6.6,0,0,0-.55.63.6.6,0,0,0,.55.63h1.89a2.59,2.59,0,0,1-.08-.63,2.65,2.65,0,0,1,.08-.63Z" transform="translate(-530.57 -530.48)"/><path class="cls-1" d="M542,533.93h-2.47a.35.35,0,0,1-.31-.23.48.48,0,0,1,0-.42,1.31,1.31,0,0,0,0-1.54.48.48,0,0,1,0-.42.36.36,0,0,1,.31-.22H542a1.43,1.43,0,0,1,0,2.83m-1.9-.79H542a.64.64,0,0,0,0-1.26h-1.9a2.23,2.23,0,0,1,.09.63,2.18,2.18,0,0,1-.09.63" transform="translate(-530.57 -530.48)"/><path class="cls-1" d="M539.16,537.23h-1.41a.36.36,0,0,1-.34-.39v-2.92a.42.42,0,0,1,.17-.34.3.3,0,0,1,.34,0,1,1,0,0,0,1.07,0,.3.3,0,0,1,.34,0,.42.42,0,0,1,.17.34v2.92a.37.37,0,0,1-.34.39m-1.07-.78h.72v-2a1.46,1.46,0,0,1-.72,0Z" transform="translate(-530.57 -530.48)"/><path class="cls-1" d="M548.8,549.52h-3.65a.67.67,0,0,1-.62-.71V547.6a.68.68,0,0,1,.62-.72h3.65a.68.68,0,0,1,.63.72v1.21a.67.67,0,0,1-.63.71m-3.59-.78h3.54v-1.07h-3.54Z" transform="translate(-530.57 -530.48)"/><path class="cls-1" d="M545.18,534.78a5.68,5.68,0,0,0-8.63-2.12,5.68,5.68,0,0,0-.29,8.87,2,2,0,0,1,.72,1.57,2,2,0,0,0,.26,1,1.72,1.72,0,0,1,.27,1.09c0,.26,0,.43,0,.6a2.16,2.16,0,0,0,1.47,2,.47.47,0,0,1,.35.34.66.66,0,0,0,.67.45.72.72,0,0,0,.68-.5.47.47,0,0,1,.25-.25,2.1,2.1,0,0,0,1.47-1.6,11.07,11.07,0,0,0,.08-1.3,2.46,2.46,0,0,1,.16-.59,5.65,5.65,0,0,0,.34-1.18,2.27,2.27,0,0,1,.77-1.62,5.59,5.59,0,0,0,1.43-6.71m-6.91,10.14s.11-.13.17-.13h1.48v.08l-1.66.72c0-.25,0-.46,0-.66m.17-7c.12-.1.31-.19.36-.33s-.08-.31-.12-.46c.53,0,.53,0,.53-.53a1.14,1.14,0,0,0,.46.13,1.23,1.23,0,0,0,.41-.21c.08.09.15.18.24.2s.31-.08.45-.13c0,.5,0,.53.54.54-.25.5-.23.55.24.76-.13.1-.32.19-.37.32s.07.31.11.46c-.13,0-.34,0-.44.11s-.08.3-.11.45c-.44-.26-.52-.24-.74.24-.27-.47-.33-.49-.77-.24,0-.52,0-.52-.56-.55.25-.48.23-.53-.23-.76m1.88,4.47c.22,0,.3.27.29.51s0,.7,0,1.09h-1.22c0-.44,0-.87,0-1.31,0-.06.05-.17.1-.18a2.57,2.57,0,0,1,.82-.11m1.19,3.39c-.1,0-.17.17-.26.26l.35.13c-.26.77-1.09,1.08-2.14.85.48-.21.91-.38,1.32-.58.12-.06.33-.24.31-.28-.12-.23-.29-.07-.44,0-.47.19-.93.41-1.4.61s-.38.13-.62-.21a1.68,1.68,0,0,0,.33-.16,1.23,1.23,0,0,0,.23-.28,1,1,0,0,0-.34,0,2.93,2.93,0,0,0-.44.18,3.56,3.56,0,0,1-.13-.39c.88-.38,1.73-.77,2.59-1.1a1.5,1.5,0,0,1,.83,0l-.3.14-1.72.76c-.11.05-.28.21-.26.25.08.21.24.1.37,0l1.61-.69.29-.12c0,.23.13.44-.18.56m3.44-8.27a4.61,4.61,0,0,1-1.34,3c-.16.17-.33.33-.5.49a2.49,2.49,0,0,0-.86,1.89c0,.11,0,.21,0,.32-.09.7-.27.83-1,.73v-.81c0-.9-.11-1.07-1-1.42a5.13,5.13,0,0,1,.19-2.08c.27.1.57.34.75.27.34-.13.06-.49.08-.79a1.54,1.54,0,0,0,.42.07.57.57,0,0,0,.38-.15c.05-.07,0-.25-.09-.36a1.7,1.7,0,0,0-.29-.34,2,2,0,0,0,.47-.18c.1-.05.22-.18.22-.27s-.12-.22-.22-.28a2.32,2.32,0,0,0-.47-.17,2.85,2.85,0,0,0,.33-.39c.06-.09.1-.25,0-.32a.46.46,0,0,0-.31-.15,3.43,3.43,0,0,0-.5.08,1.67,1.67,0,0,0,0-.29c0-.17,0-.42-.1-.51s-.36,0-.51.17l-.21.2a2.46,2.46,0,0,0-.17-.46.5.5,0,0,0-.3-.22c-.08,0-.21.12-.27.21a2.12,2.12,0,0,0-.17.45,2.49,2.49,0,0,0-.36-.3.55.55,0,0,0-.37-.05c-.08,0-.12.21-.12.33a2.23,2.23,0,0,0,.07.47,2.86,2.86,0,0,0-.45-.08c-.13,0-.31,0-.36.14s0,.26.07.37a3,3,0,0,0,.3.35,1.4,1.4,0,0,0-.41.15c-.11.07-.3.21-.28.28s.17.24.29.32a1.54,1.54,0,0,0,.4.14,2.53,2.53,0,0,0-.31.37.45.45,0,0,0,0,.37c0,.08.21.12.32.12a2.14,2.14,0,0,0,.47-.07,1.93,1.93,0,0,0-.06.45c0,.13,0,.31.13.35s.26,0,.37-.07a2,2,0,0,0,.33-.28,5,5,0,0,1,.25,2.17,2.47,2.47,0,0,0-.35.1,1,1,0,0,0-.61.9c0,.4,0,.79,0,1.18-.77.18-1,.07-1-.78a3.46,3.46,0,0,0-1.2-2.44,4.62,4.62,0,0,1-1.35-4.85,4.76,4.76,0,0,1,3.75-3.54,5,5,0,0,1,6,5.18" transform="translate(-530.57 -530.48)"/></svg>