<svg id="Layer_1" data-name="Layer 1" xmlns="http://www.w3.org/2000/svg" viewBox="0 0 24.37 21.68"><defs><style>.cls-1{fill:#fff;}</style></defs><path class="cls-1" d="M544.72,530.76a5.26,5.26,0,0,1,2.45-1.49,3.27,3.27,0,0,1,2.22.25,5.15,5.15,0,0,1,2.78,5.12,7.73,7.73,0,0,1-2,4.4A20.17,20.17,0,0,1,545,543.2a.58.58,0,0,1-.48,0,18.48,18.48,0,0,1-5.88-5.1,6.4,6.4,0,0,1-1.31-4.54,4.75,4.75,0,0,1,3.16-4.2,3.56,3.56,0,0,1,3.6.81,8.66,8.66,0,0,1,.67.58m2.46,6.53h.07c.17-.5.35-1,.51-1.5a.54.54,0,0,1,.59-.42c.87,0,1.74,0,2.61,0,.24,0,.33-.06.37-.29a4.86,4.86,0,0,0-.47-3.18A3.42,3.42,0,0,0,547.5,530a4.07,4.07,0,0,0-2.38,1.45c-.34.37-.47.36-.82,0a6.92,6.92,0,0,0-1-.91,2.84,2.84,0,0,0-3.35-.06,4.44,4.44,0,0,0-1.77,4.71.34.34,0,0,0,.26.2c.4,0,.8,0,1.19,0s.62,0,.81.35l.08-.25c.31-1.27.63-2.54.95-3.82.05-.24.14-.46.44-.42s.33.27.34.52c.08,1.9.17,3.81.25,5.72a2.51,2.51,0,0,0,0,.27l1.14-2.52c.23-.52.48-.55.86-.11l.61.74.07-.21,1-4c.06-.25.14-.46.44-.43s.35.26.36.51c0,1.26.09,2.52.14,3.77,0,.58.06,1.16.08,1.74m3.84-1.14h-2.28c-.23,0-.32.08-.39.29-.34,1-.7,2-1.05,3-.08.22-.18.41-.46.37s-.33-.25-.34-.49c0-.73,0-1.46-.08-2.18l-.12-2.63c-.24.7-.41,1.42-.61,2.13,0,.15-.18.38-.3.4a.75.75,0,0,1-.49-.23c-.26-.27-.49-.58-.75-.89-.55,1.22-1.07,2.39-1.6,3.55-.09.2-.19.39-.45.35s-.32-.26-.33-.5l-.12-2.84-.09-2a.16.16,0,0,0-.1.12c-.18.7-.34,1.4-.53,2.09a.57.57,0,0,1-.33.33c-.12,0-.3-.1-.4-.21a5.28,5.28,0,0,1-.37-.55c0-.06-.13-.14-.19-.14h-1.18a.86.86,0,0,1-.07.1c.36.58.68,1.2,1.09,1.75a18,18,0,0,0,5.1,4.37.33.33,0,0,0,.29,0,19.29,19.29,0,0,0,4.63-3.77,8.58,8.58,0,0,0,1.52-2.45" transform="translate(-527.81 -529.16)"/><path class="cls-1" d="M537.19,542.8a3.88,3.88,0,0,1,.7.15,12.05,12.05,0,0,0,3.36.65c1,.12,1.93.23,2.89.4a3.86,3.86,0,0,1,.83.43.5.5,0,0,0,.32,0c1.19-.37,2.36-.79,3.56-1.12a9.82,9.82,0,0,1,2-.24.87.87,0,0,1,.92.46,1.08,1.08,0,0,1-.14,1.25,3.08,3.08,0,0,1-.89.66c-1.59.83-3.21,1.61-4.8,2.45-.6.31-1.14.71-1.71,1.08a1.7,1.7,0,0,1-1.19.28,29.87,29.87,0,0,0-5.51-.23,8,8,0,0,0-3.18.73c-.43.22-.81.55-1.23.82a1.28,1.28,0,0,1-.58.24,5.64,5.64,0,0,1-3-.5,3.07,3.07,0,0,1-1.72-2.88c0-.28.16-.4.41-.49a33.37,33.37,0,0,0,5.38-2.44,15.08,15.08,0,0,0,1.35-.9,3.73,3.73,0,0,1,2.24-.81m6,5.64,0,.14c.2-.09.42-.17.61-.28.71-.43,1.38-.92,2.11-1.31,1.48-.78,3-1.5,4.5-2.26a1.43,1.43,0,0,0,.52-.39.42.42,0,0,0-.33-.72,2.5,2.5,0,0,0-.72.09c-1.46.47-2.93,1-4.39,1.46-.08,0-.13.17-.19.26-.15.24-.24.55-.45.7a2.67,2.67,0,0,1-1.91.49c-.76-.07-1.53-.13-2.3-.16a1.92,1.92,0,0,0-1.29.33c-.21.17-.42.18-.58,0a.35.35,0,0,1,.13-.56,4.84,4.84,0,0,1,1.14-.4,13.7,13.7,0,0,1,3.07.06,3.6,3.6,0,0,0,1.23-.28.28.28,0,0,0,.11-.49,1.41,1.41,0,0,0-.71-.4c-.95-.15-1.91-.21-2.86-.36a18.26,18.26,0,0,1-2.95-.55,2.58,2.58,0,0,0-2.59.47,13.41,13.41,0,0,1-1.17.8,32.72,32.72,0,0,1-5.34,2.47.34.34,0,0,0-.25.47,2.24,2.24,0,0,0,1.22,1.64,4.88,4.88,0,0,0,2.41.46.92.92,0,0,0,.44-.17,13.93,13.93,0,0,1,1.51-.93,9.79,9.79,0,0,1,4.27-.74c1.58,0,3.16.13,4.73.2" transform="translate(-527.81 -529.16)"/></svg>