<svg id="Layer_1" data-name="Layer 1" xmlns="http://www.w3.org/2000/svg" viewBox="0 0 26.72 15.19"><defs><style>.cls-1{fill:#fff;}</style></defs><path class="cls-1" d="M530,542.47a2.1,2.1,0,0,0,1.19.51c.25,0,.52-.09.52-.39,0-.59-2.23-.57-2.23-2.1A1.59,1.59,0,0,1,531.2,539a2.25,2.25,0,0,1,1.6.57l-.51,1a1.89,1.89,0,0,0-1.1-.44c-.25,0-.53.11-.53.39,0,.62,2.23.51,2.23,2.08a1.57,1.57,0,0,1-1.74,1.54,2.54,2.54,0,0,1-1.81-.71Z" transform="translate(-526.64 -532.4)"/><polygon class="cls-1" points="8.43 6.41 9.43 6.41 7.65 11.9 6.65 11.9 8.43 6.41"/><path class="cls-1" d="M553.23,545.19q-1.69-4.23-3.41-8.45a1.33,1.33,0,0,0-1.17-.92,8.23,8.23,0,0,0-1.19.11l-.48-.78a1.59,1.59,0,0,0-1.19-2.75c-3,0-5.94,0-8.91,0a1.58,1.58,0,0,0-1.35.59c-.5.68-.47,1.21.19,2.13l-.49.77a21.21,21.21,0,0,0-2.4-.37,6,6,0,1,0,2.23,11.57.61.61,0,0,1,.69.1,1.81,1.81,0,0,0,1,.36q4.6,0,9.21,0a1.48,1.48,0,0,0,1.51-1.72,3.56,3.56,0,0,0-.39-.93,4.49,4.49,0,0,0,.38-1.31,4.78,4.78,0,0,0-.42-1.3c.64-.82.64-1.26,0-2.32l.52-.79c.08.19.14.32.19.45.9,2.23,1.79,4.45,2.7,6.66a1.51,1.51,0,0,0,2,.9,1.49,1.49,0,0,0,.83-2m-16.3-12.12c1.48,0,3,0,4.43,0s2.95,0,4.42,0c.65,0,1,.32,1.05.85s-.38.92-1,.92h-8.9c-.67,0-1-.35-1-.91s.39-.86,1.08-.86m-.53,2.48a2.32,2.32,0,0,1,.59,0h8.92a.83.83,0,0,1,.92,1,.78.78,0,0,1-.79.72c-2.94,0-5.88,0-8.82,0-.46,0-.93-.53-1.34-.88-.18-.14.19-.68.52-.76m10.44,3.22a.85.85,0,0,1-.94.91c-1.19,0-2.39,0-3.59,0s-2.26,0-3.39,0a.52.52,0,0,1-.57-.39c-.19-.46-.46-.89-.72-1.4H546a.85.85,0,0,1,.89.86M532.63,547a5.42,5.42,0,1,1,5.49-5.4,5.46,5.46,0,0,1-5.49,5.4m13.41,0-.3,0h-8.8a5.31,5.31,0,0,1-.87-.16l.23.05c.38-.5.76-1,1.16-1.48a.64.64,0,0,1,.43-.14H546a.79.79,0,0,1,.88.78.86.86,0,0,1-.8.94m-.19-2.4h-7.78c.2-.56.36-1,.55-1.53a.49.49,0,0,1,.34-.24h7a.83.83,0,0,1,.89.9.88.88,0,0,1-1,.87m.93-3.07c-.1.25-.43.58-.67.58-2.39,0-4.79,0-7.19,0,0,0-.06,0-.09,0,0-.53-.08-1.06-.12-1.62l.32,0c2.3,0,4.6,0,6.9,0a.82.82,0,0,1,.85,1.11m5.39,5.16A.87.87,0,0,1,551,546c-.74-1.82-1.48-3.65-2.21-5.47-.4-1-.81-2-1.19-3a.86.86,0,0,1,.83-1.18.88.88,0,0,1,.86.62c1.12,2.78,2.25,5.56,3.36,8.35a.87.87,0,0,1-.44,1.23" transform="translate(-526.64 -532.4)"/></svg>