<svg id="Layer_1" data-name="Layer 1" xmlns="http://www.w3.org/2000/svg" viewBox="0 0 21.83 24.99"><defs><style>.cls-1{fill:#fff;}.cls-2{fill:#d7282f;}</style></defs><path class="cls-1" d="M538.7,535.38h2.49l6.48,16.94H532.22Zm2,.73H539.2l-5.93,15.48h13.35Z" transform="translate(-529.09 -527.5)"/><rect class="cls-1" x="8.94" y="10.37" width="3.87" height="0.72"/><rect class="cls-1" x="7" y="15.58" width="7.8" height="0.72"/><rect class="cls-1" x="531.31" y="547.43" width="14.02" height="0.54" transform="matrix(0.79, -0.61, 0.61, 0.79, -751.01, -88.41)"/><polygon class="cls-1" points="17.9 24.67 18.23 24.23 7.17 15.72 6.84 16.16 17.9 24.67"/><rect class="cls-1" x="535.09" y="540.57" width="7.8" height="0.54" transform="translate(-752.45 -29.54) rotate(-41.88)"/><rect class="cls-1" x="540.69" y="536.92" width="0.54" height="7.84" transform="translate(-751.81 57.26) rotate(-48.29)"/><polygon class="cls-1" points="1.58 14.27 0.64 12.91 14.16 3.58 15.1 4.95 1.58 14.27"/><polygon class="cls-1" points="2.37 15.41 0.64 12.91 3.35 11.04 2.37 15.41"/><rect class="cls-1" x="20.1" y="9.84" width="0.36" height="14.61"/><path class="cls-1" d="M548.67,542.79c0,.59.33,1.06.74,1.06s.74-.47.74-1.06-.33-1-.74-1-.74.47-.74,1" transform="translate(-529.09 -527.5)"/><rect class="cls-1" x="19.59" y="21.2" width="1.48" height="3.25"/><rect class="cls-1" x="2.08" y="14.98" width="0.36" height="7.32"/><rect class="cls-1" y="21.56" width="3.75" height="3.25"/><rect class="cls-1" y="23.91" width="21.83" height="1.08"/><path class="cls-1" d="M545.45,527.5l2.49,3.63a9.37,9.37,0,0,1,1.59,6.22h-.34a8.73,8.73,0,0,1-5-3.71l-2.47-3.59Z" transform="translate(-529.09 -527.5)"/><path class="cls-2" d="M545,533.13a8,8,0,0,0,3.71,3.1,8.46,8.46,0,0,0-1.48-4.6l-2-2.87L543,530.29Z" transform="translate(-529.09 -527.5)"/><rect class="cls-1" x="1.38" y="13.58" width="0.36" height="9.41"/><path class="cls-2" d="M530.46,550.17a.52.52,0,0,0,.52.52.52.52,0,1,0,0-1,.52.52,0,0,0-.52.52" transform="translate(-529.09 -527.5)"/><path class="cls-2" d="M530.19,550.17a.79.79,0,1,1,.79.79.79.79,0,0,1-.79-.79m.18,0a.61.61,0,0,0,.61.61.61.61,0,1,0,0-1.22.61.61,0,0,0-.61.61" transform="translate(-529.09 -527.5)"/></svg>