<svg id="Layer_1" data-name="Layer 1" xmlns="http://www.w3.org/2000/svg" viewBox="0 0 18.85 19.04"><defs><style>.cls-1{fill:#fff;}</style></defs><path class="cls-1" d="M548.66,547.67H545.3a.38.38,0,0,1-.35-.4v-2.49a1.76,1.76,0,0,0-1.62-1.87h-10a.37.37,0,0,1-.34-.39v-3.87a.38.38,0,0,1,.34-.39h11.4c2.35,0,4.26,2.2,4.26,4.9v4.11a.37.37,0,0,1-.34.4m-3-.79h2.68v-3.72a3.88,3.88,0,0,0-3.58-4.11h-11v3.08h9.64a2.5,2.5,0,0,1,2.31,2.65Z" transform="translate(-530.57 -530.48)"/><path class="cls-1" d="M532.66,544.42h-1.75a.38.38,0,0,1-.34-.39v-6.72a.37.37,0,0,1,.34-.39h1.75a1.11,1.11,0,0,1,1,1.17v5.15a1.11,1.11,0,0,1-1,1.18m-1.4-.79h1.4a.36.36,0,0,0,.34-.39v-5.15a.37.37,0,0,0-.34-.39h-1.4Z" transform="translate(-530.57 -530.48)"/><path class="cls-1" d="M541,539.05h-5.1a.38.38,0,0,1-.34-.4v-.84a1.28,1.28,0,0,1,1.19-1.36h3.41a1.28,1.28,0,0,1,1.18,1.36v.84a.37.37,0,0,1-.34.4m-4.75-.79h4.41v-.45a.54.54,0,0,0-.5-.58h-3.41a.54.54,0,0,0-.5.58Z" transform="translate(-530.57 -530.48)"/><path class="cls-1" d="M538.45,534.54a2,2,0,1,1,1.77-2,1.91,1.91,0,0,1-1.77,2m0-3.27a1.26,1.26,0,1,0,1.09,1.24,1.17,1.17,0,0,0-1.09-1.24" transform="translate(-530.57 -530.48)"/><path class="cls-1" d="M537.35,533.93h-2.47a1.43,1.43,0,0,1,0-2.83h2.47a.33.33,0,0,1,.3.22.42.42,0,0,1,0,.42,1.3,1.3,0,0,0-.24.77,1.36,1.36,0,0,0,.24.78.4.4,0,0,1,0,.41.33.33,0,0,1-.3.23m-2.47-2a.6.6,0,0,0-.55.63.6.6,0,0,0,.55.63h1.89a2.59,2.59,0,0,1-.08-.63,2.65,2.65,0,0,1,.08-.63Z" transform="translate(-530.57 -530.48)"/><path class="cls-1" d="M542,533.93h-2.47a.35.35,0,0,1-.31-.23.48.48,0,0,1,0-.42,1.31,1.31,0,0,0,0-1.54.48.48,0,0,1,0-.42.36.36,0,0,1,.31-.22H542a1.43,1.43,0,0,1,0,2.83m-1.9-.79H542a.64.64,0,0,0,0-1.26h-1.9a2.23,2.23,0,0,1,.09.63,2.18,2.18,0,0,1-.09.63" transform="translate(-530.57 -530.48)"/><path class="cls-1" d="M539.16,537.23h-1.41a.36.36,0,0,1-.34-.39v-2.92a.42.42,0,0,1,.17-.34.3.3,0,0,1,.34,0,1,1,0,0,0,1.07,0,.3.3,0,0,1,.34,0,.42.42,0,0,1,.17.34v2.92a.37.37,0,0,1-.34.39m-1.07-.78h.72v-2a1.46,1.46,0,0,1-.72,0Z" transform="translate(-530.57 -530.48)"/><path class="cls-1" d="M548.8,549.52h-3.65a.67.67,0,0,1-.62-.71V547.6a.68.68,0,0,1,.62-.72h3.65a.68.68,0,0,1,.63.72v1.21a.67.67,0,0,1-.63.71m-3.59-.78h3.54v-1.07h-3.54Z" transform="translate(-530.57 -530.48)"/></svg>