<svg id="Layer_1" data-name="Layer 1" xmlns="http://www.w3.org/2000/svg" viewBox="0 0 17.77 21.4"><defs><style>.cls-1{fill:#fff;}</style></defs><path class="cls-1" d="M538.38,550.63l-7.13-2.5a.21.21,0,0,1-.13-.21.18.18,0,0,1,.15-.18l9.2-2.14a.22.22,0,0,1,.11,0l7.44,2.45a.22.22,0,0,1,.14.21.19.19,0,0,1-.16.18l-8.66,2.2a1.83,1.83,0,0,1-1,0" transform="translate(-531.12 -529.3)"/><polygon class="cls-1" points="7.12 19.73 2.68 18.22 2.68 19.02 7.08 20.51 13.99 18.9 13.99 18.13 7.12 19.73"/><polygon class="cls-1" points="2.68 15.81 2.68 16.61 7.08 18.11 7.12 17.33 2.68 15.81"/><polygon class="cls-1" points="2.68 13.41 2.68 14.21 7.08 15.71 13.99 14.1 13.99 13.33 7.12 14.93 2.68 13.41"/><polygon class="cls-1" points="2.68 11.02 2.68 11.81 7.08 13.31 13.99 11.7 13.99 10.93 7.12 12.53 2.68 11.02"/><polygon class="cls-1" points="2.68 8.61 2.68 9.41 7.08 10.91 13.99 9.3 13.99 8.53 7.12 10.12 2.68 8.61"/><polygon class="cls-1" points="2.68 6.21 2.68 7.01 7.08 8.51 13.99 6.9 13.99 6.13 7.12 7.72 2.68 6.21"/><polygon class="cls-1" points="7.08 6.11 13.99 4.5 13.98 3.72 7.11 5.32 2.68 3.81 2.68 4.61 7.08 6.11"/><polygon class="cls-1" points="13.99 2.21 13.99 1.57 9.24 0 2.68 1.57 2.68 2.21 2.68 2.21 2.68 2.21 7.11 3.77 13.99 2.21 13.99 2.21 13.99 2.21 13.99 2.21"/><rect class="cls-1" x="2.68" y="2.03" width="0.66" height="16.76"/><polygon class="cls-1" points="13.32 2.03 13.32 18.82 14.01 18.39 13.99 2.03 13.32 2.03"/><polygon class="cls-1" points="10.23 2.72 10.23 19.54 10.92 19.02 10.9 2.72 10.23 2.72"/><polygon class="cls-1" points="7.19 3.43 7.12 3.43 6.53 3.43 6.53 20.22 7.12 20.22 7.19 20.22 7.78 20.22 7.78 3.43 7.19 3.43"/><path class="cls-1" d="M548.88,539.74v0a.27.27,0,0,0-.3-.3h-.93v-.09a.27.27,0,0,0-.3-.29h-.86v-.29a.16.16,0,0,0,0-.11.19.19,0,0,0-.19-.19.18.18,0,0,0-.19.19.15.15,0,0,0,0,.11v9.35h.29v-7.44h1.11v.12h0c0,.07,0,.26.31.26h1v-1.3Z" transform="translate(-531.12 -529.3)"/></svg>