<svg id="Layer_1" data-name="Layer 1" xmlns="http://www.w3.org/2000/svg" viewBox="0 0 16.51 22.02"><defs><style>.cls-1{fill:#fff;}</style></defs><path class="cls-1" d="M537.26,547.32h.15a3.21,3.21,0,0,1,2.09.9c.07.06.14.14.21.21l.13.13.12-.12c.12-.12.24-.24.37-.35a3.21,3.21,0,0,1,2.09-.78,3.37,3.37,0,0,1,1.21.23,2.38,2.38,0,0,1,.57-.94l.47-.58.33-.4a.57.57,0,0,0,.14-.39V544l-2.69-.75-2.53-.7h-.09L535,543.84l-.46.13v.18c0,.41,0,.83,0,1.24a.66.66,0,0,0,.13.26c.28.41.6.83.86,1.17a1.87,1.87,0,0,1,.36.79,3.09,3.09,0,0,1,1.35-.29m2.58,2.1a.8.8,0,0,1-.54-.26,1.21,1.21,0,0,0-.16-.16l-.19-.19a2.46,2.46,0,0,0-3.08-.26l-.46.32-.16-.54,0-.12a1.59,1.59,0,0,1-.1-.39.93.93,0,0,0-.21-.51c-.27-.34-.59-.77-.89-1.2a1.39,1.39,0,0,1-.27-.69c0-.43,0-.86,0-1.28v-.76l.33-.11.13,0,.58-.16,4.81-1.34a1.1,1.1,0,0,1,.54,0l2.54.7,3.28.92v1.87a1.42,1.42,0,0,1-.33.91l-.32.38c-.16.21-.32.41-.49.61a1.46,1.46,0,0,0-.44.8.79.79,0,0,1,0,.25.14.14,0,0,0,0,.06l-.14.47-.56-.29a2.44,2.44,0,0,0-2.75.29c-.11.09-.22.2-.32.3l-.14.14a.81.81,0,0,1-.55.27" transform="translate(-531.74 -528.99)"/><path class="cls-1" d="M537.25,549.72a1.2,1.2,0,0,1,.9.39,7.16,7.16,0,0,0,.55.51,1.86,1.86,0,0,0,2.18.07,3.87,3.87,0,0,0,.49-.43l.19-.18a1.21,1.21,0,0,1,1.74,0l.2.2.2.19a1.85,1.85,0,0,0,1.58.52,2.06,2.06,0,0,0,1.21-.67l.06-.06a1.69,1.69,0,0,1,.74-.51v0h.3a.33.33,0,1,0,0-.66h-.07a1.61,1.61,0,0,0-1.09.4l-.35.32-.2.19a1.21,1.21,0,0,1-1.72,0l-.21-.19-.3-.29a1.87,1.87,0,0,0-1.22-.46,1.84,1.84,0,0,0-1.21.45l-.3.28-.26.25a1.21,1.21,0,0,1-1.65,0l-.25-.24c-.1-.1-.2-.2-.31-.29a1.87,1.87,0,0,0-1.2-.44,1.84,1.84,0,0,0-1.15.41,6.15,6.15,0,0,0-.52.48,1.23,1.23,0,0,1-.91.41,1.27,1.27,0,0,1-.91-.4,4.79,4.79,0,0,0-.67-.59,1.52,1.52,0,0,0-.68-.28h-.34a.33.33,0,0,0-.33.33.35.35,0,0,0,.33.34l.34,0v.06a1.22,1.22,0,0,1,.53.31l.18.18c.14.13.27.26.41.37a1.88,1.88,0,0,0,2.28,0,4.69,4.69,0,0,0,.54-.5,1.24,1.24,0,0,1,.9-.39" transform="translate(-531.74 -528.99)"/><path class="cls-1" d="M534.16,533.85a14,14,0,0,0,4.05,1.14c.42,0,.84,0,1.3,0,1.45,0,3-.1,4.39-.2l1.44-.1a5.22,5.22,0,0,0,1.78-.43c.23-.11.32-.22.33-.29s-.07-.23-.3-.4a2.17,2.17,0,0,0-1-.43,8.87,8.87,0,0,0-1.45,0l-.69,0-.43,0a4.59,4.59,0,0,1-.59,0h-.06l-.06,0a18.68,18.68,0,0,1-2.62-2.37l-1.11-1.06-.48,0h0l2.3,3.49-.71,0c-.26,0-.79,0-1.19,0l-2.19,0h-.16l-.12-.11c-.4-.4-1.46-1.35-2.18-2l-.29.06c.07.22.15.44.23.67l.39,1.14.1.3-.44.29a.94.94,0,0,0-.18.12m5.35,2c-.47,0-.91,0-1.34,0a15.42,15.42,0,0,1-4.56-1.3l-.09,0-.08-.07a1,1,0,0,1-.22-.65v-.12l.08-.1a2,2,0,0,1,.51-.42c-.09-.27-.19-.55-.28-.84s-.27-.76-.37-1.09l-.14-.4.4-.11.42-.1.51-.13.21,0,.16.14c.53.46,1.71,1.51,2.27,2l2,0h.43l-2.2-3.34.55-.14a6.77,6.77,0,0,1,.81-.05l.61,0,.18,0,.14.13,1.25,1.19c.8.77,2,1.91,2.32,2.17l.38,0,.47,0,.66,0a12,12,0,0,1,1.58,0,3,3,0,0,1,1.45.59,1.23,1.23,0,0,1,.62,1.13,1.18,1.18,0,0,1-.8.94,5.83,5.83,0,0,1-2.06.51l-1.44.1c-1.45.1-3,.2-4.44.2" transform="translate(-531.74 -528.99)"/><path class="cls-1" d="M536.25,540.9v1.76l.65-.18,2.63-.73a1.23,1.23,0,0,1,.63,0l1.83.5,1.44.4v-1.78h-1.36v-1.14h-1.8V538a1.45,1.45,0,0,0-.49-.1.81.81,0,0,0-.37.08v1.78h-1.82v1.15Zm8,2.82-2.46-.68-1.82-.5a.37.37,0,0,0-.21,0c-.88.23-1.75.47-2.62.72l-1,.27-.14,0-.55.12v-3.6h1.35V539h1.81v-1.36l.12-.12a1.47,1.47,0,0,1,1.06-.38,2.16,2.16,0,0,1,1.13.33l.17.12v1.39h1.8v1.14h1.35Z" transform="translate(-531.74 -528.99)"/></svg>