<svg id="Layer_1" data-name="Layer 1" xmlns="http://www.w3.org/2000/svg" viewBox="0 0 168.54 26.75"><defs><style>.cls-1{fill:#53575a;}.cls-2{font-size:11px;font-family:MuseoSans-900;font-weight:900;}.cls-2,.cls-3{fill:#fff;}</style></defs><path class="cls-1" d="M615.16,553.38H464.84a9.15,9.15,0,0,1-9.11-9.12v-8.53a9.14,9.14,0,0,1,9.11-9.11H615.16a9.14,9.14,0,0,1,9.11,9.11v8.53a9.15,9.15,0,0,1-9.11,9.12" transform="translate(-455.73 -526.62)"/><text class="cls-2" transform="translate(31.61 17.11)">Finanzas</text><path class="cls-3" d="M461.83,540.63a2,2,0,0,0,1.19.52c.25,0,.52-.1.52-.4,0-.59-2.24-.57-2.24-2.09a1.59,1.59,0,0,1,1.76-1.52,2.27,2.27,0,0,1,1.6.56l-.52,1a1.88,1.88,0,0,0-1.09-.44c-.25,0-.53.11-.53.39,0,.63,2.23.52,2.23,2.08a1.58,1.58,0,0,1-1.75,1.54,2.59,2.59,0,0,1-1.81-.7Z" transform="translate(-455.73 -526.62)"/><polygon class="cls-3" points="11.2 10.35 12.19 10.35 10.42 15.85 9.42 15.85 11.2 10.35"/><path class="cls-3" d="M485.08,543.35c-1.12-2.82-2.26-5.63-3.4-8.44a1.31,1.31,0,0,0-1.17-.92,7.11,7.11,0,0,0-1.2.1l-.48-.78a1.58,1.58,0,0,0-1.18-2.74c-3,0-5.94,0-8.92,0a1.55,1.55,0,0,0-1.34.6c-.51.67-.47,1.21.18,2.13l-.48.77a19.24,19.24,0,0,0-2.4-.38,6,6,0,1,0,2.23,11.57.63.63,0,0,1,.69.1,1.79,1.79,0,0,0,1,.37c3.08,0,6.15,0,9.22,0a1.48,1.48,0,0,0,1.51-1.72,3.63,3.63,0,0,0-.39-.92,4.88,4.88,0,0,0,.38-1.32,4.78,4.78,0,0,0-.42-1.3c.64-.81.64-1.26-.05-2.32l.52-.79c.08.19.14.32.19.46l2.69,6.66a1.52,1.52,0,0,0,2,.89,1.48,1.48,0,0,0,.82-2m-16.29-12.12h8.85c.65,0,1,.32,1.05.85s-.38.92-1,.92h-8.9c-.67,0-1.06-.35-1-.91s.39-.86,1.08-.86m-.53,2.48a2.88,2.88,0,0,1,.59,0h8.91a.83.83,0,0,1,.92,1,.77.77,0,0,1-.78.73c-2.94,0-5.88,0-8.82,0-.46,0-.93-.52-1.35-.87-.17-.15.2-.69.53-.77m10.43,3.22a.85.85,0,0,1-.93.92h-3.59c-1.13,0-2.27,0-3.4,0a.51.51,0,0,1-.57-.39,15.3,15.3,0,0,0-.71-1.39h8.32a.83.83,0,0,1,.88.85m-14.2,8.2a5.41,5.41,0,1,1,5.49-5.4,5.46,5.46,0,0,1-5.49,5.4m13.4,0-.29,0c-2.93,0-5.87,0-8.8,0a4.53,4.53,0,0,1-.88-.16l.24,0c.38-.49.75-1,1.16-1.47a.61.61,0,0,1,.43-.15h8.07a.79.79,0,0,1,.87.79.84.84,0,0,1-.8.93m-.18-2.4h-7.78c.2-.55.36-1.05.55-1.53a.47.47,0,0,1,.34-.24h7a.83.83,0,0,1,.88.9.86.86,0,0,1-1,.87m.93-3.07c-.11.25-.44.58-.67.58-2.4,0-4.8,0-7.19,0,0,0-.06,0-.09,0,0-.53-.08-1.07-.12-1.63l.31,0c2.3,0,4.6,0,6.9,0a.83.83,0,0,1,.86,1.11m5.39,5.16a.88.88,0,0,1-1.22-.57q-1.11-2.73-2.2-5.48c-.4-1-.81-2-1.19-3a.86.86,0,0,1,.83-1.19.9.9,0,0,1,.86.62l3.36,8.35a.88.88,0,0,1-.44,1.23" transform="translate(-455.73 -526.62)"/></svg>