<svg id="Layer_1" data-name="Layer 1" xmlns="http://www.w3.org/2000/svg" viewBox="0 0 185.89 36.18"><defs><style>.cls-1{fill:#53575a;}.cls-2{font-size:11px;font-family:MuseoSans-900;font-weight:900;}.cls-2,.cls-4{fill:#fff;}.cls-3{letter-spacing:0em;}.cls-5{fill:#d7282f;}</style></defs><path class="cls-1" d="M623.78,558.09H456.22a9.2,9.2,0,0,1-9.17-9.17V531.08a9.2,9.2,0,0,1,9.17-9.17H623.78a9.2,9.2,0,0,1,9.17,9.17v17.84a9.2,9.2,0,0,1-9.17,9.17" transform="translate(-447.05 -521.91)"/><text class="cls-2" transform="translate(35.07 14.85)">Hidrocarburos </text><text class="cls-2" transform="translate(35.07 28.05)">y <tspan class="cls-3" x="8.52" y="0">R</tspan><tspan x="16.02" y="0">emediación</tspan></text><path class="cls-4" d="M463.27,535.38h2.49l6.48,16.94H456.79Zm2,.73h-1.49l-5.93,15.48h13.35Z" transform="translate(-447.05 -521.91)"/><rect class="cls-4" x="15.54" y="15.97" width="3.87" height="0.72"/><rect class="cls-4" x="13.6" y="21.17" width="7.8" height="0.72"/><rect class="cls-4" x="455.88" y="547.43" width="14.02" height="0.54" transform="translate(-684.46 -128.6) rotate(-37.36)"/><polygon class="cls-4" points="24.5 30.26 24.83 29.83 13.77 21.32 13.44 21.75 24.5 30.26"/><rect class="cls-4" x="459.66" y="540.57" width="7.8" height="0.54" transform="translate(-689.68 -74.3) rotate(-41.88)"/><rect class="cls-4" x="465.25" y="536.92" width="0.54" height="7.84" transform="translate(-695.02 6.55) rotate(-48.29)"/><polygon class="cls-4" points="8.18 19.87 7.24 18.5 20.76 9.18 21.7 10.54 8.18 19.87"/><polygon class="cls-4" points="8.97 21.01 7.24 18.5 9.95 16.64 8.97 21.01"/><rect class="cls-4" x="26.7" y="15.44" width="0.36" height="14.61"/><path class="cls-4" d="M473.24,542.8c0,.58.33,1.05.74,1.05s.74-.47.74-1.05-.34-1.06-.74-1.06-.74.47-.74,1.06" transform="translate(-447.05 -521.91)"/><rect class="cls-4" x="26.19" y="26.79" width="1.48" height="3.25"/><rect class="cls-4" x="8.68" y="20.57" width="0.36" height="7.32"/><rect class="cls-4" x="6.6" y="27.15" width="3.75" height="3.25"/><rect class="cls-4" x="6.6" y="29.5" width="21.83" height="1.08"/><path class="cls-4" d="M470,527.5l2.5,3.63a9.37,9.37,0,0,1,1.59,6.22h-.34a8.73,8.73,0,0,1-5-3.71l-2.47-3.59Z" transform="translate(-447.05 -521.91)"/><path class="cls-1" d="M469.52,533.13a8.09,8.09,0,0,0,3.71,3.1,8.4,8.4,0,0,0-1.47-4.59l-2-2.88-2.21,1.53Z" transform="translate(-447.05 -521.91)"/><rect class="cls-4" x="7.98" y="19.18" width="0.36" height="9.41"/><path class="cls-5" d="M455,550.17a.52.52,0,0,0,.52.52.52.52,0,0,0,0-1,.52.52,0,0,0-.52.52" transform="translate(-447.05 -521.91)"/><path class="cls-1" d="M454.76,550.17a.79.79,0,1,1,.79.79.79.79,0,0,1-.79-.79m.18,0a.61.61,0,0,0,.61.61.61.61,0,1,0,0-1.22.61.61,0,0,0-.61.61" transform="translate(-447.05 -521.91)"/></svg>