<svg id="Layer_1" data-name="Layer 1" xmlns="http://www.w3.org/2000/svg" viewBox="0 0 168.54 26.75"><defs><style>.cls-1{fill:#53575a;}.cls-2{font-size:11px;font-family:MuseoSans-900;font-weight:900;letter-spacing:-0.02em;}.cls-2,.cls-5{fill:#fff;}.cls-3{letter-spacing:-0.02em;}.cls-4{letter-spacing:0em;}</style></defs><path class="cls-1" d="M615.16,553.38H464.84a9.15,9.15,0,0,1-9.11-9.12v-8.52a9.14,9.14,0,0,1,9.11-9.12H615.16a9.14,9.14,0,0,1,9.11,9.12v8.52a9.15,9.15,0,0,1-9.11,9.12" transform="translate(-455.73 -526.62)"/><text class="cls-2" transform="translate(31.61 17.18)">Sanea<tspan class="cls-3" x="30.57" y="0">m</tspan><tspan x="40.39" y="0">ient</tspan><tspan class="cls-4" x="60.4" y="0">o</tspan></text><path class="cls-5" d="M480.52,547.1h-3.37a.37.37,0,0,1-.34-.4v-2.49a1.76,1.76,0,0,0-1.62-1.87h-10a.36.36,0,0,1-.34-.39v-3.87a.37.37,0,0,1,.34-.39h11.39c2.35,0,4.27,2.2,4.27,4.9v4.11a.37.37,0,0,1-.34.4m-3-.79h2.69v-3.72a3.88,3.88,0,0,0-3.59-4.11h-11v3.08h9.65a2.5,2.5,0,0,1,2.3,2.65Z" transform="translate(-455.73 -526.62)"/><path class="cls-5" d="M464.52,543.85h-1.75a.37.37,0,0,1-.34-.39v-6.72a.36.36,0,0,1,.34-.39h1.75a1.11,1.11,0,0,1,1,1.17v5.15a1.11,1.11,0,0,1-1,1.18m-1.41-.79h1.41a.36.36,0,0,0,.34-.39v-5.15a.37.37,0,0,0-.34-.39h-1.41Z" transform="translate(-455.73 -526.62)"/><path class="cls-5" d="M472.86,538.48h-5.1a.37.37,0,0,1-.34-.4v-.84a1.28,1.28,0,0,1,1.18-1.36H472a1.28,1.28,0,0,1,1.18,1.36v.84a.37.37,0,0,1-.34.4m-4.76-.79h4.42v-.45a.55.55,0,0,0-.5-.58H468.6a.55.55,0,0,0-.5.58Z" transform="translate(-455.73 -526.62)"/><path class="cls-5" d="M470.31,534a2,2,0,1,1,1.77-2,1.92,1.92,0,0,1-1.77,2m0-3.27a1.26,1.26,0,1,0,1.08,1.24,1.16,1.16,0,0,0-1.08-1.24" transform="translate(-455.73 -526.62)"/><path class="cls-5" d="M469.2,533.36h-2.47a1.43,1.43,0,0,1,0-2.83h2.47a.34.34,0,0,1,.31.22.45.45,0,0,1,0,.42,1.3,1.3,0,0,0-.24.77,1.36,1.36,0,0,0,.24.78.43.43,0,0,1,0,.41.34.34,0,0,1-.31.23m-2.47-2.05a.59.59,0,0,0-.54.63.59.59,0,0,0,.54.63h1.9a2.18,2.18,0,0,1-.09-.63,2.23,2.23,0,0,1,.09-.63Z" transform="translate(-455.73 -526.62)"/><path class="cls-5" d="M473.88,533.36h-2.46a.35.35,0,0,1-.31-.23.45.45,0,0,1,0-.42,1.36,1.36,0,0,0,0-1.54.45.45,0,0,1,0-.42.36.36,0,0,1,.31-.22h2.46a1.43,1.43,0,0,1,0,2.83m-1.89-.79h1.89a.64.64,0,0,0,0-1.26H472a2.23,2.23,0,0,1,.09.63,2.18,2.18,0,0,1-.09.63" transform="translate(-455.73 -526.62)"/><path class="cls-5" d="M471,536.66h-1.4a.36.36,0,0,1-.34-.39v-2.92a.4.4,0,0,1,.17-.34.3.3,0,0,1,.34,0,.93.93,0,0,0,1.06,0,.3.3,0,0,1,.34,0,.4.4,0,0,1,.17.34v2.92a.36.36,0,0,1-.34.39m-1.06-.78h.72v-2a1.46,1.46,0,0,1-.72,0Z" transform="translate(-455.73 -526.62)"/><path class="cls-5" d="M480.66,549H477a.67.67,0,0,1-.62-.71V547a.68.68,0,0,1,.62-.72h3.65a.68.68,0,0,1,.62.72v1.21a.67.67,0,0,1-.62.71m-3.59-.78h3.53V547.1h-3.53Z" transform="translate(-455.73 -526.62)"/></svg>