<svg id="Layer_1" data-name="Layer 1" xmlns="http://www.w3.org/2000/svg" viewBox="0 0 185.34 31.48"><defs><style>.cls-1{fill:#53575a;}.cls-2{font-size:11px;font-family:MuseoSans-900;font-weight:900;letter-spacing:-0.02em;}.cls-2,.cls-7{fill:#fff;}.cls-3{letter-spacing:-0.02em;}.cls-4{letter-spacing:-0.02em;}.cls-5{letter-spacing:-0.03em;}.cls-6{letter-spacing:0em;}</style></defs><path class="cls-1" d="M622.21,555.74H457.79a10.49,10.49,0,0,1-10.46-10.46V534.72a10.49,10.49,0,0,1,10.46-10.46H622.21a10.49,10.49,0,0,1,10.46,10.46v10.56a10.49,10.49,0,0,1-10.46,10.46" transform="translate(-447.33 -524.26)"/><text class="cls-2" transform="translate(30.35 18.12)">Se<tspan class="cls-3" x="12.04" y="0">r</tspan><tspan x="16.6" y="0">vi</tspan><tspan class="cls-4" x="25.56" y="0">c</tspan><tspan x="31.35" y="0">io</tspan><tspan class="cls-4" x="41.13" y="0">s</tspan><tspan x="46.03" y="0" xml:space="preserve"> y P</tspan><tspan class="cls-5" x="63" y="0">r</tspan><tspan x="67.45" y="0">o</tspan><tspan class="cls-5" x="74.18" y="0">d</tspan><tspan x="80.91" y="0">u</tspan><tspan class="cls-5" x="87.59" y="0">cc</tspan><tspan x="99.16" y="0">iรณ</tspan><tspan class="cls-6" x="108.94" y="0">n</tspan></text><path class="cls-7" d="M462.42,550.82l-7.13-2.51a.2.2,0,0,1-.14-.2.2.2,0,0,1,.16-.18l9.2-2.14a.12.12,0,0,1,.1,0l7.45,2.45a.2.2,0,0,1,.14.2.21.21,0,0,1-.16.19l-8.66,2.2a1.81,1.81,0,0,1-1,0" transform="translate(-447.33 -524.26)"/><polygon class="cls-7" points="14.94 24.95 10.51 23.44 10.51 24.24 14.9 25.74 21.81 24.13 21.81 23.35 14.94 24.95"/><polygon class="cls-7" points="10.51 21.04 10.51 21.84 14.9 23.34 14.94 22.55 10.51 21.04"/><polygon class="cls-7" points="10.51 18.64 10.51 19.44 14.9 20.94 21.81 19.33 21.81 18.55 14.94 20.15 10.51 18.64"/><polygon class="cls-7" points="10.51 16.24 10.51 17.04 14.9 18.54 21.81 16.93 21.81 16.15 14.94 17.75 10.51 16.24"/><polygon class="cls-7" points="10.51 13.84 10.51 14.64 14.9 16.14 21.81 14.52 21.81 13.75 14.94 15.35 10.51 13.84"/><polygon class="cls-7" points="10.51 11.44 10.51 12.24 14.9 13.73 21.81 12.12 21.81 11.35 14.94 12.95 10.51 11.44"/><polygon class="cls-7" points="14.9 11.33 21.81 9.72 21.81 8.95 14.93 10.54 10.51 9.04 10.51 9.84 14.9 11.33"/><polygon class="cls-7" points="21.81 7.43 21.81 6.79 17.06 5.22 10.5 6.79 10.5 7.43 10.5 7.43 10.5 7.43 14.93 8.99 21.81 7.43 21.81 7.43 21.81 7.43 21.81 7.43"/><rect class="cls-7" x="10.51" y="7.26" width="0.66" height="16.76"/><polygon class="cls-7" points="21.15 7.26 21.15 24.05 21.83 23.61 21.81 7.26 21.15 7.26"/><polygon class="cls-7" points="18.05 7.95 18.05 24.76 18.74 24.25 18.72 7.95 18.05 7.95"/><polygon class="cls-7" points="15.01 8.65 14.94 8.65 14.35 8.65 14.35 25.44 14.94 25.44 15.01 25.44 15.6 25.44 15.6 8.65 15.01 8.65"/><path class="cls-7" d="M472.92,539.93v0s0-.29-.31-.29h-.92v-.09s0-.29-.31-.29h-.85v-.29a.16.16,0,0,0,.05-.11.2.2,0,1,0-.39,0,.21.21,0,0,0,0,.11v9.35h.3v-7.45h1.11V541h0c0,.07,0,.26.3.26h1v-1.3Z" transform="translate(-447.33 -524.26)"/></svg>