<svg id="Layer_1" data-name="Layer 1" xmlns="http://www.w3.org/2000/svg" viewBox="0 0 185.34 33.67"><defs><style>.cls-1{fill:#53575a;}.cls-2,.cls-3{fill:#fff;}.cls-3{font-size:11px;font-family:MuseoSans-900;font-weight:900;}</style></defs><path class="cls-1" d="M621.85,556.84H458.15A10.85,10.85,0,0,1,447.33,546V534a10.85,10.85,0,0,1,10.82-10.82h163.7A10.85,10.85,0,0,1,632.67,534v12a10.85,10.85,0,0,1-10.82,10.82" transform="translate(-447.33 -523.16)"/><path class="cls-2" d="M461.3,547.32h.14a3.17,3.17,0,0,1,2.09.9l.22.21.13.13.12-.12c.12-.12.24-.24.37-.35a3.21,3.21,0,0,1,2.09-.78,3.28,3.28,0,0,1,1.2.23,2.64,2.64,0,0,1,.57-.94c.17-.19.32-.39.48-.58l.33-.4a.62.62,0,0,0,.14-.39V544l-2.69-.75-2.53-.7h-.09L459,543.84l-.45.13v.18c0,.41,0,.83,0,1.24a.66.66,0,0,0,.13.26c.29.41.61.83.86,1.17a1.66,1.66,0,0,1,.36.79,3.11,3.11,0,0,1,1.36-.29m2.58,2.1a.8.8,0,0,1-.54-.26l-.16-.16-.19-.19a2.46,2.46,0,0,0-3.08-.26l-.46.32-.16-.54a.56.56,0,0,0,0-.12,1.59,1.59,0,0,1-.09-.39,1,1,0,0,0-.22-.51c-.26-.34-.58-.77-.88-1.2a1.36,1.36,0,0,1-.27-.69c0-.43,0-.86,0-1.28,0-.16,0-.31,0-.47v-.29l.33-.11.12,0,.59-.16,4.81-1.34a1.1,1.1,0,0,1,.54,0l2.54.7,3.28.92v.76c0,.37,0,.74,0,1.11a1.4,1.4,0,0,1-.33.91l-.32.39-.5.6a1.44,1.44,0,0,0-.43.8.57.57,0,0,1-.06.25.14.14,0,0,1,0,.06l-.14.47-.55-.29a2.44,2.44,0,0,0-2.75.29c-.11.09-.22.2-.32.3l-.15.14a.78.78,0,0,1-.54.27" transform="translate(-447.33 -523.16)"/><path class="cls-2" d="M461.29,549.72a1.2,1.2,0,0,1,.9.39,7.16,7.16,0,0,0,.55.51,1.86,1.86,0,0,0,2.18.07,6,6,0,0,0,.49-.43l.18-.18a1.21,1.21,0,0,1,1.74,0l.2.2.21.19a1.84,1.84,0,0,0,1.58.52,2.06,2.06,0,0,0,1.21-.67l.06-.06a1.72,1.72,0,0,1,.73-.51v0h.31a.33.33,0,1,0,0-.66h-.07a1.6,1.6,0,0,0-1.09.4,3.59,3.59,0,0,0-.35.32l-.2.19a1.21,1.21,0,0,1-1.73,0l-.2-.19-.3-.29a1.9,1.9,0,0,0-1.23-.46,1.83,1.83,0,0,0-1.2.45l-.31.28a3.07,3.07,0,0,1-.26.25,1.19,1.19,0,0,1-1.64,0l-.25-.24-.32-.29a1.84,1.84,0,0,0-1.19-.44,1.89,1.89,0,0,0-1.16.41,6,6,0,0,0-.51.48,1.22,1.22,0,0,1-1.82,0,5.44,5.44,0,0,0-.67-.59,1.52,1.52,0,0,0-.68-.28h-.35a.32.32,0,0,0-.32.33.35.35,0,0,0,.32.34l.35,0v.06a1.28,1.28,0,0,1,.53.31l.18.18c.14.13.27.26.4.37a1.88,1.88,0,0,0,2.28,0,4,4,0,0,0,.55-.5,1.2,1.2,0,0,1,.9-.39" transform="translate(-447.33 -523.16)"/><path class="cls-2" d="M458.19,533.85a14.36,14.36,0,0,0,4.06,1.15l1.3,0c1.45,0,2.94-.1,4.39-.2l1.44-.1a5.11,5.11,0,0,0,1.77-.43c.24-.11.33-.22.33-.29s-.06-.23-.3-.4a2.17,2.17,0,0,0-1-.43,10.31,10.31,0,0,0-1.46,0l-.68,0-.43,0a4.59,4.59,0,0,1-.59,0h-.07l-.06,0a18.58,18.58,0,0,1-2.61-2.36l-1.11-1.07-.48,0h0l2.3,3.49-.72,0c-.25,0-.78,0-1.18,0l-2.2,0h-.16l-.11-.12c-.4-.4-1.46-1.35-2.19-2l-.28.06c.07.22.15.44.23.67.13.39.27.79.38,1.15l.11.29-.44.29a1,1,0,0,0-.19.12m5.36,2c-.47,0-.91,0-1.34,0a15.33,15.33,0,0,1-4.56-1.3l-.09,0-.08-.07a1,1,0,0,1-.22-.65v-.12l.07-.1a2,2,0,0,1,.52-.42l-.29-.84-.37-1.09-.13-.4.4-.11.41-.1.52-.13.21,0,.16.14c.52.46,1.71,1.51,2.26,2l2,0h.43l-2.2-3.34.55-.14a6.77,6.77,0,0,1,.81-.05,5.84,5.84,0,0,0,.6,0l.19,0,.13.13c.28.25.76.71,1.26,1.2.8.77,2,1.9,2.32,2.16l.38,0,.47,0,.66,0a12,12,0,0,1,1.58,0,3.06,3.06,0,0,1,1.45.59,1.29,1.29,0,0,1,.62,1.14,1.2,1.2,0,0,1-.8.93,5.73,5.73,0,0,1-2.06.51l-1.44.1c-1.46.1-3,.2-4.44.2" transform="translate(-447.33 -523.16)"/><path class="cls-2" d="M460.29,540.9v1.76l.65-.18,2.62-.73a1.26,1.26,0,0,1,.64,0l1.83.5,1.43.4v-1.78h-1.35v-1.13h-1.8V538a1.27,1.27,0,0,0-.49-.11.81.81,0,0,0-.37.08v1.78h-1.82v1.15Zm8,2.82-2.46-.68-1.82-.5a.37.37,0,0,0-.21,0c-.88.23-1.75.47-2.62.72l-1,.27-.14,0-.55.12v-3.6h1.34V539h1.82v-1.36l.11-.12a1.51,1.51,0,0,1,1.07-.38,2.16,2.16,0,0,1,1.13.33l.17.12v1.39h1.8v1.14h1.35Z" transform="translate(-447.33 -523.16)"/><text class="cls-3" transform="translate(34.08 14.5)">Transportes y <tspan x="0" y="13.2">Comunicaciones</tspan></text></svg>