<svg id="Layer_1" data-name="Layer 1" xmlns="http://www.w3.org/2000/svg" xmlns:xlink="http://www.w3.org/1999/xlink" viewBox="0 0 59.72 14.33"><defs><style>.cls-1{fill:none;}.cls-2{fill:#ed1b24;}.cls-3{font-size:8.42px;font-family:ArialMT, Arial;letter-spacing:-0.06em;}.cls-3,.cls-6{fill:#fff;}.cls-4{letter-spacing:0em;}.cls-5{clip-path:url(#clip-path);}</style><clipPath id="clip-path" transform="translate(-509.86 -532.99)"><rect class="cls-1" x="514.56" y="532.99" width="55.02" height="13.33" rx="6.67"/></clipPath></defs><rect class="cls-2" x="4.7" width="55.02" height="13.33" rx="6.67"/><text class="cls-3" transform="translate(25.66 9.46)">V<tspan class="cls-4" x="5.15" y="0">er</tspan></text><g class="cls-5"><path class="cls-6" d="M525,541.88l-6-7.17a2,2,0,0,0-1.54-.7h0a2,2,0,0,0-1.54.7l-6,7.17,1.8,1.82,3.89-3.61a2.37,2.37,0,0,1,3.72,0l3.9,3.61Z" transform="translate(-509.86 -532.99)"/><path class="cls-6" d="M521.39,545.51c-2.29-2.29-3.13-3.45-4-3.48h0c-.83,0-1.66,1.19-3.95,3.48l1.77,1.81,1.9-1.47a.5.5,0,0,1,.28-.1h.05a.5.5,0,0,1,.27.1l1.9,1.47Z" transform="translate(-509.86 -532.99)"/></g></svg>