<?xml version="1.0" encoding="UTF-8"?>
<svg id="Capa_1" data-name="Capa 1" xmlns="http://www.w3.org/2000/svg" xmlns:xlink="http://www.w3.org/1999/xlink" viewBox="0 0 553.73 132.88">
  <defs>
    <style>
      .cls-1 {
        clip-path: url(#clippath);
      }

      .cls-2 {
        fill: none;
      }

      .cls-2, .cls-3, .cls-4 {
        stroke-width: 0px;
      }

      .cls-5 {
        letter-spacing: -.06em;
      }

      .cls-6 {
        font-family: ArialMT, Arial;
        font-size: 78.07px;
      }

      .cls-6, .cls-3 {
        fill: #fff;
      }

      .cls-4 {
        fill: #ed1b24;
      }
    </style>
    <clipPath id="clippath">
      <rect class="cls-2" x="43.61" y="0" width="510.12" height="123.61" rx="6.67" ry="6.67"/>
    </clipPath>
  </defs>
  <rect class="cls-4" x="43.61" y="0" width="510.12" height="123.61" rx="61.81" ry="61.81"/>
  <text class="cls-6" transform="translate(237.96 87.74)"><tspan class="cls-5" x="0" y="0">V</tspan><tspan x="47.76" y="0">er</tspan></text>
  <g class="cls-1">
    <g>
      <path class="cls-3" d="m140.07,82.43L84.39,15.94c-3.58-4.27-8.91-6.43-14.28-6.49h-.16c-5.36.06-10.7,2.22-14.28,6.49L0,82.43l16.66,16.93,36.15-33.53c11.93-11.07,22.5-11.07,34.44,0l36.15,33.53,16.66-16.93Z"/>
      <path class="cls-3" d="m106.9,116.13c-21.24-21.24-29.01-32-36.68-32.25-.06,0-.13,0-.19,0s-.13,0-.19,0c-7.66.24-15.44,11.01-36.68,32.25l16.49,16.75,17.61-13.61c.79-.61,1.65-.91,2.52-.96.08,0,.16,0,.24,0h.12s.08,0,.12,0c.88.04,1.73.34,2.52.96l17.61,13.61,16.49-16.75Z"/>
    </g>
  </g>
</svg>