<?xml version="1.0" encoding="UTF-8"?>
<svg id="Capa_1" data-name="Capa 1" xmlns="http://www.w3.org/2000/svg" viewBox="0 0 555.31 155.51">
  <defs>
    <style>
      .cls-1 {
        font-family: MuseoSans-700, 'Museo Sans';
        font-size: 91.16px;
        letter-spacing: .03em;
      }

      .cls-1, .cls-2 {
        fill: #fff;
      }

      .cls-3 {
        fill: #565a5c;
      }

      .cls-3, .cls-4, .cls-2 {
        stroke-width: 0px;
      }

      .cls-4 {
        fill: #c63b37;
      }
    </style>
  </defs>
  <rect class="cls-3" x="8.36" width="546.95" height="154.97" rx="33.85" ry="33.85"/>
  <path class="cls-4" d="m28.23.54h144.21v154.97H28.23c-15.58,0-28.23-12.65-28.23-28.23V28.78C0,13.19,12.65.54,28.23.54Z"/>
  <g>
    <path class="cls-2" d="m59.66,118.51c-.18-.29-.51-.24-.78-.3-4.33-1.09-7.36-4.85-7.37-9.31-.02-9.59-.03-19.17,0-28.76.01-3.21,1.35-5.86,3.96-7.75,8.31-6.03,16.64-12.05,24.98-18.04,3.52-2.53,7.82-2.5,11.35.04,8.3,5.96,16.58,11.95,24.85,17.94,2.67,1.93,4.02,4.6,4.03,7.88.03,9.56.03,19.12,0,28.68-.01,4.8-3.51,8.77-8.23,9.46-.11.02-.21.03-.24.16h-20.51c-.05-.06-.09-.14-.15-.16-1.63-.63-2.28-1.84-2.27-3.56.04-4.05.01-8.11.01-12.16,0-1.38-.57-2.43-1.82-3.04-2.15-1.06-4.57.5-4.58,2.96-.02,4.16,0,8.32,0,12.48,0,1.74-.77,2.78-2.42,3.33-.06.02-.1.1-.15.15h-20.67Zm54.64-24.04c0-4.67,0-9.35,0-14.02,0-1.3-.49-2.31-1.55-3.07-8.16-5.87-16.32-11.76-24.48-17.64-1.55-1.11-2.78-1.11-4.33.01-8.16,5.88-16.31,11.78-24.47,17.65-1.04.75-1.54,1.72-1.54,2.99,0,9.4,0,18.8,0,28.2,0,2.12,1.33,3.46,3.45,3.47,4.81.02,9.61,0,14.42.04.56,0,.71-.14.71-.7-.03-2.94-.02-5.87-.01-8.81.02-5.42,4.27-9.72,9.6-9.72,5.34,0,9.6,4.29,9.62,9.71.01,2.91.02,5.82-.01,8.73,0,.6.11.81.77.8,4.73-.03,9.45-.01,14.18-.02,2.37,0,3.64-1.29,3.64-3.68,0-4.65,0-9.29,0-13.94Z"/>
    <path class="cls-2" d="m45.07,64.5c.42-1.03,1.21-1.69,2.09-2.32,11.05-7.9,22.08-15.81,33.12-23.73,3.69-2.64,7.98-2.64,11.69.02,11.14,7.99,22.29,15.98,33.43,23.98,2.25,1.61,2.29,4.17.11,5.6-1.08.71-2.37.67-3.52-.15-5.34-3.82-10.67-7.65-16-11.48-5.88-4.21-11.75-8.43-17.63-12.64-1.7-1.22-2.82-1.22-4.53,0-11.11,7.95-22.23,15.88-33.29,23.9-2.21,1.6-4.63.66-5.33-1.56-.02-.07-.09-.12-.14-.18,0-.48,0-.96,0-1.44Z"/>
  </g>
  <text class="cls-1" transform="translate(205.39 113.21)"><tspan x="0" y="0">INICIO</tspan></text>
</svg>