<svg id="Capa_1" data-name="Capa 1" xmlns="http://www.w3.org/2000/svg" viewBox="0 0 676.84 1050.15"><defs><style>.cls-1{fill:#d7282f;}.cls-2{fill:#fff;}</style></defs><title>fonade blanco</title><rect class="cls-1" width="676.84" height="1050.15"/><polygon class="cls-2" points="232.76 504.11 269.29 504.11 269.29 516.57 247.34 516.57 247.34 522.12 267.73 522.12 267.73 533.47 247.34 533.47 247.34 547.74 232.76 547.74 232.76 504.11"/><path class="cls-2" d="M510.31,541.06v-.13c0-5.17-3.55-9.84-9.16-9.84s-9,4.61-9,9.72v.12c0,5.18,3.55,9.85,9.16,9.85s9-4.61,9-9.72m-32.91,0v-.13c0-12.65,10.4-22.75,23.87-22.75s23.75,10,23.75,22.63v.12c0,12.66-10.41,22.76-23.87,22.76s-23.75-10-23.75-22.63" transform="translate(-201.16 -15.01)"/><polygon class="cls-2" points="332.37 504.11 346.02 504.11 361.55 523.37 361.55 504.11 376.01 504.11 376.01 547.74 363.04 547.74 346.83 527.61 346.83 547.74 332.37 547.74 332.37 504.11"/><path class="cls-2" d="M613,546.55,609,536l-4,10.6Zm-11.1-27.74h14.47l18.39,43.94H618.9l-2.3-5.86H601.32l-2.24,5.86H583.49Z" transform="translate(-201.16 -15.01)"/><polygon class="cls-2" points="439.9 504.11 476.43 504.11 476.43 516.57 454.49 516.57 454.49 522.12 474.88 522.12 474.88 533.47 454.49 533.47 454.49 547.74 439.9 547.74 439.9 504.11"/><polygon class="cls-2" points="484.38 504.11 521.6 504.11 521.6 516.08 498.72 516.08 498.72 520.5 520.04 520.5 520.04 531.03 498.72 531.03 498.72 535.77 521.91 535.77 521.91 547.74 484.38 547.74 484.38 504.11"/><path class="cls-2" d="M439.71,510.2a5.41,5.41,0,0,1-5.5-5.51v0a5.45,5.45,0,0,1,5.59-5.54,5.54,5.54,0,0,1,4.22,1.65l-1.5,1.73a4,4,0,0,0-2.74-1.21,3.17,3.17,0,0,0-3.1,3.34v0a3.18,3.18,0,0,0,3.1,3.37,3.85,3.85,0,0,0,2.82-1.26l1.5,1.52a5.5,5.5,0,0,1-4.39,1.91" transform="translate(-201.16 -15.01)"/><path class="cls-2" d="M471.16,504.66a3.26,3.26,0,0,0-3.24-3.37,3.21,3.21,0,0,0-3.22,3.34v0A3.26,3.26,0,0,0,468,508a3.21,3.21,0,0,0,3.21-3.34Zm-3.24,5.54a5.49,5.49,0,0,1-5.68-5.51v0a5.7,5.7,0,0,1,11.39,0v0a5.54,5.54,0,0,1-5.71,5.54" transform="translate(-201.16 -15.01)"/><path class="cls-2" d="M499,503c0-1-.71-1.53-1.85-1.53h-2.35v3.08h2.39c1.15,0,1.81-.62,1.81-1.52ZM499,510l-2.3-3.43h-1.85V510h-2.35V499.3h4.89c2.53,0,4,1.34,4,3.54v0a3.32,3.32,0,0,1-2.29,3.32l2.62,3.83Z" transform="translate(-201.16 -15.01)"/><path class="cls-2" d="M526.35,503.05c0-1.05-.74-1.62-1.92-1.62h-1.82v3.28h1.87a1.66,1.66,0,0,0,1.87-1.63Zm-2,3.75h-1.79V510h-2.35V499.3h4.37c2.56,0,4.1,1.52,4.1,3.71v0c0,2.48-1.92,3.76-4.33,3.76" transform="translate(-201.16 -15.01)"/><path class="cls-2" d="M555.66,504.66a3.26,3.26,0,0,0-3.25-3.37,3.21,3.21,0,0,0-3.21,3.34v0a3.26,3.26,0,0,0,3.24,3.37,3.21,3.21,0,0,0,3.22-3.34Zm-3.25,5.54a5.48,5.48,0,0,1-5.67-5.51v0a5.69,5.69,0,0,1,11.38,0v0a5.54,5.54,0,0,1-5.71,5.54" transform="translate(-201.16 -15.01)"/><path class="cls-2" d="M583.5,503c0-1-.7-1.53-1.85-1.53h-2.34v3.08h2.39c1.15,0,1.8-.62,1.8-1.52Zm0,7.06-2.3-3.43h-1.85V510H577V499.3h4.9c2.53,0,4,1.34,4,3.54v0a3.31,3.31,0,0,1-2.3,3.32l2.62,3.83Z" transform="translate(-201.16 -15.01)"/><path class="cls-2" d="M609.48,502.06l-1.42,3.47h2.84Zm3.24,8-1-2.41h-4.52l-1,2.41h-2.41l4.59-10.79h2.18L615.19,510Z" transform="translate(-201.16 -15.01)"/><path class="cls-2" d="M638.6,510.2a5.41,5.41,0,0,1-5.5-5.51v0a5.45,5.45,0,0,1,5.59-5.54,5.54,5.54,0,0,1,4.22,1.65l-1.5,1.73a4,4,0,0,0-2.74-1.21,3.17,3.17,0,0,0-3.1,3.34v0a3.18,3.18,0,0,0,3.1,3.37,3.85,3.85,0,0,0,2.82-1.26l1.5,1.52a5.5,5.5,0,0,1-4.39,1.91" transform="translate(-201.16 -15.01)"/><rect class="cls-2" x="460.55" y="484.29" width="3.36" height="10.71"/><path class="cls-2" d="M687.87,498.46l1.73-2.7,2,.87-2,1.83Zm4,6.2a3.25,3.25,0,0,0-3.24-3.37,3.2,3.2,0,0,0-3.21,3.34v0a3.25,3.25,0,0,0,3.24,3.37,3.2,3.2,0,0,0,3.21-3.34Zm-3.24,5.54a5.49,5.49,0,0,1-5.68-5.51v0a5.54,5.54,0,0,1,5.71-5.54,5.48,5.48,0,0,1,5.67,5.51v0a5.53,5.53,0,0,1-5.7,5.54" transform="translate(-201.16 -15.01)"/><polygon class="cls-2" points="519.57 495 514.38 488.19 514.38 495 512.06 495 512.06 484.29 514.23 484.29 519.25 490.89 519.25 484.29 521.58 484.29 521.58 495 519.57 495"/><path class="cls-2" d="M400.87,535.47l-33.24-39.69a11.22,11.22,0,0,0-8.52-3.88H359a11.22,11.22,0,0,0-8.52,3.88l-33.24,39.69,9.95,10.11,21.58-20c7.12-6.61,13.43-6.61,20.56,0l21.58,20Z" transform="translate(-201.16 -15.01)"/><path class="cls-2" d="M381.07,555.59c-12.68-12.68-17.32-19.11-21.9-19.25H359c-4.58.14-9.22,6.57-21.9,19.25l9.85,10,10.51-8.12a2.55,2.55,0,0,1,1.51-.57h.28a2.55,2.55,0,0,1,1.51.57l10.52,8.12Z" transform="translate(-201.16 -15.01)"/></svg>