<?xml version="1.0" encoding="UTF-8"?>
<svg id="Capa_1" data-name="Capa 1" xmlns="http://www.w3.org/2000/svg" xmlns:xlink="http://www.w3.org/1999/xlink" viewBox="0 0 682 123.84">
  <defs>
    <style>
      .cls-1 {
        clip-path: url(#clippath);
      }

      .cls-2 {
        fill: none;
      }

      .cls-2, .cls-3, .cls-4 {
        stroke-width: 0px;
      }

      .cls-5 {
        clip-path: url(#clippath-1);
      }

      .cls-6 {
        clip-path: url(#clippath-4);
      }

      .cls-7 {
        clip-path: url(#clippath-3);
      }

      .cls-8 {
        clip-path: url(#clippath-2);
      }

      .cls-3 {
        fill: #545759;
      }

      .cls-4 {
        fill: #c63b37;
      }
    </style>
    <clipPath id="clippath">
      <rect class="cls-2" width="682" height="123.84"/>
    </clipPath>
    <clipPath id="clippath-1">
      <rect class="cls-2" width="682" height="123.84"/>
    </clipPath>
    <clipPath id="clippath-2">
      <rect class="cls-2" width="682" height="123.84"/>
    </clipPath>
    <clipPath id="clippath-3">
      <rect class="cls-2" width="682" height="123.84"/>
    </clipPath>
    <clipPath id="clippath-4">
      <rect class="cls-2" width="682" height="123.84"/>
    </clipPath>
  </defs>
  <polygon class="cls-4" points="196.06 45.73 257.45 45.73 257.45 66.69 220.58 66.69 220.58 76.01 254.83 76.01 254.83 95.08 220.58 95.08 220.58 119.07 196.06 119.07 196.06 45.73"/>
  <g class="cls-1">
    <path class="cls-4" d="m324.45,82.61v-.21c0-8.69-5.97-16.55-15.4-16.55s-15.19,7.75-15.19,16.34v.21c0,8.7,5.97,16.55,15.4,16.55s15.19-7.75,15.19-16.34m-55.31,0v-.21c0-21.27,17.49-38.24,40.12-38.24s39.91,16.76,39.91,38.03v.21c0,21.27-17.49,38.24-40.12,38.24s-39.91-16.76-39.91-38.03"/>
  </g>
  <polygon class="cls-4" points="363.47 45.73 386.41 45.73 412.5 78.11 412.5 45.73 436.81 45.73 436.81 119.07 415.01 119.07 387.78 85.23 387.78 119.07 363.47 119.07 363.47 45.73"/>
  <path class="cls-4" d="m496.99,91.83l-6.7-17.81-6.71,17.81h13.41Zm-18.65-46.62h24.31l30.9,73.86h-26.61l-3.88-9.85h-25.67l-3.77,9.85h-26.19l30.9-73.86Z"/>
  <polygon class="cls-4" points="544.18 45.73 605.57 45.73 605.57 66.69 568.7 66.69 568.7 76.01 602.96 76.01 602.96 95.08 568.7 95.08 568.7 119.07 544.18 119.07 544.18 45.73"/>
  <polygon class="cls-4" points="618.93 45.73 618.93 119.07 682 119.07 682 98.95 643.03 98.95 643.03 90.99 678.86 90.99 678.86 73.29 643.03 73.29 643.03 65.85 681.47 65.85 681.47 45.73 618.93 45.73"/>
  <g class="cls-5">
    <path class="cls-3" d="m205.79,30.75c-5.3,0-9.23-4.09-9.23-9.26v-.05c0-5.12,3.86-9.31,9.38-9.31,3.39,0,5.43,1.13,7.1,2.77l-2.52,2.91c-1.39-1.26-2.8-2.03-4.6-2.03-3.03,0-5.22,2.52-5.22,5.61v.05c0,3.09,2.13,5.66,5.22,5.66,2.06,0,3.32-.82,4.73-2.11l2.52,2.55c-1.85,1.98-3.91,3.21-7.38,3.21"/>
    <path class="cls-3" d="m258.66,21.44c0-3.08-2.26-5.66-5.45-5.66s-5.4,2.52-5.4,5.61v.05c0,3.09,2.26,5.66,5.45,5.66s5.4-2.52,5.4-5.61v-.05Zm-5.45,9.31c-5.56,0-9.54-4.14-9.54-9.26v-.05c0-5.12,4.04-9.31,9.59-9.31s9.54,4.14,9.54,9.26v.05c0,5.12-4.04,9.31-9.59,9.31"/>
    <path class="cls-3" d="m305.45,18.59c0-1.7-1.19-2.57-3.11-2.57h-3.93v5.17h4.01c1.93,0,3.04-1.03,3.04-2.55v-.05Zm-.08,11.85l-3.86-5.76h-3.11v5.76h-3.96V12.44h8.23c4.24,0,6.79,2.24,6.79,5.94v.05c0,2.91-1.57,4.73-3.86,5.58l4.4,6.43h-4.63Z"/>
    <path class="cls-3" d="m351.4,18.74c0-1.78-1.24-2.73-3.22-2.73h-3.06v5.5h3.14c1.98,0,3.14-1.18,3.14-2.72v-.05Zm-3.27,6.3h-3.01v5.4h-3.96V12.44h7.35c4.3,0,6.89,2.55,6.89,6.22v.05c0,4.16-3.24,6.33-7.28,6.33"/>
    <path class="cls-3" d="m400.66,21.44c0-3.08-2.26-5.66-5.45-5.66s-5.4,2.52-5.4,5.61v.05c0,3.09,2.26,5.66,5.45,5.66s5.4-2.52,5.4-5.61v-.05Zm-5.45,9.31c-5.55,0-9.54-4.14-9.54-9.26v-.05c0-5.12,4.04-9.31,9.59-9.31s9.54,4.14,9.54,9.26v.05c0,5.12-4.04,9.31-9.59,9.31"/>
    <path class="cls-3" d="m447.45,18.59c0-1.7-1.18-2.57-3.11-2.57h-3.94v5.17h4.01c1.93,0,3.04-1.03,3.04-2.55v-.05Zm-.08,11.85l-3.85-5.76h-3.11v5.76h-3.96V12.44h8.23c4.24,0,6.79,2.24,6.79,5.94v.05c0,2.91-1.57,4.73-3.86,5.58l4.4,6.43h-4.63Z"/>
  </g>
  <path class="cls-3" d="m491.11,17.07l-2.39,5.84h4.78l-2.39-5.84Zm5.45,13.37l-1.65-4.04h-7.61l-1.65,4.04h-4.04l7.71-18.13h3.65l7.71,18.13h-4.14Z"/>
  <g class="cls-8">
    <path class="cls-3" d="m540.04,30.75c-5.3,0-9.23-4.09-9.23-9.26v-.05c0-5.12,3.86-9.31,9.39-9.31,3.39,0,5.43,1.13,7.1,2.77l-2.52,2.91c-1.39-1.26-2.8-2.03-4.6-2.03-3.04,0-5.22,2.52-5.22,5.61v.05c0,3.09,2.13,5.66,5.22,5.66,2.05,0,3.32-.82,4.73-2.11l2.52,2.55c-1.85,1.98-3.91,3.21-7.38,3.21"/>
  </g>
  <rect class="cls-3" x="578.88" y="12.44" width="5.65" height="18"/>
  <g class="cls-7">
    <path class="cls-3" d="m622.84,11.03l2.9-4.55,3.37,1.47-3.29,3.09h-2.98Zm6.81,10.41c0-3.08-2.26-5.66-5.45-5.66s-5.4,2.52-5.4,5.61v.05c0,3.09,2.26,5.66,5.45,5.66s5.4-2.52,5.4-5.61v-.05Zm-5.45,9.31c-5.56,0-9.54-4.14-9.54-9.26v-.05c0-5.12,4.04-9.31,9.59-9.31s9.54,4.14,9.54,9.26v.05c0,5.12-4.04,9.31-9.59,9.31"/>
  </g>
  <polygon class="cls-3" points="677.53 12.44 677.53 23.52 669.1 12.44 665.45 12.44 665.45 30.44 669.35 30.44 669.35 19 678.07 30.44 681.44 30.44 681.44 12.44 677.53 12.44"/>
  <g class="cls-6">
    <path class="cls-4" d="m140.53,73.22L84.67,6.51C81.09,2.23,75.73.06,70.35,0h-.08s-.08,0-.08,0c-5.38.06-10.74,2.23-14.33,6.51L0,73.22l16.72,16.99,36.27-33.64c11.97-11.1,22.57-11.11,34.55,0l36.27,33.64,16.72-16.99Z"/>
    <path class="cls-3" d="m107.25,107.03c-21.31-21.31-29.11-32.11-36.8-32.35-.06,0-.13-.01-.19-.01s-.13,0-.19.01c-7.69.24-15.49,11.05-36.8,32.35l16.55,16.81,17.67-13.66c.79-.61,1.65-.91,2.53-.96.08,0,.16,0,.24,0,.04,0,.08,0,.12,0s.08,0,.12,0c.88.04,1.74.34,2.53.96l17.67,13.66,16.55-16.81Z"/>
  </g>
</svg>