<svg id="Layer_1" data-name="Layer 1" xmlns="http://www.w3.org/2000/svg" viewBox="0 0 311.45 381.86"><defs><style>.cls-1{fill:#565a5c;}.cls-2{fill:#dedede;}.cls-2,.cls-27{opacity:0.22;}.cls-3{fill:#e8e8e9;}.cls-4{fill:#a2a4a7;}.cls-5{fill:#6d6e70;}.cls-6{fill:#9ea0a3;}.cls-12,.cls-27,.cls-7{fill:#231f20;}.cls-10,.cls-8{fill:#d7282f;}.cls-11,.cls-9{fill:#53575a;}.cls-10,.cls-11{fill-rule:evenodd;}.cls-12{opacity:0.1;}.cls-13{fill:#717275;}.cls-14{fill:#fff;}.cls-15{fill:#efc8ab;}.cls-16{fill:#3d2518;}.cls-17{fill:#54392d;}.cls-18{fill:#a8abad;}.cls-19{fill:#8d8f91;}.cls-20{fill:#8e9093;}.cls-21{fill:#949699;}.cls-22{fill:#007bae;}.cls-23{fill:#f16f76;}.cls-24{fill:#510000;}.cls-25{fill:#e3e4e5;}.cls-26{fill:#bc362e;}.cls-28{fill:#5e5f61;}.cls-29{fill:#f9e1d8;}.cls-30{fill:#594e4e;}.cls-31{fill:#7e706f;opacity:0.44;}.cls-32{fill:#caccce;}.cls-33{fill:#bd5a50;}</style></defs><path class="cls-1" d="M664.7,503.18l.1-.16,22.57-22.57a1.05,1.05,0,0,1,.63-.23c.93,0,1.87,0,2.8,0a1.17,1.17,0,0,0,1.17-.74q2.26-4.56,4.56-9.11a1.13,1.13,0,0,0-.22-1.5c-.87-.85-1.72-1.71-2.57-2.57a1.08,1.08,0,0,0-1.4-.24c-3.08,1.56-6.18,3.1-9.27,4.64a1.07,1.07,0,0,0-.65,1c0,.9,0,1.79,0,2.69a1.26,1.26,0,0,1-.42,1q-11,11-22,22l-.53.5c-.2-.24-.34-.43-.5-.6s-.36-.37-.55-.55a1,1,0,0,0-1.6,0l-2.4,2.41c-.85.85-.85,1.17,0,2l6.16,6.16.45.47-.32.35-11.43,11.43c-.16.16-.32.31-.49.45a4.42,4.42,0,0,1-7.21-1.92,4.65,4.65,0,0,1,1.39-4.78c3-3,6-6,8.94-8.95.12-.13.26-.25.37-.39a.85.85,0,0,0-.09-1.23c-.43-.46-.93-.43-1.45.09-1.93,1.92-3.85,3.85-5.78,5.78-1.25,1.25-2.54,2.46-3.73,3.77a6.39,6.39,0,0,0,.93,9.59,6.48,6.48,0,0,0,8.26-.89c5.17-5.09,10.28-10.25,15.41-15.38a1,1,0,0,0,0-1.6C665.44,503.86,665.07,503.53,664.7,503.18ZM648.46,467.8c1.69,0,3.21,0,4.73,0a.93.93,0,0,1,.53.32c1.19,1.17,2.38,2.35,3.54,3.55a1.3,1.3,0,0,1,.33.82q0,3.18,0,6.38a1.66,1.66,0,0,0,.55,1.31c2.43,2.41,4.84,4.84,7.26,7.25a3.31,3.31,0,0,0,.44.4.85.85,0,0,0,1.19-.11.86.86,0,0,0,.13-1.19,3.34,3.34,0,0,0-.44-.48c-2.28-2.28-4.55-4.56-6.84-6.83a1.2,1.2,0,0,1-.38-.94c0-2.1,0-4.21,0-6.32a1.64,1.64,0,0,0-.51-1.27c-1.46-1.44-2.89-2.91-4.37-4.33a1.91,1.91,0,0,0-1.14-.47c-2.35,0-4.7,0-7,0-.51,0-1,.06-1.19.59s.06.9.41,1.26c1.82,1.81,3.61,3.65,5.46,5.43a2.28,2.28,0,0,1,.76,1.8,1.93,1.93,0,0,1-.75,1.75,2.56,2.56,0,0,0-.54.55,2.5,2.5,0,0,1-2.52,1.05,1.52,1.52,0,0,1-1-.45c-1.92-1.94-3.85-3.85-5.77-5.78-.35-.35-.7-.6-1.21-.4s-.62.66-.62,1.17c0,2.35,0,4.69,0,7a1.52,1.52,0,0,0,.5,1.21c1.46,1.44,2.89,2.91,4.37,4.33a1.79,1.79,0,0,0,1.14.47c2.15,0,4.3,0,6.44,0a1.39,1.39,0,0,1,.87.36c2.31,2.27,4.6,4.57,6.89,6.86.14.14.27.35.44.39a1.44,1.44,0,0,0,.93.06,1.24,1.24,0,0,0,.54-.84,1.26,1.26,0,0,0-.42-.8c-2.49-2.52-5-5-7.51-7.5a1.73,1.73,0,0,0-1.11-.43c-2.14,0-4.29,0-6.44,0a1.66,1.66,0,0,1-.87-.36,9,9,0,0,1-.93-.92l-2.9-2.92,0-4.17V475l.2-.11a3.34,3.34,0,0,0,.37.53c1.42,1.43,2.85,2.84,4.26,4.27a1.53,1.53,0,0,0,1.21.51c.8,0,1.59,0,2.39,0a1.64,1.64,0,0,0,.94-.39c.9-.84,1.78-1.71,2.62-2.61a1.78,1.78,0,0,0,.4-1c.06-.75,0-1.51,0-2.26a1.66,1.66,0,0,0-.57-1.37C651.67,471,650.13,469.47,648.46,467.8Zm39.31,53.45c-1.61,0-3,0-4.47,0a1.35,1.35,0,0,1-.81-.35c-1.19-1.15-2.36-2.31-3.5-3.5a1.4,1.4,0,0,1-.37-.87q0-3.15,0-6.32a1.77,1.77,0,0,0-.57-1.37c-2.43-2.41-4.84-4.83-7.26-7.25-.14-.14-.28-.34-.44-.38a1.52,1.52,0,0,0-.94,0,1.08,1.08,0,0,0-.5.8,1.54,1.54,0,0,0,.48.9c2.3,2.33,4.64,4.64,6.94,7a1.35,1.35,0,0,1,.35.86q0,3.2,0,6.39a1.62,1.62,0,0,0,.53,1.26c1.45,1.42,2.88,2.86,4.3,4.3a1.6,1.6,0,0,0,1.22.51c2.32,0,4.65,0,7,0,.52,0,1-.06,1.22-.63s-.08-.9-.44-1.25c-1.89-1.88-3.76-3.78-5.66-5.64a1.8,1.8,0,0,1-.53-1.24,2.33,2.33,0,0,1,1-2.31,1.37,1.37,0,0,0,.34-.34,2.43,2.43,0,0,1,2.46-1,1.6,1.6,0,0,1,1.08.47c1.9,1.93,3.82,3.83,5.73,5.75.36.35.73.63,1.26.39a1.06,1.06,0,0,0,.59-1.13c0-2.36,0-4.73,0-7.1a1.73,1.73,0,0,0-.44-1.1c-1.44-1.5-2.92-3-4.43-4.42a1.69,1.69,0,0,0-1.09-.45c-2.15,0-4.3,0-6.44,0a1.21,1.21,0,0,1-.94-.4q-3.42-3.45-6.87-6.88a2.09,2.09,0,0,0-.55-.44.9.9,0,0,0-1.16.31,1,1,0,0,0,.22,1.34c2.51,2.52,5,5,7.56,7.53a1.67,1.67,0,0,0,1,.42c2.17,0,4.34,0,6.5,0a1.31,1.31,0,0,1,.82.34q1.8,1.74,3.54,3.54a1.28,1.28,0,0,1,.33.76c0,1.31,0,2.63,0,3.94,0,.14,0,.28-.05.51-1.65-1.65-3.21-3.25-4.81-4.79a2,2,0,0,0-1.15-.47,15.29,15.29,0,0,0-2.44,0,1.51,1.51,0,0,0-.89.37c-.92.85-1.81,1.74-2.66,2.66a1.65,1.65,0,0,0-.39.94c-.05.69,0,1.39,0,2.09a2,2,0,0,0,.72,1.72C684.66,518.12,686.14,519.63,687.77,521.25Z" transform="translate(-385.3 -350.34)"/><path class="cls-1" d="M664.7,503.18c.37.35.74.68,1.08,1a1,1,0,0,1,0,1.6c-5.13,5.13-10.24,10.29-15.41,15.38a6.48,6.48,0,0,1-8.26.89,6.39,6.39,0,0,1-.93-9.59c1.19-1.31,2.48-2.52,3.73-3.77,1.93-1.93,3.85-3.86,5.78-5.78.52-.52,1-.55,1.45-.09a.85.85,0,0,1,.09,1.23c-.11.14-.25.26-.37.39-3,3-6,6-8.94,8.95a4.65,4.65,0,0,0-1.39,4.78,4.42,4.42,0,0,0,7.21,1.92c.17-.14.33-.29.49-.45l11.43-11.43.32-.35-.45-.47-6.16-6.16c-.84-.84-.84-1.16,0-2l2.4-2.41a1,1,0,0,1,1.6,0c.19.18.37.36.55.55s.3.36.5.6l.53-.5q11-11,22-22a1.26,1.26,0,0,0,.42-1c0-.9,0-1.79,0-2.69a1.07,1.07,0,0,1,.65-1c3.09-1.54,6.19-3.08,9.27-4.64a1.08,1.08,0,0,1,1.4.24c.85.86,1.7,1.72,2.57,2.57a1.13,1.13,0,0,1,.22,1.5q-2.29,4.54-4.56,9.11a1.17,1.17,0,0,1-1.17.74c-.93,0-1.87,0-2.8,0a1.05,1.05,0,0,0-.63.23L664.8,503Zm-1.26-1.42a5.6,5.6,0,0,1,.42-.52l22.39-22.4a1.66,1.66,0,0,1,1.32-.55c.81,0,1.63,0,2.44,0a.81.81,0,0,0,.58-.34c1.31-2.56,2.59-5.14,3.87-7.72a.6.6,0,0,0,0-.51c-.52-.59-1.09-1.15-1.64-1.72-2.77,1.38-5.47,2.73-8.16,4.09a.72.72,0,0,0-.27.51,21.3,21.3,0,0,0,0,2.26,2.07,2.07,0,0,1-.69,1.68q-11.17,11.14-22.32,22.31c-.15.14-.29.3-.4.42Zm-7.23-1.55,6.18,6.2,1.35-1.33-6.17-6.18Z" transform="translate(-385.3 -350.34)"/><path class="cls-1" d="M648.46,467.8c1.67,1.67,3.21,3.23,4.77,4.76a1.66,1.66,0,0,1,.57,1.37c0,.75,0,1.51,0,2.26a1.78,1.78,0,0,1-.4,1c-.84.9-1.72,1.77-2.62,2.61a1.64,1.64,0,0,1-.94.39c-.8.06-1.59,0-2.39,0a1.53,1.53,0,0,1-1.21-.51c-1.41-1.43-2.84-2.84-4.26-4.27a3.34,3.34,0,0,1-.37-.53l-.2.11v.62l0,4.17,2.9,2.92a9,9,0,0,0,.93.92,1.66,1.66,0,0,0,.87.36c2.15,0,4.3,0,6.44,0a1.73,1.73,0,0,1,1.11.43c2.52,2.47,5,5,7.51,7.5a1.26,1.26,0,0,1,.42.8,1.24,1.24,0,0,1-.54.84,1.44,1.44,0,0,1-.93-.06c-.17,0-.3-.25-.44-.39-2.29-2.29-4.58-4.59-6.89-6.86a1.39,1.39,0,0,0-.87-.36c-2.14,0-4.29,0-6.44,0a1.79,1.79,0,0,1-1.14-.47c-1.48-1.42-2.91-2.89-4.37-4.33a1.52,1.52,0,0,1-.5-1.21c0-2.35,0-4.69,0-7,0-.51.08-1,.62-1.17s.86.05,1.21.4c1.92,1.93,3.85,3.84,5.77,5.78a1.52,1.52,0,0,0,1,.45,2.5,2.5,0,0,0,2.52-1.05,2.56,2.56,0,0,1,.54-.55,1.93,1.93,0,0,0,.75-1.75,2.28,2.28,0,0,0-.76-1.8c-1.85-1.78-3.64-3.62-5.46-5.43-.35-.36-.64-.72-.41-1.26s.68-.59,1.19-.59c2.34,0,4.69,0,7,0a1.91,1.91,0,0,1,1.14.47c1.48,1.42,2.91,2.89,4.37,4.33a1.64,1.64,0,0,1,.51,1.27c0,2.11,0,4.22,0,6.32a1.2,1.2,0,0,0,.38.94c2.29,2.27,4.56,4.55,6.84,6.83a3.34,3.34,0,0,1,.44.48.86.86,0,0,1-.13,1.19.85.85,0,0,1-1.19.11,3.31,3.31,0,0,1-.44-.4c-2.42-2.41-4.83-4.84-7.26-7.25a1.66,1.66,0,0,1-.55-1.31q0-3.19,0-6.38a1.3,1.3,0,0,0-.33-.82c-1.16-1.2-2.35-2.38-3.54-3.55a.93.93,0,0,0-.53-.32C651.67,467.79,650.15,467.8,648.46,467.8Z" transform="translate(-385.3 -350.34)"/><path class="cls-1" d="M687.77,521.25c-1.63-1.62-3.11-3.13-4.64-4.61a2,2,0,0,1-.72-1.72c.06-.7,0-1.4,0-2.09a1.65,1.65,0,0,1,.39-.94c.85-.92,1.74-1.81,2.66-2.66a1.51,1.51,0,0,1,.89-.37,15.29,15.29,0,0,1,2.44,0,2,2,0,0,1,1.15.47c1.6,1.54,3.16,3.14,4.81,4.79,0-.23.05-.37.05-.51,0-1.31,0-2.63,0-3.94a1.28,1.28,0,0,0-.33-.76q-1.74-1.8-3.54-3.54a1.31,1.31,0,0,0-.82-.34c-2.16,0-4.33,0-6.5,0a1.67,1.67,0,0,1-1-.42c-2.54-2.49-5.05-5-7.56-7.53a1,1,0,0,1-.22-1.34.9.9,0,0,1,1.16-.31,2.09,2.09,0,0,1,.55.44q3.45,3.43,6.87,6.88a1.21,1.21,0,0,0,.94.4c2.14,0,4.29,0,6.44,0a1.69,1.69,0,0,1,1.09.45c1.51,1.44,3,2.92,4.43,4.42a1.73,1.73,0,0,1,.44,1.1c0,2.37,0,4.74,0,7.1a1.06,1.06,0,0,1-.59,1.13c-.53.24-.9,0-1.26-.39-1.91-1.92-3.83-3.82-5.73-5.75a1.6,1.6,0,0,0-1.08-.47,2.43,2.43,0,0,0-2.46,1,1.37,1.37,0,0,1-.34.34,2.33,2.33,0,0,0-1,2.31,1.8,1.8,0,0,0,.53,1.24c1.9,1.86,3.77,3.76,5.66,5.64.36.35.66.71.44,1.25s-.7.63-1.22.63c-2.33,0-4.66,0-7,0a1.6,1.6,0,0,1-1.22-.51c-1.42-1.44-2.85-2.88-4.3-4.3a1.62,1.62,0,0,1-.53-1.26q0-3.2,0-6.39a1.35,1.35,0,0,0-.35-.86c-2.3-2.34-4.64-4.65-6.94-7a1.54,1.54,0,0,1-.48-.9,1.08,1.08,0,0,1,.5-.8,1.52,1.52,0,0,1,.94,0c.16,0,.3.24.44.38,2.42,2.42,4.83,4.84,7.26,7.25a1.77,1.77,0,0,1,.57,1.37q0,3.16,0,6.32a1.4,1.4,0,0,0,.37.87c1.14,1.19,2.31,2.35,3.5,3.5a1.35,1.35,0,0,0,.81.35C684.73,521.27,686.16,521.25,687.77,521.25Z" transform="translate(-385.3 -350.34)"/><path class="cls-2" d="M663.44,501.76l-2.5-2.5c.11-.12.25-.28.4-.42q11.16-11.16,22.32-22.31a2.07,2.07,0,0,0,.69-1.68,21.3,21.3,0,0,1,0-2.26.72.72,0,0,1,.27-.51c2.69-1.36,5.39-2.71,8.16-4.09.55.57,1.12,1.13,1.64,1.72a.6.6,0,0,1,0,.51c-1.28,2.58-2.56,5.16-3.87,7.72a.81.81,0,0,1-.58.34c-.81,0-1.63,0-2.44,0a1.66,1.66,0,0,0-1.32.55l-22.39,22.4A5.6,5.6,0,0,0,663.44,501.76Z" transform="translate(-385.3 -350.34)"/><path class="cls-2" d="M656.21,500.21l1.36-1.31,6.17,6.18-1.35,1.33Z" transform="translate(-385.3 -350.34)"/><path class="cls-3" d="M477.67,697.55l-8.94,16.7s-2,2.29-4.35,1.86a70.4,70.4,0,0,1-8-2.58l-51.78-29.59-17.4-11.57s-.76-4.45,0-7.41,6.65-14.11,6.65-14.11l8.91,4.8,55.86,30.82Z" transform="translate(-385.3 -350.34)"/><path class="cls-4" d="M482.4,657.12s10.9,3.92,10.42,7.75-9.6,24.09-9.6,24.09l-5.55,8.59-45.56-25.32-38.67-20.66,12.28-23.32s5.55-7,9.18-4.9,42,20.58,42,20.58Z" transform="translate(-385.3 -350.34)"/><path class="cls-5" d="M467.72,647.75s3.25-7.93,3.21-8.22-.19-1.67-.19-1.67l-8.28-3.73-.38-1.29.86-1.49s11.33,3.76,11.57,4.54,1,1.49.77,2.92S471,650.33,471,650.33l-3.58-1.05Z" transform="translate(-385.3 -350.34)"/><polygon class="cls-5" points="50.12 273.01 55.8 275.56 55.76 273.25 54.89 271.79 51.64 271.32 50.12 273.01"/><path class="cls-6" d="M462.69,631s12,3.43,12.54,6.41-4.49,13.67-4.49,13.67l7.68,2.72,6.47-12.43s1.17-5.29.26-7.49-6.13-4.31-6.13-4.31-2.54.43-2.81.38-4-2.3-4-2.3a19,19,0,0,0-2.68-2.15c-.33,0-3.78-.71-3.78-.71l-1.29,1.81Z" transform="translate(-385.3 -350.34)"/><path class="cls-6" d="M441.44,622.59l-4.26-2-4.78,11.44-7-3.51-1-.65s8.64-14.81,9-14.65,3.89-.74,4.55-.69,5.93,1.85,5.93,1.85-2.51,5.17-2.51,5.94S441.44,622.59,441.44,622.59Z" transform="translate(-385.3 -350.34)"/><path class="cls-7" d="M478.42,630s7.07.49,6.62,6.68-7.84,17.54-7.84,17.54l1.22.7s5.47-8.54,7.64-15.74-5.08-9.89-6.63-10Z" transform="translate(-385.3 -350.34)"/><path class="cls-7" d="M462.86,631.69s11.66,3.5,12.11,5.92-4.91,13.45-4.91,13.45l1.21.51s4-9,4.78-12.23-1.72-4.53-3.76-5.36-9.18-3.36-9.18-3.36Z" transform="translate(-385.3 -350.34)"/><path class="cls-7" d="M440.79,621.54S438,619.83,437,620s-5.48,11.54-5.48,11.54l-6.06-3s6.44-14.59,10.26-15.29,7.21,2.24,7.21,2.24l1.34-.91s-6.25-4-9.41-2.48-11,16.32-11,16.32l8.35,5s4.4-11.74,5.23-11.55a29.31,29.31,0,0,1,3.63,1.72Z" transform="translate(-385.3 -350.34)"/><path class="cls-7" d="M488,660.43l-50-23.58-22.57-12a5.31,5.31,0,0,0-5.48-.39c-2.8,1.6-21,39-21,39s-3.51,5.8.7,9.63,67.06,38.62,67.06,38.62,7.48,5.46,11.38,1.84,22.53-44.81,22.53-44.81l1.53,3-20.66,40s-2.93,8-11.6,4.34-55.58-31-55.58-31L388.47,675s-5.86-4.08-1.65-12.11,20-37.86,20-37.86,1.6-7,11.86-.89,65.39,32,65.39,32,10.84,2.81,9.95,8.67a51.68,51.68,0,0,1-1.91,6.9l-1.53-3s2-4,1.33-5.64S488,660.43,488,660.43Z" transform="translate(-385.3 -350.34)"/><polygon class="cls-7" points="8.15 301.24 93.13 347.93 93.13 346.11 8.15 300.31 8.15 301.24"/><rect class="cls-7" x="395.98" y="649.46" width="0.77" height="1.53" transform="translate(-749.49 337.98) rotate(-61.5)"/><path class="cls-7" d="M474.89,693.3l-2.6-1.41.36-.67,2.6,1.41Zm-5.2-2.82-2.6-1.42.36-.67,2.6,1.41Zm-5.21-2.83-2.6-1.41.37-.67,2.6,1.41Zm-5.2-2.82-2.6-1.41.37-.68,2.6,1.41Zm-5.2-2.83-2.6-1.41.36-.67,2.61,1.41Zm-5.2-2.82-2.6-1.41.36-.68,2.6,1.42Zm-5.2-2.83-2.61-1.41.37-.67,2.6,1.41Zm-5.21-2.82-2.6-1.41.37-.68,2.6,1.42Zm-5.2-2.83-2.6-1.41.37-.67,2.6,1.41Zm-5.2-2.82-2.6-1.41.36-.68,2.6,1.42Zm-5.2-2.83-2.6-1.41.36-.67,2.6,1.41Zm-5.2-2.82-2.61-1.41.37-.68,2.6,1.42Zm-5.21-2.83-2.6-1.41.37-.67,2.6,1.41Zm-5.2-2.82-2.6-1.41.37-.67,2.6,1.41Zm-5.2-2.83-2.6-1.41.36-.67,2.6,1.41Z" transform="translate(-385.3 -350.34)"/><rect class="cls-7" x="477.96" y="693.98" width="0.76" height="1.53" transform="translate(-745.74 433.39) rotate(-61.51)"/><path class="cls-7" d="M468.19,648.65s4.8-9.57,3.37-10.62-9.28-4.61-9.28-4.61l-.66.93,7.92,3.68a1.67,1.67,0,0,1,.82,2.1c-.38,1.63-3.64,8.18-3.64,8.18S467.88,649.28,468.19,648.65Z" transform="translate(-385.3 -350.34)"/><path class="cls-7" d="M441.44,625.74c-.33.16-5.51-2.39-5.51-2.39l-.51.53L442,627Z" transform="translate(-385.3 -350.34)"/><path class="cls-8" d="M400.44,660.61l1.8,1-.33.62-1.08-.59-.15.28,1,.54-.3.56-1-.55-.38.71-.72-.39Z" transform="translate(-385.3 -350.34)"/><path class="cls-8" d="M402,662.85h0a1.29,1.29,0,0,1,1.78-.48,1.27,1.27,0,0,1,.56,1.74h0a1.29,1.29,0,0,1-1.78.49A1.27,1.27,0,0,1,402,662.85Zm1.61.87h0a.53.53,0,0,0-.19-.72.5.5,0,0,0-.7.24h0a.54.54,0,0,0,.19.73A.51.51,0,0,0,403.61,663.72Z" transform="translate(-385.3 -350.34)"/><path class="cls-8" d="M405.34,663.26l.67.36.25,1.36.51-1,.71.39-1.16,2.14-.63-.34-.27-1.42-.53,1-.71-.39Z" transform="translate(-385.3 -350.34)"/><path class="cls-8" d="M408.7,665.06l.72.38-.27,2.65-.78-.42.05-.35-.75-.41-.27.23-.77-.41Zm-.19,1.66.09-.63-.48.41Z" transform="translate(-385.3 -350.34)"/><path class="cls-8" d="M410.62,666.11l1.8,1-.33.61-1.08-.58-.15.28,1,.54-.3.55-1-.54-.38.7-.72-.38Z" transform="translate(-385.3 -350.34)"/><path class="cls-8" d="M412.81,667.29l1.83,1-.32.59-1.13-.61-.11.22,1,.57-.27.51L412.8,669l-.13.23,1.14.62-.32.58-1.84-1Z" transform="translate(-385.3 -350.34)"/><path class="cls-9" d="M401,660.33a.31.31,0,0,1-.12-.42h0a.3.3,0,0,1,.42-.12.34.34,0,0,1,.17.19l-.12,0a.26.26,0,0,0-.11-.14.19.19,0,0,0-.24.09h0a.18.18,0,0,0,.06.25.27.27,0,0,0,.18,0l0,.11A.32.32,0,0,1,401,660.33Z" transform="translate(-385.3 -350.34)"/><path class="cls-9" d="M402.35,661.08a.31.31,0,0,1-.13-.42h0a.32.32,0,0,1,.56.3h0A.31.31,0,0,1,402.35,661.08Zm.31-.19a.19.19,0,0,0-.07-.25.18.18,0,0,0-.25.08h0a.18.18,0,0,0,.07.25.19.19,0,0,0,.25-.08Z" transform="translate(-385.3 -350.34)"/><path class="cls-9" d="M403.88,661.89l0-.23-.09,0-.09.16-.12-.06.28-.53.25.13a.21.21,0,0,1,.1.29h0a.19.19,0,0,1-.2.1l0,.26Zm.19-.34s0-.1-.05-.13l-.12-.06-.08.15.12.07a.09.09,0,0,0,.13,0Z" transform="translate(-385.3 -350.34)"/><path class="cls-9" d="M405.22,662.41l-.09,0-.09.16-.11-.06.28-.53.22.12a.21.21,0,0,1,.1.29h0A.22.22,0,0,1,405.22,662.41Zm.19-.13s0-.1-.05-.13l-.09,0-.09.16.09,0c.06,0,.12,0,.14,0Z" transform="translate(-385.3 -350.34)"/><path class="cls-9" d="M406.5,663.32a.31.31,0,0,1-.13-.42h0a.32.32,0,0,1,.56.3h0A.31.31,0,0,1,406.5,663.32Zm.31-.18a.19.19,0,0,0-.07-.26.18.18,0,0,0-.25.08h0a.19.19,0,0,0,.07.26.19.19,0,0,0,.25-.08Z" transform="translate(-385.3 -350.34)"/><path class="cls-9" d="M408,664.14l0-.23-.09,0-.09.17-.12-.07.29-.52.24.13a.19.19,0,0,1,.1.28h0a.19.19,0,0,1-.2.1l0,.26Zm.19-.35s0-.09-.05-.12l-.11-.07-.09.16.12.06c.06,0,.11,0,.13,0Z" transform="translate(-385.3 -350.34)"/><path class="cls-9" d="M409.47,664.91l0-.14-.23-.12-.11.09-.12-.06.52-.41.1.06-.06.65Zm0-.47-.16.13.14.07Z" transform="translate(-385.3 -350.34)"/><path class="cls-9" d="M410.74,665.61a.3.3,0,0,1-.13-.42h0a.31.31,0,0,1,.43-.12.32.32,0,0,1,.16.19l-.12,0a.24.24,0,0,0-.1-.14.18.18,0,0,0-.24.08h0a.17.17,0,0,0,.06.24.21.21,0,0,0,.17,0l0,.11A.3.3,0,0,1,410.74,665.61Z" transform="translate(-385.3 -350.34)"/><path class="cls-9" d="M411.88,666.21l.28-.52.12.06-.29.53Z" transform="translate(-385.3 -350.34)"/><path class="cls-9" d="M413.2,666.94a.3.3,0,0,1-.13-.42h0a.31.31,0,0,1,.42-.13.31.31,0,0,1,.14.43h0A.31.31,0,0,1,413.2,666.94Zm.3-.19a.18.18,0,1,0-.31-.17h0a.17.17,0,0,0,.07.25.17.17,0,0,0,.24-.08Zm0-.41.16-.09.07.1-.14,0Z" transform="translate(-385.3 -350.34)"/><path class="cls-9" d="M414.78,667.78l-.08-.47-.18.33-.11-.06.28-.53.11.06.07.46.18-.33.11.07-.28.52Z" transform="translate(-385.3 -350.34)"/><path class="cls-10" d="M398.38,660.54l-.58-2.83a.63.63,0,0,0-.31-.42h0a.63.63,0,0,0-.52,0l-2.69,1.07.23.76,1.59-.41a.74.74,0,0,1,1,.55l.53,1.55Z" transform="translate(-385.3 -350.34)"/><path class="cls-11" d="M396.88,661c-.29-1-.35-1.39-.57-1.52h0c-.23-.11-.63.08-1.59.37l.22.75.73-.12a.13.13,0,0,1,.09,0h0a.22.22,0,0,1,.06.07l.3.67Z" transform="translate(-385.3 -350.34)"/><ellipse class="cls-12" cx="151.29" cy="376.95" rx="70.08" ry="4.91"/><path class="cls-13" d="M462.37,599s10,2.17,10.21,2.33,5.51,3.63,5.51,3.63l1.89,1.63s-.06.19-.37.23-4.06-.21-4.06-.21l-10.14-5.07s-.79-.22-.91-.28-2.83-2.27-2.83-2.27Z" transform="translate(-385.3 -350.34)"/><path class="cls-14" d="M519.62,527.88s-.11-2-4.15-1.78a27.6,27.6,0,0,0-7.72,1.67s-7.18,3.6-10.82,7.85-6.92,9-6.92,9L481.17,559l-8.05,12.76-4.28,9.81-3.61,8.83,16.37,5.27,3.2.76,4.44-9.27,5.06-9.65s3.53-6,5.29-7,5-5.3,5-5.3l1.93-1-.21,15.41-2.86,27.53s-.49,8.62.63,13.5l1.12,4.88s37.66,2.63,37,2.62,23-1.95,23-1.95l2.08-7.71.08-8.65.08-8.11L566,577.41l.15-15.6,2.28.81,14.62,11.24,5.71,7.72s7.09,4.63,9.77,2.72,7.5-5.13,7.5-5.13,19.67-20,19.76-20.25,3.71-6.11,3.71-6.11l-18.38-15L595.29,553l-17.84-15.76s-11.25-12.71-21.25-10.73l-10,2Z" transform="translate(-385.3 -350.34)"/><path class="cls-3" d="M525.63,522.59s-5.88,2.07-6.89,4.46-1.78,4-1.78,4,0,5,.78,6.39a20.28,20.28,0,0,0,2.91,3.54l6.78,2.83,9.6-8.56,2.16,1.25,5.81,6.6,7-5.57s3-2,2.74-4.31a52.12,52.12,0,0,0-1.84-6.92,39,39,0,0,0-4.56-2l-1.57-.22L537,528.21c-.09,0-5.2-2.09-5.2-2.09Z" transform="translate(-385.3 -350.34)"/><path class="cls-15" d="M593.92,426.4s10-.15,11.39,9.31-.86,11.85-.86,11.85a47,47,0,0,1-3.34,4.46c-.31.06-2.93,1.69-2.93,1.69l-5,.47-3.31-.26-.44,2.53s1.21,10.94.11,15.28-4.42,13.82-4.42,13.82l-6,9.95s-7.4,9.36-14.08,11.61-8.48,3.34-8.48,3.34l-10,2.21.2,6.23s-.2,7.25,0,7.44.77,3.08.28,3-7.36,4.36-7.36,4.36L537,535.21l-7.69-3.2-3.89-2.71s.52-16.06.15-15.9-12-3.16-12.47-3.17-9.15-4.18-9.15-4.18-8-5.35-12-13.47-4.14-9.68-4.14-9.68l-2.12-12.57.6-11.68.24-4.78s-8.37,2.95-10.63,2.21-5.7-4.47-5.7-4.47-3.48-9.26-3.1-13.52.74-7.06,6.23-9a93.94,93.94,0,0,1,9-2.78s4-16.12,4-16.31,7.93-29.76,7.93-29.76l8.43-5.21,46-4,33.87,6.41,4.67,2.15.44,22.63L591.42,425Z" transform="translate(-385.3 -350.34)"/><path class="cls-16" d="M594.78,426.15l2.6-8.84L599.85,406l.08-9.54-.68-7.37-3.57-7.86-4.47-4.94-4.37-2.67S580.42,363,574.45,359.8s-6.72-5.06-11.51-5.89a38.78,38.78,0,0,1-5.88-1.27L547.45,351l-16.69-.16s-9,2.06-10.13,2.42S510,357.8,510,357.8l-6.61,5-3.1,3L498.83,367s-9.7,5.17-11.4,7.54-6.43,9.33-6.43,9.33-3.94,8.33-4,11.12-.78,15.47-.78,15.47l1.69,12.79.63,4.52s5.52.38,6.12.76,3.28,2.73,3.28,2.73l1,2.95.69,4.94.6.85a4.75,4.75,0,0,0,2.25-1.56c.68-1.07.89-5.9.89-5.9l-.93-9.81L490.07,411l-.82-5.14s-.61-6.16.67-8.89,5.59-9.18,5.59-9.18l2.49-2.4,3.41-3.14.95-4.74s10.95,5.37,13.09,5.62,8.53.17,8.53.17l6.59-1.15,5.93-1.5,8.08-5s4.57,7.86,13.94,7.62,11.75-.68,11.75-.68l12.84-2.86,1-.18s-3.74,8.08-3.6,11.58a36.92,36.92,0,0,0,.24,3.81l.47,4.48S584,411.81,584.06,413s-.57,6.9-.57,6.9l-2,7.9-2,6.46s-.29,1.65.87,1,2-3.33,2.68-3.86,3.53-2.88,3.53-2.88,3.62-1.24,3.84-1.24,2.87-.41,3.14-.35S594.78,426.15,594.78,426.15Z" transform="translate(-385.3 -350.34)"/><path class="cls-17" d="M501.91,376s11.27,9.38,34.6.27c0,0,7.52-6.86,12.83-3.59s7.75,8.63,20.07,6.88,14.69-.06,14.69-.06-13.23,3.56-22.67,3.53-11.54-2.65-11.54-2.65-4.93-3.08-5.26-4l-1.36.06s-10.68,6.79-17.21,7-6.77-.06-6.77-.06-9.35-1.47-12.56-3.76S501.91,376,501.91,376Z" transform="translate(-385.3 -350.34)"/><path class="cls-3" d="M465.61,589.86l8,2.59s5.91.85,8,2a22.66,22.66,0,0,0,3,1.49l.34.89-4.7,9.21-6.14-3.39s-4.87-2.24-4.94-2.24-6.42-1.83-6.49-1.83,0-2.82,0-2.82Z" transform="translate(-385.3 -350.34)"/><ellipse class="cls-18" cx="478.72" cy="599.31" rx="1.89" ry="2.02" transform="translate(-510.33 722.08) rotate(-89.47)"/><polygon class="cls-3" points="226.58 187.96 244.21 203.91 250.85 196.08 235.92 182.06 234.31 180.01 226.58 187.96"/><circle class="cls-18" cx="243.65" cy="196.18" r="1.67"/><path class="cls-19" d="M550.66,722.43l.68,2.81s1.27,1.44,2,1.49,4.57-.1,4.57-.1l12.74.27,8.08-.52s6.38-2.2,6.82-2.52a14.86,14.86,0,0,0,2.36-3c0-.32.17-1.14-.06-1.14s-26.29,2.55-26.45,2.62S550.66,722.43,550.66,722.43Z" transform="translate(-385.3 -350.34)"/><path class="cls-19" d="M483,723.79s1.72,3,3.23,3.39,3,.77,3,.77l5.84.82,12.33.42,12.33-.56a10.27,10.27,0,0,0,2.12-.52c.22-.2,1.07-1.36,1.07-1.36L524,723l-15.39,1.37Z" transform="translate(-385.3 -350.34)"/><path class="cls-14" d="M549.69,561.07l12.17.11-.09,9.79s.2,3.21-2.13,3.24-8.95-.09-8.95-.09-1.49,0-1.52-2.11.1-11,.1-11Z" transform="translate(-385.3 -350.34)"/><polygon class="cls-14" points="143.55 227.92 157.35 228.05 157.59 246.21 143.3 246.16 143.55 227.92"/><path class="cls-13" d="M620.4,530.13l3.81.56s8.24,6.32,8.33,6.6,2.51,3.72,2.82,3.73,1.4,3.3,1.4,3.3.15.54,0,.54a8.88,8.88,0,0,0-1.06.23l-11.93-11.33-3.38-2.67-.61-1.06Z" transform="translate(-385.3 -350.34)"/><path class="cls-20" d="M534.3,572.73s-1.36.42-1.28.82.37,2.64.37,2.64a6.6,6.6,0,0,1,.18,1.95c-.15.35-.21,2,.66,2.06a8,8,0,0,0,1.46,0c.32-.07,2.16-.06,2.16-.06l.13-1.46-.19-4s.17-1.19-.15-1.33a8.1,8.1,0,0,0-1.27-.31l-1,1.24Z" transform="translate(-385.3 -350.34)"/><path class="cls-7" d="M521.61,707.93l1.52.58L523,720.19s-.33,2.35-.79,2.72a35.75,35.75,0,0,1-4.51,2c-.31.06-10.81-.1-10.81-.1l-14.67-.11s-10.18-1-10-3.54.05-5.41,1.25-7.2,5.88-4.48,6.07-4.48S499.92,708,499.92,708l10.27-1.57Z" transform="translate(-385.3 -350.34)"/><path class="cls-7" d="M549.89,706.58s-.09,2.86-.31,6.33-.18,6.78.19,7.09,5.39,2.1,5.39,2.1,6.26,1.18,6.88,1.31,16.79-1.4,16.79-1.4l8.67-1.26,1-4.24a21.49,21.49,0,0,0-.77-4.73A17.73,17.73,0,0,0,584,707.1c-.62-.27-4.89-2.17-5.51-2.24s-7.79-1.06-7.79-1.06Z" transform="translate(-385.3 -350.34)"/><path class="cls-19" d="M514.61,625.45l15.42-.86s12.61,0,13,.13,10.63.58,10.63.58l11.56.8-.53,2.76,4.17,38.19,4.49,33.66-.24,3.16-2.86,1.59-17.3,2.08s-3-.59-3.29-1.09-1.7-10.27-1.7-10.27l-1-10.38-.23-15.92-2.32-10.15-2.49-8.57.27-7.54h-7.58l-3.85-.16-4.46,12.12s-4.1,13.22-4.15,18.37a47.57,47.57,0,0,0,1.3,10.5l0,14.81-.36,8.34-4.78,2-9.39.66L502,707.69,501,703l-.88-19.34.88-13.79.61-24.85,1-15.34,1.35-3.9h7.13Z" transform="translate(-385.3 -350.34)"/><polygon class="cls-21" points="143.34 246.13 156.62 246.09 156.68 257.88 150.69 263.46 142.53 258.21 143.34 246.13"/><path class="cls-21" d="M529,542.8l2,7.85.34,1L530,556.2l6.58,12.88.53-.22,3.25-4.32,2.23-4L542,558a15.25,15.25,0,0,0-.25-3c-.23-.47-1.85-4-1.85-4a52.56,52.56,0,0,0,2.54-4.69c0-.46,1.28-4.66,1.28-4.66L537.53,535,537,535l-8.08,7.8Z" transform="translate(-385.3 -350.34)"/><path class="cls-21" d="M529.2,563.28l4.82,9.45s-1.09.59-1.09,1a13.83,13.83,0,0,0,.28,1.8l.29,1.91-.21.83-4.41,0Z" transform="translate(-385.3 -350.34)"/><path class="cls-22" d="M536.83,573l3.65-4.53,2-2.73v12.86l-4.87-.4.16-3.72s.1-1-.2-1a4.48,4.48,0,0,1-.91-.26Z" transform="translate(-385.3 -350.34)"/><path class="cls-23" d="M516.54,491.31s9.05-6.94,14.37-7.85,6.78-1,6.78-1,6.78,1.33,9.49,2.68,7.05,2.89,7.15,3,1.67,2.56,1.74,2.61.69,1.27.69,1.27-4.81,4-5.68,4.42-11,2.29-11,2.29-8.29-.73-8.57-.64-7-1.74-7-1.74l-7.16-3.28Z" transform="translate(-385.3 -350.34)"/><path class="cls-24" d="M558.1,476.45l6.35-1.5a37.23,37.23,0,0,1-1,5.36c-.58,1.62-2.58,6.88-2.58,6.88l-3.58,5.09s-4.33-4-5.19-4.18-7.6-4.62-11.43-4.55l-4,.08-.65-.28a28.11,28.11,0,0,0-11,2.79l-5.4,2.71L516.42,491s-3.95-6.17-4.49-7.85A51.6,51.6,0,0,1,510.4,474c0-1.43.63-1.49.63-1.49l42.32,3.69Z" transform="translate(-385.3 -350.34)"/><path class="cls-14" d="M564.45,475l0-2.24s-.3-3.82-.48-4.48-.51-1.77-1-1.81-3.8.37-3.8.37l-4.64,1.6s-8.68,1.54-12,1.63a76.21,76.21,0,0,1-7.86-.35l-7.84-1.47s-9.44-3-9.58-3.14a4.18,4.18,0,0,0-3-.28,5.13,5.13,0,0,0-2,1.36c0,.18-1.52,6.54-1.52,6.54l.74.84,6.29,2.11,11.38,2.53,3,.15s11.39.56,15.5.58a43.72,43.72,0,0,0,9.75-1.55l5.13-1.69Z" transform="translate(-385.3 -350.34)"/><rect class="cls-25" x="531.35" y="581.4" width="7.57" height="7.92" transform="translate(-379.81 -355.3) rotate(0.53)"/><path class="cls-7" d="M502.2,376.63s0,6.15-3.76,8-12.13,11.58-9.56,22.36,6.5,29.51,1.74,32.58c0,0-.87.55-.77-3.86s-3.39-9.17-10.48-8.3c0,0-13.06-46.42,20.38-60.4l.54-1.24a28.07,28.07,0,0,0-13.69,9.07,46.1,46.1,0,0,0-9.74,19.33,68.09,68.09,0,0,0-.82,18.87,141,141,0,0,0,2.51,15.12s6.39,0,7.81,2.08,2.12,2.77,2.42,5.47.32,5.93,2.19,5,3.5-5.75,3-11.67-3.54-20.17-3.54-20.17-2.05-10.22,1.63-15.69c0,0,2.85-5.15,5.94-6.89a8.92,8.92,0,0,0,4.44-6.06,10.43,10.43,0,0,0,.54-2.93Z" transform="translate(-385.3 -350.34)"/><path class="cls-7" d="M549.51,375.46s2.86,6.86,14.62,5.1C564.13,380.56,553.25,381.46,549.51,375.46Z" transform="translate(-385.3 -350.34)"/><path class="cls-7" d="M593.16,386.3s4.65,8.56,1.3,21.14C594.46,407.44,598.52,398,593.16,386.3Z" transform="translate(-385.3 -350.34)"/><path class="cls-7" d="M592.38,390.4s1.18,6.91.64,11.44A25,25,0,0,0,592.38,390.4Z" transform="translate(-385.3 -350.34)"/><path class="cls-7" d="M479.49,428.21s-11.2.8-11.64,7.88S469.1,455.8,479.29,455s9.84-8,9.84-8,.76-2,1.05.75-3.75,9-12.33,8.59-10.79-8.47-11.16-15.63,1.9-10.43,6.95-12.25,5.23-1.32,5.23-1.32Z" transform="translate(-385.3 -350.34)"/><path class="cls-7" d="M488.09,451.51s-15.81,62.68,49.82,61.55v1.68s-21,.61-33.24-7.65a41.64,41.64,0,0,1-17.61-24.45c-1.37-5.49-3.8-20.3-.88-29.1Z" transform="translate(-385.3 -350.34)"/><path class="cls-7" d="M593.11,427.63s9.44-1.28,11.82,9.55-5.9,19.21-16.61,15.7l0,1.49s13,3.79,17-7.49-2.25-20.4-10.51-20.73l-1.32,1.17Z" transform="translate(-385.3 -350.34)"/><path class="cls-7" d="M588.31,453.62s9.43,55.15-50.4,59.44l-.78,1,.46.72s25.11-.84,37.92-14.33c0,0,10.06-6.93,13.84-25.41,0,0,3-10.79,1.07-21Z" transform="translate(-385.3 -350.34)"/><path class="cls-7" d="M532,505s5.39,2.28,9.7-.66C541.72,504.33,538.38,509.52,532,505Z" transform="translate(-385.3 -350.34)"/><path class="cls-7" d="M527.58,458.94s-.8-8.07,10.07-8c0,0,8.27-.06,8.43,8.15,0,0,.4,1.26,1,0s-1.18-9-9.34-8.94-10.6,3-11,8.66C526.74,458.84,526.82,459.87,527.58,458.94Z" transform="translate(-385.3 -350.34)"/><path class="cls-7" d="M525.21,512.94s.34,13.15-.16,16.59c0,0,2.85,4.59,12.58,5.85,0,0,9.16-3.13,9.9-7.36,0,0-.53-13.2-.33-14.88h-1.53l.56,14.36a39.19,39.19,0,0,1-8.92,6.63c-.28.14-10.32-2.57-11.18-5.28,0,0,.69-13.88.47-15.1A1,1,0,0,0,525.21,512.94Z" transform="translate(-385.3 -350.34)"/><path class="cls-7" d="M536.33,524.74s4.13-2.62,1.22-5.49c0,0,0-.84.6-.22s2.31,3.79-1.47,6.13C536.68,525.16,535.93,525,536.33,524.74Z" transform="translate(-385.3 -350.34)"/><path class="cls-7" d="M465.23,590.37a80.44,80.44,0,0,0,10.91,3,26.71,26.71,0,0,1,8.48,3.31l.63-1.05a32.17,32.17,0,0,0-9-3.25,69.1,69.1,0,0,1-10.6-3Z" transform="translate(-385.3 -350.34)"/><path class="cls-7" d="M504.54,552.89s2.37,12.76.77,24.43-3.42,27-3.36,33.84a96.39,96.39,0,0,0,2,15.93l2.3,0s-3.53-15.32-2-23.26,3-25.11,3.28-31.37-.55-14.69-1.33-17.17S504.63,550.9,504.54,552.89Z" transform="translate(-385.3 -350.34)"/><path class="cls-7" d="M504,627.09a115.87,115.87,0,0,0,19.39-.82c9.46-1.34,25.23.49,29.27.28s13.17.36,13.17.36a63.68,63.68,0,0,0,2.52-23.27c-1.13-12.38-1.7-31.53-1.64-37.86s.25-13.67.25-13.67-.47-2.69-1.37.88-.37,19.91-.35,23.89S566.86,601.63,567,604a57.66,57.66,0,0,1-.22,10.19c-.54,4.16-2.09,10.54-2.09,10.54a103.32,103.32,0,0,1-13.17.06c-5.1-.48-12.86-.61-19.08-.61s-16.85.9-20.08,1.18a67.64,67.64,0,0,1-7.58.06Z" transform="translate(-385.3 -350.34)"/><path class="cls-7" d="M504.26,626.45s-2,17.43-2.17,29.27-.63,14.91-.82,24.88,1.43,26.2,1.43,26.2,2.59,2.64,8.18,2.69,10.73-.55,11.31-3,.11-22-.67-27.78,1.94-18.72,4.32-23.92a75.05,75.05,0,0,0,3.93-11.62l1.68-.26s-2.66,10-4.41,13.34-4.57,14.68-4.43,19.62,1.23,8.82,1.37,18.43-.21,12.21-.21,12.21,1,2.61-5.11,4.14-12.46,1.14-15.19-1.16-2.4-2.31-2.79-5.86-1.28-17.72-1.19-22.43.74-29,.74-29,1.76-23.14,2.24-24.63,1.06-4.47,1.06-4.47Z" transform="translate(-385.3 -350.34)"/><path class="cls-7" d="M526.48,640.89s7,4,19.21,0c0,0,1.29.81-.25,1.63s-4.54,2-10.69,1.77-9-1.83-9-1.83S524.25,640.64,526.48,640.89Z" transform="translate(-385.3 -350.34)"/><path class="cls-7" d="M543.3,642.31s.26,11.6,1.44,14.78a60.94,60.94,0,0,1,3,17.94c-.07,6.59.32,25.11,1.9,29.29,0,0,.41,2.31,2.46,2.45s16.23-1.09,19.17-3.18c0,0,.25-.31,1.3.2,0,0,.45-1.36-1.16-8.83s-2.79-26.69-3.75-30.37-2.68-26-2.83-30.16-.3-8.21-.3-8.21l1.54-.29,1.17,17.22,2.17,20.59,2.75,24.39L574,700.94s.65,3.8-.85,4.28-4.42,1-6.35,1.44-10,1.52-13,1.93-4.91.57-5.8-3.91a127.21,127.21,0,0,1-1.92-21.21c.18-5.84-.05-14.85-1.07-18.78a112.85,112.85,0,0,1-3-12.45,53.24,53.24,0,0,1-.47-9.27Z" transform="translate(-385.3 -350.34)"/><path class="cls-7" d="M566.19,559.81s13.34,8.88,19.06,15.52,7.67,10.2,14.4,7.84,26.6-26.41,28.48-28.69l7.17-8.63s-13-10.19-15.9-14.76c0,0-7.16,8-12.36,13.06s-11.35,10.46-11.35,10.46l-1.35-1.13s14.48-13.54,16.8-15.69,7.91-8.5,7.91-8.5,15.52,14.93,18.18,16c0,0,.42,1.25-2.78,4.76s-18.28,21-18.28,21-13.06,14.54-18.41,14.93-9.22-3.63-11.8-6.76a125.12,125.12,0,0,0-10.78-10.66c-1.48-1.2-9-6-9-6Z" transform="translate(-385.3 -350.34)"/><path class="cls-7" d="M553.68,528.12a17,17,0,0,1,14.66,3.07c6.75,5.47,27.5,24.64,29.45,25.59s.8-1.07-.91-2.95-25-22.37-28.16-24.08-9.5-5.4-15.77-3.08Z" transform="translate(-385.3 -350.34)"/><polygon class="cls-7" points="145.8 201.28 144.34 205.04 144.96 206.04 146.82 201.29 145.8 201.28"/><path class="cls-7" d="M538.14,555.38l-2.36,8.55A30.16,30.16,0,0,0,538.14,555.38Z" transform="translate(-385.3 -350.34)"/><path class="cls-7" d="M539.42,558.29,538.28,562A6.73,6.73,0,0,0,539.42,558.29Z" transform="translate(-385.3 -350.34)"/><path class="cls-7" d="M502.24,707.17s-17.25,0-20.21,7.18.09,11.09,9.5,11.65,32.23,2.16,32.94-4.26-.7-15.2-.7-15.2l-1.41,2s1.74,12.67-1,13.86-35.17,3-37.47-.72-.56-9.51,4.11-10.26,11.58-2.93,15.44-1.86S502.24,707.17,502.24,707.17Z" transform="translate(-385.3 -350.34)"/><path class="cls-7" d="M548.61,706.77s-2,14.52,2.79,16.34S586,725.67,589.28,719s-4.88-16.45-15.79-15.52l-1.79,1.84s12-.07,14.39,5.83,2.26,7.66-3.72,9.56-28,1.7-29.93.19-2.77-6.8-2.36-9.53a15,15,0,0,1,1.09-4.09Z" transform="translate(-385.3 -350.34)"/><polygon class="cls-7" points="184.37 354.01 188.01 352.09 187.32 353.45 184.37 354.01"/><path class="cls-7" d="M481.28,721.1A11.75,11.75,0,0,0,485,727c2.78,2.08,15.5,2.25,15.5,2.25s18.46.26,20.75-.51,3.23-7,3.23-7l-.8.45s-.74,5.17-2.52,5.81-12.45.53-12.45.53-12.77-.26-15.1-.42-7.26-.34-8.64-2.17a46.38,46.38,0,0,1-3-4.41C481.92,721.34,481.28,721.1,481.28,721.1Z" transform="translate(-385.3 -350.34)"/><path class="cls-7" d="M549.51,720.9s1.29,5.82,3.11,6.09,22.08.93,29.1-1.29,7.95-7.67,7.95-7.67l-1,1s-2.75,5.25-7.94,6.25a113.83,113.83,0,0,1-13.76,1.31l-12.3-.28s-2.33,0-2.74-1-1.83-4.2-1.83-4.2Z" transform="translate(-385.3 -350.34)"/><path class="cls-7" d="M619.05,529.29a23.31,23.31,0,0,1,5.57,1.13l-.26,1s-5.34-1.37-5.32-1.32S619.05,529.29,619.05,529.29Z" transform="translate(-385.3 -350.34)"/><path class="cls-7" d="M637.25,545.49s-.73-4.48-1.51-4.91-.62.65-.62.65l1,2.43.31,1.82Z" transform="translate(-385.3 -350.34)"/><path class="cls-7" d="M611.28,538.82s14.41,14.58,18.22,15.73v-.93l-17.63-15.33Z" transform="translate(-385.3 -350.34)"/><path class="cls-7" d="M476.36,433.16s-6.17,11.82,3.48,16.48c0,0,1.63.58,1.36-.4s-5.56-3.52-5.8-8.26a12.38,12.38,0,0,1,1.61-7.35S477.53,432.38,476.36,433.16Z" transform="translate(-385.3 -350.34)"/><path class="cls-7" d="M475.93,443.87s2.72-5.89,3.55-5.32-3,5.85-3,5.85Z" transform="translate(-385.3 -350.34)"/><path class="cls-7" d="M598.3,431.78s5.94,12.64-3.79,16.55c0,0-1.12,0,.67-1.57s4.51-3.64,3.89-7.8a37.38,37.38,0,0,0-1.53-6.68S597.6,431.4,598.3,431.78Z" transform="translate(-385.3 -350.34)"/><path class="cls-7" d="M599.53,440.32s-2.74-2-3.48-1.67,3.23,2.78,3.23,2.78Z" transform="translate(-385.3 -350.34)"/><path class="cls-7" d="M556.29,574.35c-2.64,0-5.56-.07-5.6-.07s-1.86,0-1.89-2.48c0-2.08.1-10.87.1-11v-.37l13.33.12-.1,10.16a4.49,4.49,0,0,1-.85,2.92,2.19,2.19,0,0,1-1.65.69C558.87,574.37,557.61,574.37,556.29,574.35Zm-6.65-13.13c0,1.7-.12,8.75-.09,10.57,0,1.66,1,1.74,1.15,1.74s6.64.11,8.94.09a1.47,1.47,0,0,0,1.1-.46,3.74,3.74,0,0,0,.66-2.39l.08-9.44Z" transform="translate(-385.3 -350.34)"/><rect class="cls-7" x="555.06" y="558.47" width="0.75" height="12.42" transform="translate(-399.7 764.47) rotate(-89.47)"/><polygon class="cls-7" points="156.8 216 156.72 227.88 157.48 227.69 157.55 214.85 156.8 216"/><rect class="cls-7" x="530.37" y="619.08" width="10.34" height="0.79" transform="translate(-474.2 798.87) rotate(-89.47)"/><path class="cls-7" d="M560.05,604.9s-1.31,10.89-8.51,13.34C551.54,618.24,559.66,616.82,560.05,604.9Z" transform="translate(-385.3 -350.34)"/><path class="cls-7" d="M629,548.83a2.21,2.21,0,1,1,2.23-2.19A2.21,2.21,0,0,1,629,548.83Zm0-3.67a1.47,1.47,0,1,0,1.45,1.47A1.46,1.46,0,0,0,629,545.16Z" transform="translate(-385.3 -350.34)"/><path class="cls-7" d="M478.66,601.62a2.47,2.47,0,1,1,2.49-2.45A2.48,2.48,0,0,1,478.66,601.62Zm0-4.19a1.72,1.72,0,1,0,1.7,1.74A1.72,1.72,0,0,0,478.7,597.43Z" transform="translate(-385.3 -350.34)"/><path class="cls-7" d="M461.3,599.16s2.69,2.68,4.1,3v-.65L461.67,599Z" transform="translate(-385.3 -350.34)"/><path class="cls-7" d="M475,606.83s5.31.91,5.63.21l-.29-.65a44.9,44.9,0,0,1-4.75,0C475.29,606.17,475,606.83,475,606.83Z" transform="translate(-385.3 -350.34)"/><path class="cls-7" d="M558.36,617.4a8.13,8.13,0,0,0,3.25-6.37S561.7,615.88,558.36,617.4Z" transform="translate(-385.3 -350.34)"/><path class="cls-7" d="M509.7,413.68s9.06-5.7,17.86-2.82l1.92-6.69s-12.88-4.1-22.14,2.46Z" transform="translate(-385.3 -350.34)"/><path class="cls-7" d="M564.56,414.19s-8.95-5.87-17.8-3.15l-1.8-6.73s13-3.86,22.09,2.88Z" transform="translate(-385.3 -350.34)"/><ellipse class="cls-7" cx="521.3" cy="432.77" rx="14.26" ry="9.04" transform="translate(-413.58 478.66) rotate(-75.49)"/><ellipse class="cls-14" cx="523.33" cy="427.48" rx="6.74" ry="4.27" transform="translate(-406.95 476.65) rotate(-75.49)"/><ellipse class="cls-7" cx="554.68" cy="433.08" rx="9.04" ry="14.26" transform="translate(-470.78 -209.52) rotate(-13.44)"/><ellipse class="cls-14" cx="552.75" cy="427.75" rx="4.27" ry="6.74" transform="translate(-469.59 -210.11) rotate(-13.44)"/><path class="cls-7" d="M516,465.38s23.39,10.09,44.84,2.34c0,0,1.76-1.66,2.8.15s2.83,29.42-24.12,30.29-29.37-20-28.51-24.63,2-8.74,3.62-8.6l-.7-.82s-1.72.39-2.71,4.23-2,7.12-.41,12.91,3.44,13,17,16.84,26.38.08,31.67-7.82,6.4-13.06,5.77-18.59-1.74-6.55-4-5.63a56.53,56.53,0,0,1-12.89,3.23c-4.42.4-18.46.08-31.71-4.71Z" transform="translate(-385.3 -350.34)"/><path class="cls-7" d="M513.78,465.26s.51-.5,2.65.3l.85-.75s-2.65-1.29-3.68-.56Z" transform="translate(-385.3 -350.34)"/><path class="cls-7" d="M511.13,472.81s25.39,11.06,53.1,1.72v1.07s-19.42,10-54.15-2.08l.75-.71Z" transform="translate(-385.3 -350.34)"/><path class="cls-7" d="M517,491.11s11.41-9.27,23.2-7.18,15.83,8.34,15.83,8.34l1.18-.47s-9.85-9.73-21.17-8.84a38.25,38.25,0,0,0-19.32,7.4Z" transform="translate(-385.3 -350.34)"/><polygon class="cls-26" points="143.57 240.15 157.58 240.28 157.81 246.21 143.55 246.13 143.57 240.15"/><path class="cls-7" d="M501.91,376s17.49,16.19,42.38-.6c0,0,1.4.41-1.46,2.06s-23.24,14.67-40.93-.59C501.9,376.88,500.91,375.75,501.91,376Z" transform="translate(-385.3 -350.34)"/><path class="cls-7" d="M555.72,376.88a13.21,13.21,0,0,0,10.43.47S559.43,378.65,555.72,376.88Z" transform="translate(-385.3 -350.34)"/><path class="cls-17" d="M586.84,373.64s12.25,9.42,10.35,29.18-4.61,11.65-6.87,14.36-3.21,4.19-4,6.92a34.47,34.47,0,0,0-1,4.73l8.81-1.55,3.46-9.41s2.4-14.52,2.42-17.44-.14-6.28-.14-6.28-1.5-7.86-2.25-10-4.46-6.86-4.46-6.86l-4-3.08Z" transform="translate(-385.3 -350.34)"/><path class="cls-7" d="M499.75,367s13.25-14.92,33.46-15.35,39.6-.44,53.36,22.25l.71-.77a42.77,42.77,0,0,0-26.18-20.29c-18.48-4.77-39.75-2.17-47.44,2.42,0,0-10,4.67-14.28,10.76Z" transform="translate(-385.3 -350.34)"/><path class="cls-7" d="M544.58,375.61s5.84,9.24,22.21,6.84,18.8-3.92,18.8-3.92-5.15,5.79-4.44,16.42,4.7,15.83,2.68,25.26-4.29,14.31-3.68,14.88,1.92-5.7,7.65-7.33,6-1,6-1,16.91-41.16-7.21-52.82l-.18-1.15a21.91,21.91,0,0,1,13.24,17c2,13,0,25.29-4.67,37.12,0,0,.07.65-1.45.71s-6.52.36-8.66,2.55a20.67,20.67,0,0,0-3.33,4.49s-1.09,1.88-1.83,1.17.37-4.52,1-6.56,3.25-10.83,3-13.49a133.82,133.82,0,0,0-2.49-13.63,36.52,36.52,0,0,1-.91-11.47c.43-3.87,2.56-10.26,3.22-10.74,0,0-6.55,1.85-11.05,2.69s-12.11,1.64-17.55.4-10-5.2-10.77-6.53C544.22,376.49,544.09,375.64,544.58,375.61Z" transform="translate(-385.3 -350.34)"/><path class="cls-27" d="M491.84,415.56s-2.55-20.2,6.22-21.8,9.48-8.26,9.48-8.26,16.29,4.67,25.46.24,10.27-9.32,10.27-9.32-12.93,8-23.42,7-11.06-2-11.06-2l-6-3.79s-.55,6.34-4.05,7.61-7.78,8.38-8.23,9.74-2.62,9.23-1.17,12.36a13.83,13.83,0,0,1,1.23,6.15Z" transform="translate(-385.3 -350.34)"/><path class="cls-27" d="M588.3,454.37s-7.38,51.49-37.12,54.45c0,0-13.13,1.27-15.39,1.07s1.94,4.3,3.33,7.11,1.11,8.81-.09,10.36-1.72,6.76-1.72,6.76,6.35-2.16,7.44-3.5a26.37,26.37,0,0,1,2.12-2.41c.14-.09-.14-14.82-.14-14.82l12.62-3.94s14.38-7.88,17.68-12l3.3-4.11s5.92-9.55,6.93-13.41,2.31-12.7,2.31-12.7.94-6.42.95-7-.37-5.3-.37-5.3Z" transform="translate(-385.3 -350.34)"/><polygon class="cls-27" points="150.67 265.69 159.36 258.31 158.9 212.16 157.04 215.38 157.1 228.05 157.2 228.24 157.81 245.88 156.92 246.48 156.68 257.57 150.69 263.97 150.67 265.69"/><polygon class="cls-28" points="152.33 185.04 150.93 200.52 154.19 200.95 155.84 199.26 158.74 191.46 152.63 185.04 152.33 185.04"/><path class="cls-28" d="M536.2,551.89l-.77,15.41,1,1.71.78-.56,5.18-7.3s-.25-4.7-.42-5.18-2.1-4.56-2.1-4.56Z" transform="translate(-385.3 -350.34)"/><path class="cls-7" d="M539.48,551.29s1.55,4.12,2.1,5.2.4,4.7.4,4.7a2,2,0,0,0,.63-.76,16,16,0,0,0-.14-3.93c-.25-.9-2.19-5.76-2.19-5.76Z" transform="translate(-385.3 -350.34)"/><path class="cls-7" d="M528.33,543.42s1.35,6.47,3,8.54c0,0,6.58.56,8.45-.23s4.43-8.75,4.43-8.75l-.48-1.34s-2.56,8.05-3.81,8.72-7.9.49-7.9.49-2.85-7.42-3-8.05S528.33,543.42,528.33,543.42Z" transform="translate(-385.3 -350.34)"/><polygon class="cls-28" points="150.76 223.08 154.83 218.54 156.83 215.9 156.9 227.68 152.34 227.84 152.49 224.33 152.34 223 151.38 222.85 150.76 223.08"/><path class="cls-26" d="M550.53,538.33l-1.22,3.48-2.14,7.05-3.71,9.47-4.29,7.58-2.51,3-.82-.25-4.52-10.07-8.15-16.73-3.48-2.21v1.23l5.27,14,6.49,12.42,3.34,7.35,2.17-2,2.6-3.44,3.09-4,3.08-5.9,2.16-5.44,3.62-11.45,1.76-6.59a6.85,6.85,0,0,0-.94.24C552.22,536.13,550.53,538.33,550.53,538.33Z" transform="translate(-385.3 -350.34)"/><path class="cls-7" d="M523.2,541.67l13.23,27.18-1.76,6.46S520.26,548,519.35,539.69l.62.3a40.29,40.29,0,0,0,3,9.51c2.28,5,11.85,24.61,11.85,24.61l1.12-5-13.56-28Z" transform="translate(-385.3 -350.34)"/><path class="cls-7" d="M550.14,538.16s-4.69,16.92-8.85,23.87-4.86,6.82-4.86,6.82l-1.76,6.46s4.19-3.13,9.25-11.83,9.72-28,9.72-28l-.64.65-3.13,11.39-3.79,10.63a73,73,0,0,1-4.9,9,86.15,86.15,0,0,1-5.87,7l1.34-4.69s4.56-5.78,6.42-9.78,5.82-15.77,5.82-15.77l1.79-6-.5.19Z" transform="translate(-385.3 -350.34)"/><path class="cls-7" d="M533.77,572.73a1,1,0,0,0-1.07,1.15c0,1.21.67,2.48.5,3.41s-.42,3.25,1.35,3.13a8.62,8.62,0,0,1,2.33,0,.9.9,0,0,0,1.17-.83c.16-1.12-.18-5,.05-5.18s-.18-1.67-1.1-1.49-.61.4-.61.4,1.21,0,1.2.64,0,5,0,5,.06,1-.52,1-1.66,0-2,0-1.4.1-1.53-.76.25-1.8.16-2.26a18.31,18.31,0,0,1-.58-3.2,1.44,1.44,0,0,1,.85-.69c.3-.05,0-.37,0-.37Z" transform="translate(-385.3 -350.34)"/><polygon class="cls-28" points="150.46 246.22 150.69 263.46 157.07 258.28 156.44 246.09 150.46 246.22"/><polygon class="cls-7" points="147.97 228.3 143.77 228.26 143.61 245.92 157.31 245.82 157.1 228.38 152.83 228.34 152.63 227.64 157.48 227.69 157.82 246.48 143.09 246.57 143.27 227.56 148.02 227.6 147.97 228.3"/><polygon class="cls-7" points="144.19 213.54 144.06 227.83 143.26 228.13 143.49 246.22 143.38 258.21 150.56 263.13 156.33 257.9 156.44 246.09 157.19 246.1 157.07 258.28 150.55 264.43 142.42 258.64 143.41 211.91 144.19 213.54"/><polygon class="cls-27" points="163.93 214.28 176.34 214.4 176.37 210.84 163.98 210.72 163.93 214.28"/><path class="cls-27" d="M515.4,491.09s5.5,9.24,20.47,10.13,20.49-7.5,20.49-7.5-12.69,9.6-31,2.82Z" transform="translate(-385.3 -350.34)"/><path class="cls-7" d="M514.59,461.34a4.22,4.22,0,0,0-5.25,2.19S509.76,459.06,514.59,461.34Z" transform="translate(-385.3 -350.34)"/><path class="cls-7" d="M562.88,461.79a4.22,4.22,0,0,1,5.2,2.29S567.74,459.6,562.88,461.79Z" transform="translate(-385.3 -350.34)"/><path class="cls-27" d="M526.73,459.09s-1.75-6.41,4.43-9.34,11.88-.7,13.6,1.37,2.37,7,2.37,7A10.2,10.2,0,0,0,537,450.49c-8.41-.08-9.4,5.44-9.4,5.44Z" transform="translate(-385.3 -350.34)"/><path class="cls-29" d="M537.84,585a.48.48,0,0,1,.49.4c.06.41,0,.52,0,.52a2.31,2.31,0,0,1-.14.19l-.13.07-.22,0h-.14l0,.11a3.35,3.35,0,0,1,0,.67c0,.18-.2.6-.2.6l-.26.43a1.82,1.82,0,0,1-.61.5,2.19,2.19,0,0,0-.37.15l-.43.09V589s0,.32,0,.33,0,.13,0,.13-.32.19-.32.19l-.12.06-.33-.14-.17-.11s0-.7,0-.69l-.54-.14-.4-.18a1.76,1.76,0,0,1-.52-.59,1.49,1.49,0,0,1-.18-.42l-.09-.55,0-.5v-.21a1.44,1.44,0,0,1-.46.1,1,1,0,0,1-.25-.2,1.92,1.92,0,0,1-.13-.59.36.36,0,0,1,.27-.39L533,585s.17-.7.17-.71l.35-1.29.36-.23,2-.17,1.47.28.21.09v1l.17,1Z" transform="translate(-385.3 -350.34)"/><path class="cls-30" d="M537.87,585l.12-.39.1-.49v-.41l0-.32-.16-.35-.19-.21-.19-.12a2.06,2.06,0,0,0-.54-.6c-.26-.14-.29-.22-.5-.25l-.26-.06-.41-.07h-.73l-.44.11-.46.2-.29.21-.13.13-.07.05a2.61,2.61,0,0,0-.49.33l-.28.41a2.11,2.11,0,0,0-.17.48c0,.12,0,.67,0,.67l.08.56,0,.19a1.6,1.6,0,0,1,.27,0,.94.94,0,0,1,.14.12l0,.12,0,.22,0,0a.3.3,0,0,0,.1-.07,1,1,0,0,0,0-.26l0-.42-.11-.51,0-.23a.91.91,0,0,1,0-.38,3.68,3.68,0,0,1,.24-.4l.11-.11.15-.13,0-.21a5.83,5.83,0,0,0,.57.25h.37l.28,0,.26-.06.35-.22a.72.72,0,0,0,.61.33,3.94,3.94,0,0,0,.51,0l.56-.12h0a1.94,1.94,0,0,0-.16.5c0,.15,0,.17,0,.17l0,.19.13.59s0,.3,0,.3l-.08.35-.09.28s0,.07,0,0,.08-.14.11-.17l.16-.12.16-.06h.14Z" transform="translate(-385.3 -350.34)"/><path class="cls-31" d="M533.84,582.84a1.53,1.53,0,0,0,1.5,0s.33-.3.56-.16.34.38.87.3.64,0,.64,0a5,5,0,0,1-1,.15c-.41,0-.5-.11-.5-.11a1.47,1.47,0,0,1-.23-.18h-.05a2.13,2.13,0,0,1-.75.31c-.29,0-.3,0-.3,0a1.81,1.81,0,0,1-.54-.16Z" transform="translate(-385.3 -350.34)"/><path class="cls-23" d="M534.47,587.85a2.15,2.15,0,0,1,.63-.35l.29,0a2.45,2.45,0,0,1,.42.12c.11.06.3.12.31.13l.07.11,0,.06s-.21.17-.25.19-.47.1-.47.1l-.37,0-.31-.08-.31-.14Z" transform="translate(-385.3 -350.34)"/><path class="cls-24" d="M536.28,587.2l.28-.06a1.21,1.21,0,0,1,0,.23c0,.07-.11.3-.11.3l-.16.22s-.18-.18-.22-.18a1.65,1.65,0,0,0-.5-.2h-.2a1.16,1.16,0,0,0-.48.12l-.23.12-.14.09s-.17-.27-.2-.34a2.76,2.76,0,0,1-.06-.4c0-.06,0-.06,0-.06l1.83.16Z" transform="translate(-385.3 -350.34)"/><path class="cls-14" d="M536.56,587.14V587s0-.17,0-.2a.16.16,0,0,0,0-.08l-.16,0-.21.07a4.38,4.38,0,0,1-.52.07,2.48,2.48,0,0,1-.34,0l-.34-.07-.41-.13a.16.16,0,0,0-.13,0s-.09,0-.09.06l-.07.29,0,0,.27.09.49.11h.13l.68,0a2,2,0,0,0,.42-.07l.22-.07Z" transform="translate(-385.3 -350.34)"/><path class="cls-7" d="M533.85,582.86s0,.27-.16.35a1,1,0,0,0-.42,1c.11.47.28,1.29.08,1.42,0,0,0,0,0-.17a.37.37,0,0,0-.46-.36s-.57-2,.89-2.62l0-.06a1.21,1.21,0,0,0-.6.4,2,2,0,0,0-.42.84,3.23,3.23,0,0,0,0,.82c0,.32.11.65.11.65s.28,0,.34.09a.38.38,0,0,1,.11.24c0,.12,0,.26.09.22a.59.59,0,0,0,.14-.51c0-.25-.16-.87-.16-.87a1.13,1.13,0,0,1,.07-.69,1,1,0,0,1,.26-.29.36.36,0,0,0,.19-.27.48.48,0,0,0,0-.13Z" transform="translate(-385.3 -350.34)"/><path class="cls-7" d="M535.91,582.81s.12.3.63.22C536.54,583,536.07,583.07,535.91,582.81Z" transform="translate(-385.3 -350.34)"/><path class="cls-7" d="M537.8,583.28a1.37,1.37,0,0,1,.06.92A1.18,1.18,0,0,0,537.8,583.28Z" transform="translate(-385.3 -350.34)"/><path class="cls-7" d="M537.77,583.46a2.39,2.39,0,0,1,0,.5A1.09,1.09,0,0,0,537.77,583.46Z" transform="translate(-385.3 -350.34)"/><path class="cls-7" d="M532.86,585.1s-.48,0-.5.35,0,.85.5.82.42-.35.42-.35,0-.09.05,0a.47.47,0,0,1-.54.38c-.37,0-.47-.37-.48-.68s.08-.46.3-.54.23-.05.23-.05Z" transform="translate(-385.3 -350.34)"/><path class="cls-7" d="M533.24,586.12a2,2,0,0,0,2.16,2.67v.07a2.89,2.89,0,0,1-1.44-.33,1.83,1.83,0,0,1-.77-1.06,2.93,2.93,0,0,1,0-1.27Z" transform="translate(-385.3 -350.34)"/><path class="cls-7" d="M537.8,585.08a.46.46,0,0,1,.51.41.55.55,0,0,1-.72.69v.06s.57.17.74-.32-.1-.89-.46-.9l0,.05Z" transform="translate(-385.3 -350.34)"/><path class="cls-7" d="M537.59,586.21a2.18,2.18,0,0,1-2.19,2.58l0,0,0,0a2.71,2.71,0,0,0,1.65-.62,1.81,1.81,0,0,0,.6-1.1,2.23,2.23,0,0,0,0-.91Z" transform="translate(-385.3 -350.34)"/><path class="cls-7" d="M535.15,588.44a.47.47,0,0,0,.42,0A.27.27,0,0,1,535.15,588.44Z" transform="translate(-385.3 -350.34)"/><path class="cls-7" d="M535,586.44s0-.35.44-.35a.36.36,0,0,1,.37.36s0,0,0,0a.38.38,0,0,0-.41-.39c-.35,0-.46.13-.47.38C534.92,586.44,534.92,586.48,535,586.44Z" transform="translate(-385.3 -350.34)"/><path class="cls-7" d="M534.85,588.79a6,6,0,0,1,0,.72.75.75,0,0,0,.55.25s.4-.14.43-.32c0,0,0-.57,0-.65h-.07l0,.63a1.61,1.61,0,0,1-.38.29s-.45-.12-.49-.23,0-.61,0-.66S534.85,588.79,534.85,588.79Z" transform="translate(-385.3 -350.34)"/><path class="cls-7" d="M535.33,589.3s.18-.12.06-.24,0,0,0,0a.17.17,0,0,1-.06.27S535.32,589.31,535.33,589.3Z" transform="translate(-385.3 -350.34)"/><path class="cls-7" d="M532.73,585.32s-.27.51.15.72c0,0,.07,0,.06,0s-.24-.15-.25-.36a.53.53,0,0,1,.07-.32S532.78,585.29,532.73,585.32Z" transform="translate(-385.3 -350.34)"/><path class="cls-7" d="M532.71,585.79s.12-.26.15-.24-.12.26-.12.26Z" transform="translate(-385.3 -350.34)"/><path class="cls-7" d="M538,585.26s.25.55-.17.72c0,0-.05,0,0-.07a.35.35,0,0,0,.17-.34,1.8,1.8,0,0,0-.07-.29S538,585.24,538,585.26Z" transform="translate(-385.3 -350.34)"/><path class="cls-7" d="M538.08,585.63s-.12-.09-.15-.07.14.12.14.12Z" transform="translate(-385.3 -350.34)"/><path class="cls-7" d="M534.18,584.47a1,1,0,0,1,.77-.12l.09-.29a1.22,1.22,0,0,0-1,.11Z" transform="translate(-385.3 -350.34)"/><path class="cls-7" d="M536.56,584.5a1,1,0,0,0-.77-.14l-.08-.29a1.22,1.22,0,0,1,1,.12Z" transform="translate(-385.3 -350.34)"/><ellipse class="cls-7" cx="534.68" cy="585.3" rx="0.62" ry="0.39" transform="translate(-551.23 605.92) rotate(-75.49)"/><ellipse class="cls-14" cx="534.77" cy="585.07" rx="0.29" ry="0.19" transform="translate(-550.94 605.83) rotate(-75.49)"/><ellipse class="cls-7" cx="536.13" cy="585.32" rx="0.39" ry="0.62" transform="translate(-506.68 -209.66) rotate(-13.44)"/><ellipse class="cls-14" cx="536.05" cy="585.08" rx="0.19" ry="0.29" transform="translate(-506.63 -209.69) rotate(-13.44)"/><path class="cls-7" d="M534.45,586.72a3,3,0,0,0,1.95.1s.07-.07.12,0a1.07,1.07,0,0,1-1,1.31c-1.17,0-1.27-.86-1.24-1.07s.09-.38.16-.37l0,0s-.07,0-.12.19a1,1,0,0,0,.72,1.29,1.25,1.25,0,0,0,1.38-.34,1.11,1.11,0,0,0,.25-.81c0-.24-.08-.28-.17-.24a2.67,2.67,0,0,1-.56.14,3.64,3.64,0,0,1-1.38-.21Z" transform="translate(-385.3 -350.34)"/><path class="cls-7" d="M534.35,586.71s0,0,.12,0l0,0s-.12-.05-.16,0Z" transform="translate(-385.3 -350.34)"/><path class="cls-7" d="M534.24,587a3.54,3.54,0,0,0,2.31.08v0a3.15,3.15,0,0,1-2.36-.09l0,0Z" transform="translate(-385.3 -350.34)"/><path class="cls-7" d="M534.5,587.84a1.38,1.38,0,0,1,1-.31,1,1,0,0,1,.69.36l0,0a1.33,1.33,0,0,0-.92-.39,1.7,1.7,0,0,0-.84.32Z" transform="translate(-385.3 -350.34)"/><path class="cls-7" d="M533.84,582.84a1.46,1.46,0,0,0,1.84,0s.06,0-.06.09a1.5,1.5,0,0,1-1.78,0S533.8,582.83,533.84,582.84Z" transform="translate(-385.3 -350.34)"/><path class="cls-7" d="M536.18,582.87a.55.55,0,0,0,.45,0A.92.92,0,0,1,536.18,582.87Z" transform="translate(-385.3 -350.34)"/><path class="cls-31" d="M537.53,582.73A1.45,1.45,0,0,1,538,584c-.08.86-.2.51-.3.63a.61.61,0,0,0-.17.3,1.46,1.46,0,0,0,0,.2l.38-.07.15-.4s.1-.64.1-.76a2.3,2.3,0,0,0,0-.28s-.07-.34-.1-.43a1.78,1.78,0,0,0-.19-.3l-.18-.13Z" transform="translate(-385.3 -350.34)"/><path class="cls-7" d="M533.75,582.45a2.16,2.16,0,0,1,1.45-.67,2.22,2.22,0,0,1,2.32,1l0,0a1.89,1.89,0,0,0-1.14-.88,3.26,3.26,0,0,0-2.06.11,1.81,1.81,0,0,0-.62.46Z" transform="translate(-385.3 -350.34)"/><path class="cls-7" d="M535.69,582.82a1,1,0,0,0,1,.3,3.47,3.47,0,0,0,.81-.17,1,1,0,0,0-.19.71c0,.46.21.69.12,1.1a5.23,5.23,0,0,0-.16.64s.08-.24.33-.31.26-.05.26-.05.73-1.79-.31-2.29v0a.93.93,0,0,1,.57.74,3.05,3.05,0,0,1-.2,1.61s0,0-.06,0a.59.59,0,0,0-.38.11.82.82,0,0,0-.14.19s0,.09-.08.06,0-.2,0-.29a3.4,3.4,0,0,0,.14-.59c0-.11-.08-.48-.11-.59a1.53,1.53,0,0,1,0-.5,1.48,1.48,0,0,1,.14-.46s-.29.08-.48.11a2,2,0,0,1-.77,0,.84.84,0,0,1-.46-.28S535.67,582.82,535.69,582.82Z" transform="translate(-385.3 -350.34)"/><path class="cls-27" d="M533.4,584.56s-.11-.88.27-.95a.45.45,0,0,0,.41-.36,2,2,0,0,0,1.11,0c.4-.19.45-.41.45-.41a2.08,2.08,0,0,1-1,.31c-.46,0-.48-.09-.48-.09l-.26-.16s0,.27-.18.33-.34.36-.36.42a1.27,1.27,0,0,0-.05.54.55.55,0,0,1,.06.27Z" transform="translate(-385.3 -350.34)"/><path class="cls-27" d="M537.59,586.24s-.32,2.24-1.61,2.37c0,0-.57,0-.67,0s.09.19.15.31a.63.63,0,0,1,0,.45.94.94,0,0,0-.07.3,1.34,1.34,0,0,0,.32-.16l.09-.1s0-.64,0-.64l.54-.18a4,4,0,0,0,.77-.52l.15-.18a4.06,4.06,0,0,0,.3-.58c0-.17.1-.55.1-.55s0-.28,0-.3,0-.23,0-.23Z" transform="translate(-385.3 -350.34)"/><path class="cls-27" d="M534.42,587.84a1.11,1.11,0,0,0,.89.44,1,1,0,0,0,.89-.33,1.44,1.44,0,0,1-1.34.12Z" transform="translate(-385.3 -350.34)"/><path class="cls-7" d="M534.39,586.54a.19.19,0,0,0-.23.1S534.18,586.44,534.39,586.54Z" transform="translate(-385.3 -350.34)"/><path class="cls-7" d="M536.49,586.56a.18.18,0,0,1,.22.1S536.7,586.47,536.49,586.56Z" transform="translate(-385.3 -350.34)"/><path class="cls-27" d="M534.92,586.45a.35.35,0,0,1,.19-.41.51.51,0,0,1,.59.06.66.66,0,0,1,.1.3.45.45,0,0,0-.44-.33c-.36,0-.4.24-.4.24Z" transform="translate(-385.3 -350.34)"/><path class="cls-27" d="M504.54,552.89s8.56,7.5,4,33.58-3.23,31.92-3.32,35.44-3.48-8.35-2.52-14.89,3.16-23.31,3.16-23.31l.56-16.73-.87-9.93Z" transform="translate(-385.3 -350.34)"/><path class="cls-7" d="M539.5,589.88l-8.39-.08.08-8.76,8.39.08Zm-7.64-.81,6.9.06.07-7.27-6.9-.06Z" transform="translate(-385.3 -350.34)"/><path class="cls-27" d="M533.36,576s1.42-.34,1.46.62,1.2.68,1.2.68a8,8,0,0,0,.2-1.14c.08-.72,1.47-.18,1.47-.18l.06,3.86-.6.45-2.08,0-1.46-.28-.22-.71a1.67,1.67,0,0,0,0-.76A19.59,19.59,0,0,1,533.36,576Z" transform="translate(-385.3 -350.34)"/><path class="cls-7" d="M536.59,575.19l-1.19,3.32A14.32,14.32,0,0,0,536.59,575.19Z" transform="translate(-385.3 -350.34)"/><path class="cls-7" d="M535.55,575.35l-1.18,3.32A14.48,14.48,0,0,0,535.55,575.35Z" transform="translate(-385.3 -350.34)"/><polygon class="cls-7" points="143.47 245.12 133.3 252.35 143.1 245.11 143.47 245.12"/><polygon class="cls-7" points="143.11 243.91 137.09 247.98 142.74 243.91 143.11 243.91"/><path class="cls-7" d="M549.67,359s12.89-2.08,19.36,3.18C569,362.19,562.59,354.15,549.67,359Z" transform="translate(-385.3 -350.34)"/><path class="cls-7" d="M525.87,521.75s-7.3,3.29-8.35,5.89-2.54,7.86,1,11.76,9.41,5.21,9.41,5.21l9.51-9.23-1.16-.53-8.57,8.45s-8.63-3.34-9.81-7.22-.89-9.28,7.72-12.93Z" transform="translate(-385.3 -350.34)"/><path class="cls-7" d="M537.4,535.38s6.79,7.24,7.52,8.55c0,0,10.64-6.89,10.35-11s-1.87-9-8.44-9.3v.93s4.29-.38,5.93,3.18,1.81,5.79,1.06,6.86-8.46,7.84-8.46,7.84l-6.92-7.8Z" transform="translate(-385.3 -350.34)"/><path class="cls-29" d="M441.37,626.57l-.82,2.47s2.09,3.12,2.24,3.12,3.1.26,3.07.31a5.47,5.47,0,0,0,.81,0l2,1.89s5.13,2.18,5,2.27a25.33,25.33,0,0,0,3,1.4,13.88,13.88,0,0,1,1.72,0c.39.11,2.12-.83,2.62-.78s2.2-5.82,2.2-5.82,1.12-3.89,2.35-4a10.73,10.73,0,0,1,3.22.62s1.87-.81,1.37-1.31-2.7-2.59-3.82-2.59-19.19-.85-19.19-.85Z" transform="translate(-385.3 -350.34)"/><path class="cls-15" d="M464.83,599.52s8.63,2.64,9.38,3.57a4.32,4.32,0,0,0,2,1.25l-3.61,9.41s-.82,2.32-.28,3.35,4.68,4.16,5.15,4.87,3.07,3.89,3.27,5.73S477.85,632,477,632c-8.17-.07-.6.48.35.53l-3.47-.73s-7.14-4.38-5-4.39h-2.1s-2.23.65-2.59,1.25-2.34,4.93-2.34,4.93l-1.11,3.37s-2.6.61-2.92.67a32.07,32.07,0,0,1-3.91-2.17s-4.11-.07-4.77-.49a34.76,34.76,0,0,1-2.68-2.29s-5.26-1.42-5.64-5.51a32.24,32.24,0,0,1-.15-6L444,615.5s4.37-4.4,8.29-4a40.84,40.84,0,0,0,7.66,0,15.06,15.06,0,0,0,2.21-.84c.09-.07,2.1-6.87,2.1-6.87Z" transform="translate(-385.3 -350.34)"/><path class="cls-7" d="M445.57,633.12a5.13,5.13,0,0,1-5.43-4c-1.26-5.14-.21-12.33,5.07-16,4.21-2.92,10-2.44,13.47-2.16a19.47,19.47,0,0,0,2,.11c1.13-.05,2.71-4.55,3.52-8.68.05-.25.39-2.92.65-2.87s1.12.08.26,3.05c-.44,1.52-2,9.31-4.39,9.42a18.25,18.25,0,0,1-2.09-.11c-3.34-.27-8.94-.73-12.88,2-4.69,3.25-5.91,10-4.69,15,1,4.27,5.68,3.23,5.88,3.19a.46.46,0,1,1,.21.9A7.91,7.91,0,0,1,445.57,633.12Z" transform="translate(-385.3 -350.34)"/><path class="cls-7" d="M451.74,635.81h-.1c-5.09-1.14-5.25-3.11-5.61-7.44,0-.45-.07-.92-.12-1.42a14.24,14.24,0,0,1,3.22-9.88.46.46,0,0,1,.69.61,13.61,13.61,0,0,0-3,9.18c.05.51.09,1,.12,1.43.34,4.08.45,5.47,4.18,6.44-.5-2.54-1.79-10.91,2.38-14.51a.45.45,0,0,1,.65,0,.46.46,0,0,1,0,.65c-4.42,3.82-1.95,14.22-1.93,14.33a.46.46,0,0,1-.45.57Z" transform="translate(-385.3 -350.34)"/><path class="cls-7" d="M456.4,638h0c-4.25-.3-5-2.44-5.05-2.53a.46.46,0,0,1,.28-.59.47.47,0,0,1,.59.28s.61,1.46,3.59,1.85c-.58-2.29-2.15-9.89,1.34-13.84a.46.46,0,0,1,.69.61c-3.72,4.22-1,13.53-1,13.62a.5.5,0,0,1-.08.43A.46.46,0,0,1,456.4,638Z" transform="translate(-385.3 -350.34)"/><path class="cls-7" d="M458.79,638.57a5.42,5.42,0,0,1-2.7-.83.46.46,0,0,1,.51-.77,4.1,4.1,0,0,0,2.87.59,2.89,2.89,0,0,0,1.76-1.61,18.79,18.79,0,0,0,1.19-3.71c.56-2.21,1.09-4.31,2.49-5a2.8,2.8,0,0,1,2.42.1,19.37,19.37,0,0,1,3.61,2.32c2.72,2,5.07,3.79,7.57,1a4.82,4.82,0,0,0,1.33-3.86c-.32-2.73-2.83-5-3.31-5.31-4.12-2.85-5.64-6.29-4.33-9.72a38.55,38.55,0,0,1,3.1-6.81c.14-.21.7-1,.91-.87s.63.31.49.52a38.88,38.88,0,0,0-3.63,7.49c-1.47,3.84,1.33,6.79,3.93,8.59.7.48,3.4,2.95,3.76,6a5.68,5.68,0,0,1-1.57,4.59c-3.06,3.41-6.11,1.12-8.8-.89a18.09,18.09,0,0,0-3.43-2.21,1.94,1.94,0,0,0-1.64-.12c-1,.5-1.52,2.48-2,4.4a19.38,19.38,0,0,1-1.27,3.9,3.7,3.7,0,0,1-2.35,2.08A3.21,3.21,0,0,1,458.79,638.57Z" transform="translate(-385.3 -350.34)"/><path class="cls-15" d="M623.77,534.21l9.8,8.68s3.37-7.22,6.77-6.83,3.18,1.64,3.18,1.64,5.3,2.45,9.18,1.9a20.21,20.21,0,0,0,5.51-1.35l2.61-3.35.84-3.78s3.13-2.39,3.49-3.77a9.19,9.19,0,0,1,.67-1.91s1.34-2.54.95-3.58-.69-2.34-.69-2.34,1.07-5.75-5.91-5.5c0,0-6.73,1.25-7.55,2.85s-6,4.31-7.69,4.48a9.34,9.34,0,0,1-3.69-.48c-.14-.08-2.79-2.25-2.79-2.25l2.09-4.09s.37-6-2.4-6.87-4.31.28-4.31.28-4.81,3.75-4.84,6,.17,9.16-.45,12.67-1.27,4.09-1.27,4.09l-3.37,3Z" transform="translate(-385.3 -350.34)"/><path class="cls-7" d="M633.57,544.1a.42.42,0,0,1-.21-.06.44.44,0,0,1-.19-.6c.5-1,5-9.24,8.63-7.47a19.88,19.88,0,0,1,2.2,1.3c2.48,1.6,5,3.26,10.73,1.77s6.42-5.36,6.49-6.9c-1.8.77-7,2.6-12,.6a.45.45,0,0,1-.26-.58.46.46,0,0,1,.59-.26c5.68,2.27,11.89-.82,12-.85a.43.43,0,0,1,.41,0,.47.47,0,0,1,.24.34c0,.07.69,6.47-7.15,8.52-6.07,1.59-8.93-.26-11.44-1.88a20.12,20.12,0,0,0-2.11-1.25c-2.44-1.18-6.2,4.71-7.44,7.07A.45.45,0,0,1,633.57,544.1Z" transform="translate(-385.3 -350.34)"/><path class="cls-7" d="M661.13,532.17a.44.44,0,0,1-.42-.31.45.45,0,0,1,.28-.57,5.92,5.92,0,0,0,3.93-5c-2.47,1.18-11,4.81-17.19,2a.43.43,0,0,1-.22-.59.45.45,0,0,1,.59-.23c6.77,3.09,17-2.24,17.08-2.3a.49.49,0,0,1,.44,0,.46.46,0,0,1,.22.38,6.9,6.9,0,0,1-4.57,6.6Z" transform="translate(-385.3 -350.34)"/><path class="cls-7" d="M665.39,526a.45.45,0,0,1-.31-.77,4,4,0,0,0,.64-4.55c-1.93,1.23-9.88,5.85-16.82,3.55a.45.45,0,0,1,.29-.85c7.37,2.44,16.35-3.66,16.44-3.72a.5.5,0,0,1,.36-.07.46.46,0,0,1,.29.22,5,5,0,0,1-.58,6.07A.45.45,0,0,1,665.39,526Z" transform="translate(-385.3 -350.34)"/><path class="cls-7" d="M644.42,522.19a3.44,3.44,0,0,1-.46,0c-5.14-.49-6-3-6.05-3.16a.46.46,0,0,1,.29-.57.45.45,0,0,1,.57.29s.78,2.12,5.27,2.55c2.07.19,4.18-1.28,6.6-3,2.93-2.06,6.27-4.39,10.42-4.26,2.64.08,4.4.8,5.22,2.15a4.63,4.63,0,0,1,0,4.07.45.45,0,1,1-.81-.39,3.8,3.8,0,0,0,0-3.21c-.65-1.07-2.16-1.65-4.47-1.72-3.86-.13-7.06,2.12-9.87,4.1C648.85,520.65,646.67,522.19,644.42,522.19Z" transform="translate(-385.3 -350.34)"/><path class="cls-7" d="M623.77,534.21a.43.43,0,0,1-.41-.27.44.44,0,0,1,.24-.59c5.2-2.16,5.13-9.41,5.07-14.71a26.4,26.4,0,0,1,.2-4.83c.57-2.9,3.88-6.57,7.15-6.78,1.16-.08,3.26.28,4.35,3.53,2.43,7.24-4,10.41-4.12,10.44a.45.45,0,0,1-.38-.82,7.38,7.38,0,0,0,3.64-9.33c-.68-2-1.84-3-3.43-2.92-2.76.18-5.83,3.53-6.33,6.05a27.28,27.28,0,0,0-.18,4.65c.06,5.55.14,13.16-5.63,15.55A.47.47,0,0,1,623.77,534.21Z" transform="translate(-385.3 -350.34)"/><path class="cls-7" d="M623.68,531.27a4.07,4.07,0,0,1,1.89,1.26c.51.81.7-.36.81-.36s.32-.34.32-.34a9.3,9.3,0,0,0-2.49-1.57c-1.36-.53-.76,1-.76,1Z" transform="translate(-385.3 -350.34)"/><path class="cls-7" d="M463.17,600" transform="translate(-385.3 -350.34)"/><path class="cls-7" d="M518.74,527.05s-7.53-2.31-16.55,4.69-26.54,37.32-31.48,47.71A192.16,192.16,0,0,0,463,598s7.94,1.6,11.28,3.68,5.87,3.72,5.87,3.72,7-14.53,8.88-19.74,12.82-21.57,16.93-22.46l0,1.86a50.49,50.49,0,0,0-12.14,14.83c-4.86,9.19-7.78,15.56-7.78,15.56L480.67,607s-8.52-5.48-12.3-6.45-7.07-1.43-7.07-1.43,5.87-16.67,9.47-23.16,10.12-18.67,14.65-25.21,10.67-18,18.73-22.08,8.88-4,15.17-3Z" transform="translate(-385.3 -350.34)"/><rect class="cls-14" x="145.5" y="241.17" width="9.44" height="3.62"/><path class="cls-7" d="M533,592.35h1.16v.35h-.73v.44h.68v.35h-.68v.76H533Z" transform="translate(-385.3 -350.34)"/><path class="cls-7" d="M534.9,592.35v1.9h-.44v-1.9Z" transform="translate(-385.3 -350.34)"/><path class="cls-7" d="M535.64,592.71h-.51v-.36h1.46v.36h-.52v1.54h-.43Z" transform="translate(-385.3 -350.34)"/><path class="cls-7" d="M538.48,593.28a.91.91,0,0,1-.94,1,.88.88,0,0,1-.89-1,.91.91,0,0,1,.92-1A.89.89,0,0,1,538.48,593.28Zm-1.38,0c0,.37.18.63.47.63s.45-.28.45-.65-.16-.63-.46-.63S537.1,592.94,537.1,593.31Z" transform="translate(-385.3 -350.34)"/><circle class="cls-32" cx="150.17" cy="213.23" r="4.03"/><circle class="cls-14" cx="150.14" cy="213.25" r="3.72"/><path class="cls-7" d="M532.67,563.46h0l0,0h0l0,0v-.06h0v-.52l0-.19h0v0h.08l.11,0H533l.06,0h0l0,0,0,0h0l0,0,0,0v0l0,0v0h0l0,0v0h0V563h0v0h0v.14h0v0l0,.06,0,0h0l0,0h0v0H533l-.05,0h-.19Zm.14-.06h.09l0,0,0,0,.06-.12v-.16l0-.16-.05-.17,0-.05,0,0,0,0h-.05v.77Z" transform="translate(-385.3 -350.34)"/><path class="cls-7" d="M533.39,563.41h0l0,0,0,0,0,0,0-.13v-.09l0-.1,0-.07,0,0,0,0h.22l.05,0h0v0l0,0V563h0v0h0v0h.08v0l0,0h-.27v.05h0l0,.07,0,0,0,0,0,0v0h0v0h.11v0h0v0h0l0,.05h0l0,0,0,0h-.23Zm.08-.31h.12V563l0-.06h0v0h0v0l0,0v0h0v.08Z" transform="translate(-385.3 -350.34)"/><path class="cls-7" d="M533.78,563.66v0l0-.14v-.22l0-.27v-.09h.1l0,0,0,0h0l0,.12,0,.09v0h0v.25h0v0h0v.08l0,0h0l0,0h-.14Zm.13-.91h-.1v-.14h.1l0,0h0v.07l0,0h0Z" transform="translate(-385.3 -350.34)"/><path class="cls-7" d="M534.52,563.46h-.08v0h0v0h-.3v-.09h0l0,0,.06-.05.06,0,.06,0h.07V563l0,0h0l0,0,0,0h-.1l0,0h0v0l0,0,.05-.05,0,0,0,0,.13,0h.14l0,0,0,0h0v.13h0v.06h0v.11h0v.07h0v0h0v0h-.13Zm-.27-.12h.11l0,0v-.15h-.07l0,0,0,0,0,0v0h0Zm.38.08h0Z" transform="translate(-385.3 -350.34)"/><path class="cls-7" d="M534.78,563.44h0v0h0v-.47h.12v0h0v0h0v.11l0-.06,0,0,0,0,0,0h.2v0h0v.28h0v.19h-.21v-.07l0-.26v0l0,.13,0,.1h0l0,.1v.05h-.1Z" transform="translate(-385.3 -350.34)"/><path class="cls-7" d="M535.64,563.42v0h-.13l0,0h0l0,0,0,0,0-.09V563l0-.06,0,0,0,0h0l.05,0h.16l0-.29h.14l0,0v.18h0V563h0v.06h0v0h0v.33h-.11l0,0h0Zm0-.12V563l0,0,0,0h0V563h0v.17h0l0,0h0Z" transform="translate(-385.3 -350.34)"/><path class="cls-7" d="M536.11,563.44H536l0,0,0,0,0-.07,0-.07v-.08l0-.06v0h0v0l0,0,0,0h.07v0h.21l0,0h0l0,0h0v0h0v0h0v0h0v.13h0v0h0v0h0v0h0v.09h0v0l0,0,0,0,0,0h-.16Zm.06-.11v0l0,0v-.21h0v0h0v-.09h0v0h0v0h0v0h0v.22h0l0,0,0,0Zm.26-.19h0Z" transform="translate(-385.3 -350.34)"/><path class="cls-7" d="M532.74,564.73h-.08l0,0v-1h0l0,0h.16l0,0v.53H533l0-.4h0l0-.11h.11l0,0,0,0v.24l0,.07,0,.2v.11h0v.31l0,.06H533l0,0v-.1l0-.21h0v0h0v0h-.12v.12h0v.27h0l-.08,0Z" transform="translate(-385.3 -350.34)"/><path class="cls-7" d="M533.44,564.68l0,0,0,0v-.3l0-.17v0h0v0h.16v0h0v.36h0v0h0l.15-.27,0-.07v-.09H534v.08l0,.09v0h0v.07h0v.28h0v0h-.07l0,0h0l0,0,0,0v-.12h0v0h0v0l0,0v0l0,.06,0,0h0l0,0h-.21Z" transform="translate(-385.3 -350.34)"/><path class="cls-7" d="M534.27,564.66h0l0,0,0,0,0,0,0-.15v-.11l0-.11,0-.09.06-.06h.31l0,0h0l0,0,0,0v.07h0v.08h.1v0l-.07,0h-.31v.06h0l0,.08v0l0,0,0,0v0h0v0h.06l0,0h0v0h0v0h0l0,.05h0l0,0-.05,0h-.27Zm.1-.36h.14v-.08l0-.07h0v0h0v0l0,0,0,0v0h0v.09Z" transform="translate(-385.3 -350.34)"/><path class="cls-7" d="M535,564.73h-.09v0l0-.05v-.07h0v0l0-.08h0v-.18l0-.17,0-.26v-.11l0,0h.07l0,0h0l0,0v0h0l0,0v0l0,.16v0h0v.08h0v.07h0v.25l0,.14v.09h0v0h0l-.08,0Z" transform="translate(-385.3 -350.34)"/><path class="cls-7" d="M535.36,564.73h-.09v0l0-.05v-.07h0v0l0-.08h0v-.35l0-.26v-.11l0,0h.07l0,0h0v0h0l0,0v0l0,.16v0h0v.08h0v.07h0v.25l0,.14v.09h0v0h0l-.08,0Z" transform="translate(-385.3 -350.34)"/><path class="cls-7" d="M536,564.72h-.09v0h0v0h-.35l0,0v-.09l0-.05.07-.06.07,0,.07,0h.08v-.15l0,0h0l0,0,0,0h-.17v0l0,0,.06-.06,0,0,.06,0,.14,0H536l0,0,0,0,0,0v.17h0v.07h0v.16h0v.15h0v0h0l0,0H536Zm-.31-.14h.13l0,0v0l0-.13h0l0,0h0l0,0-.06.06v.08Zm.44.08Z" transform="translate(-385.3 -350.34)"/><path class="cls-33" d="M537.79,564.67h0Z" transform="translate(-385.3 -350.34)"/><polygon class="cls-33" points="152.25 214.34 152.24 214.34 152.33 214.33 152.25 214.34"/><path class="cls-33" d="M537.56,564.64c.05,0,.18,0,.28,0v0h0v0Z" transform="translate(-385.3 -350.34)"/><path class="cls-33" d="M537.7,564.65l-.07,0h.07Z" transform="translate(-385.3 -350.34)"/><path class="cls-33" d="M537.64,564.66Z" transform="translate(-385.3 -350.34)"/><path class="cls-33" d="M537.72,564.58h0C537.66,564.58,537.67,564.58,537.72,564.58Z" transform="translate(-385.3 -350.34)"/><path class="cls-33" d="M537.64,564.59h0Z" transform="translate(-385.3 -350.34)"/><path class="cls-33" d="M537.77,564.58h0Z" transform="translate(-385.3 -350.34)"/><path class="cls-33" d="M537.82,564.63h0C537.64,564.65,537.67,564.66,537.82,564.63Z" transform="translate(-385.3 -350.34)"/><path class="cls-33" d="M537.53,564.65h0Z" transform="translate(-385.3 -350.34)"/><path class="cls-33" d="M537.48,564.64h-.15Z" transform="translate(-385.3 -350.34)"/><path class="cls-33" d="M537.42,564.65l.12,0-.11,0S537.41,564.65,537.42,564.65Z" transform="translate(-385.3 -350.34)"/><polygon class="cls-33" points="152.33 214.26 152.48 214.24 152.31 214.26 152.33 214.26"/><path class="cls-33" d="M538,564.56h0Z" transform="translate(-385.3 -350.34)"/><path class="cls-33" d="M538,564.53Z" transform="translate(-385.3 -350.34)"/><path class="cls-33" d="M538,564.5h0Z" transform="translate(-385.3 -350.34)"/><path class="cls-33" d="M537.77,564.59l.13,0h-.13Z" transform="translate(-385.3 -350.34)"/><polygon class="cls-33" points="152.52 214.24 152.52 214.24 152.63 214.22 152.63 214.22 152.63 214.22 152.52 214.24"/><path class="cls-33" d="M537.75,564.59h0Z" transform="translate(-385.3 -350.34)"/><path class="cls-33" d="M537.4,564.61h-.08v0h0v0h.08Z" transform="translate(-385.3 -350.34)"/><path class="cls-33" d="M537.66,564.6l-.13,0h0Z" transform="translate(-385.3 -350.34)"/><polygon class="cls-33" points="152.42 214.25 152.37 214.26 152.42 214.25 152.42 214.25"/><path class="cls-33" d="M538,564.52h0Z" transform="translate(-385.3 -350.34)"/><path class="cls-33" d="M538,564.54Z" transform="translate(-385.3 -350.34)"/><polygon class="cls-33" points="152.09 214.18 152.1 214.18 152.1 214.18 152.1 214.18 152.09 214.18"/><path class="cls-33" d="M538,564.52h0Z" transform="translate(-385.3 -350.34)"/><path class="cls-33" d="M538,564.5Z" transform="translate(-385.3 -350.34)"/><path class="cls-33" d="M538,564.54Z" transform="translate(-385.3 -350.34)"/><path class="cls-33" d="M538,564.54h0Z" transform="translate(-385.3 -350.34)"/><path class="cls-33" d="M537.24,564.55h0s0,0-.1,0h0s.05,0,0,0h0Z" transform="translate(-385.3 -350.34)"/><path class="cls-33" d="M537.68,564.51h0Z" transform="translate(-385.3 -350.34)"/><path class="cls-33" d="M537.93,564.51h-.07s-.05,0,0,0h.11s0,0,0,0h0Z" transform="translate(-385.3 -350.34)"/><path class="cls-33" d="M537.39,564.62h0Z" transform="translate(-385.3 -350.34)"/><path class="cls-33" d="M537.47,564.61l-.07,0h0l.14,0h-.08Z" transform="translate(-385.3 -350.34)"/><path class="cls-33" d="M537.93,564.54h0Z" transform="translate(-385.3 -350.34)"/><polygon class="cls-33" points="152.07 214.18 152.09 214.17 152.01 214.18 152.07 214.18"/><polygon class="cls-33" points="151.88 214.19 151.88 214.18 151.88 214.18 151.88 214.24 151.92 214.23 151.88 214.24 151.88 214.19 151.88 214.19"/><path class="cls-33" d="M537.23,563.9h0Z" transform="translate(-385.3 -350.34)"/><path class="cls-33" d="M537.26,564h0Z" transform="translate(-385.3 -350.34)"/><path class="cls-33" d="M537.54,564.33l-.13,0h.13Z" transform="translate(-385.3 -350.34)"/><path class="cls-33" d="M537.33,564.22h0Z" transform="translate(-385.3 -350.34)"/><path class="cls-33" d="M537.38,564.2h0Z" transform="translate(-385.3 -350.34)"/><path class="cls-33" d="M537.21,563.73l-.05,0Z" transform="translate(-385.3 -350.34)"/><path class="cls-33" d="M537.23,564.45h0Z" transform="translate(-385.3 -350.34)"/><path class="cls-33" d="M537.25,563.93l0,0Z" transform="translate(-385.3 -350.34)"/><path class="cls-33" d="M537.53,564.45h0Z" transform="translate(-385.3 -350.34)"/><path class="cls-33" d="M537.78,563.52h0Z" transform="translate(-385.3 -350.34)"/><path class="cls-33" d="M537.73,563.33l0,0Z" transform="translate(-385.3 -350.34)"/><path class="cls-33" d="M538,564.47Z" transform="translate(-385.3 -350.34)"/><path class="cls-33" d="M537.83,564.49Z" transform="translate(-385.3 -350.34)"/><path class="cls-33" d="M538,564.43Z" transform="translate(-385.3 -350.34)"/><path class="cls-33" d="M538,564.47h0Z" transform="translate(-385.3 -350.34)"/><path class="cls-33" d="M538,564.47h0Z" transform="translate(-385.3 -350.34)"/><path class="cls-33" d="M538,564.46h0Z" transform="translate(-385.3 -350.34)"/><path class="cls-33" d="M537.37,563.53h0Z" transform="translate(-385.3 -350.34)"/><polygon class="cls-33" points="152.34 213.96 152.33 213.96 152.34 213.96 152.34 213.96"/><path class="cls-33" d="M537.78,564.3h0Z" transform="translate(-385.3 -350.34)"/><path class="cls-33" d="M537.42,563.82l-.1,0,.15,0,0,.07h0l0-.07h0l-.24,0,0,.06.17.07,0,0v0h0v0h0l0,0-.18,0v0l0,0h0l-.07,0,.06,0,0,0s0,0,0,0l.1,0v0h-.14v0l.08,0c.05,0,0,0,0,0l.07,0v0h0v0l-.08,0a.13.13,0,0,0,.08,0v0h-.15v0l.09,0h-.09V564h0v.06l.26.06s-.24-.06-.12,0l.15,0h0v0h-.32v.05l.06,0c.16,0-.1,0,.08,0l.27.05v0h-.2s0,0,0,0h-.21v0l.26.05s0,0,0,0l.22,0v0h-.2c.09,0,0,0-.14,0h0s.08,0,.07,0h-.22v0l.14,0,.44,0h-.09c.06,0,0,0,0,0h.07v0l-.24,0h0l.21,0v0h-.62v0h0l.59,0h0v0l-.24,0s-.09,0,.07,0h-.19s.07,0,0,0l-.22,0s0,0-.07,0,0,0,0,0H537v0h0s0,0,0,0l.2,0h-.07c.2,0,.2,0,.39,0,0,0-.06,0,0,0h-.16l.36,0v0h-.1l.09,0v0h0s0,0,0,0v.06h0v-.06h-.21a1.21,1.21,0,0,1-.19,0h.28a1.31,1.31,0,0,1-.35,0s0,0,0,0H537v0h0l.14,0c-.07,0-.08,0,0,0l.27,0c.07,0-.1,0,0,0h.13s.2,0,0,0l.21,0s.1,0,.2,0h-.65c-.11,0,.13,0,0,0h0l-.3,0v0h.86l-.06,0h-.43l-.17,0h.11l.1,0h.14s0,0,0,0h.18l.19,0h0l.08,0H538s0,0,0,0h-.92v.05H538v-.06h-.09l-.54,0h0l-.31,0v0h0l.44,0h.39v0h-.26l-.14,0h0s0,0,0,0h-.07a1.81,1.81,0,0,1-.19,0H537v0h.5c.08,0,.11,0,0,0h.23v0h-.25l-.42,0v0l.52,0h.1v0h-.07s-.06,0,0,0l-.36,0h0l-.16,0v.05h.21l.29,0v0h-.07l-.1,0-.27-.05h0v0h.13l.29,0v0l-.05,0h0s-.2,0-.34-.07h0l-.08,0v0l.2,0h0c.19,0,0,0,.16,0v0h0s0,0-.06,0l-.24,0v0h.14v0h0v0s0,0,0,0v0h0l-.1,0v0h.14v0l-.12-.05h0v0l.15,0-.13-.1v0h.07l.1,0v0l-.19-.09v0c.09,0,.17,0,.16,0l.11,0v0l-.13-.06h0l-.2-.07v0h0l.27.08v0l-.15-.06h0l-.18-.09v0l.33.1h0l.07,0v0l-.39-.19,0,.05.19,0,.16.05c-.2-.07,0,0,0,0l.13,0h0s0,0,0,0v0h0s0,0,0,0v0l-.21-.1-.18-.09,0,0,.43.13,0,0-.4-.2,0,0,.13,0,0,0,.13,0s0,0,0,0l.09,0h.07c.18.07-.08,0,0,0l.07,0h0v0l-.13-.06-.06,0h0l0,0-.12-.06,0,0,0,0,0,0,0,0h0v0c.06,0,.11,0,0,0l.36.12.11,0h0l0,0-.11,0-.33-.12h0v0h.06s.2.07.29.11c-.06,0,.16,0,.2.05v0h0v0h0v0c-.05,0,0,0-.05,0l-.42-.18v0l.31.1s0,0,0,0l.14.06h0v0l-.1,0s0,0,0,0l-.32-.15v0l.43.13v0l-.36-.16v0l.35.1v0l-.05,0h0l0,0,.07,0h.09v0l-.12,0,.07,0c-.06,0,0,0,0,0h0l-.06,0h-.21l.06.05.18.09v0h0v0h0l0,0-.2-.06h0l-.17-.05v0l.36.16,0,0-.16-.05h0l-.11,0c-.08,0,.19,0,.12,0l-.3-.1v0l.22.1c.09,0,0,0,.07,0h0l.09,0v0h0v0l-.06,0,.06,0v0l-.22-.07.1,0-.38-.11v0c.16.07.32.14.47.19v0h0v0h0v0l-.39-.12h0l-.17-.05s0,0,0,0v0h0l.25.09,0,0a.56.56,0,0,1,.17.06c-.09,0,.07,0,0,0l0,0h-.07l-.13,0a.76.76,0,0,1-.18-.06c-.05,0,0,0,0,0l.09,0-.16,0-.13-.05,0,0,.18.08,0,0,.21.1h0v0c-.05,0-.1,0-.12,0l.12,0v0l-.06,0,.06,0v0l-.3-.1.1,0-.14,0a3.15,3.15,0,0,1,.32.1l-.15-.05-.24-.09,0,0,.07,0h0l.1,0-.07,0,.28.14c-.2-.1,0,0-.12-.07l.15.07v0a1.17,1.17,0,0,0-.27-.1l.08,0-.16-.05-.07,0,0,0h0l0,0s.07,0,0,0h0l0,0,.15.07h0l.24.11-.08,0,.08,0,0,0h0l0,0h0l0-.05-.25-.07-.12,0,0,0,0,0,0,0h0l0-.05.08,0h0l-.12,0,0,.05.1,0,0,0,.2.08h0l.12.06-.1,0,.14.06,0,0h0l-.07,0-.26-.07,0,0,.13.06,0,0,.17.09,0-.06-.22-.06-.09,0h0l0,.06h0l0-.06s0,0,0,0l0,0,.07,0c.14.05,0,0,.1.05l.16,0v0l-.16,0Zm-.1.26-.11,0Zm-.09.15h-.06v0h0v0Zm.56.19Zm.15,0s0,0,0,0h0Zm-.58-.94,0,0S537.34,563.49,537.36,563.49Z" transform="translate(-385.3 -350.34)"/><path class="cls-33" d="M537.38,564.2h0Z" transform="translate(-385.3 -350.34)"/><polygon class="cls-33" points="151.93 213.4 151.92 213.39 151.92 213.39 151.93 213.4"/><path class="cls-33" d="M537.4,564.41h0Z" transform="translate(-385.3 -350.34)"/><path class="cls-33" d="M537.57,564.54l.15,0h-.14S537.62,564.53,537.57,564.54Z" transform="translate(-385.3 -350.34)"/><path class="cls-33" d="M537.6,564.54h0S537.57,564.54,537.6,564.54Z" transform="translate(-385.3 -350.34)"/><path class="cls-33" d="M537.45,564.53l-.13,0h.13Z" transform="translate(-385.3 -350.34)"/><path class="cls-33" d="M537.31,564.55h0Z" transform="translate(-385.3 -350.34)"/><path class="cls-33" d="M538,564.45h0Z" transform="translate(-385.3 -350.34)"/><polygon class="cls-33" points="152.1 214.19 152.12 214.19 152.16 214.18 152.1 214.19"/><path class="cls-33" d="M537.91,564.47h-.12Z" transform="translate(-385.3 -350.34)"/><path class="cls-33" d="M537.79,564.49Z" transform="translate(-385.3 -350.34)"/><polygon class="cls-33" points="152.23 214.17 152.26 214.17 152.34 214.16 152.23 214.17"/><path class="cls-33" d="M537.11,564.42h0Z" transform="translate(-385.3 -350.34)"/><path class="cls-33" d="M537.44,564.45h0Z" transform="translate(-385.3 -350.34)"/><path class="cls-33" d="M537.12,564.44h0v0h0v0h0Z" transform="translate(-385.3 -350.34)"/><polygon class="cls-33" points="151.94 214.04 151.97 214.04 151.96 214.03 151.94 214.04"/><path class="cls-33" d="M537.43,564.37a.81.81,0,0,0,.15,0h-.15Z" transform="translate(-385.3 -350.34)"/><path class="cls-33" d="M537.51,564.37h0Z" transform="translate(-385.3 -350.34)"/><polygon class="cls-33" points="152.57 212.96 152.49 212.93 152.54 212.95 152.57 212.96"/><path class="cls-33" d="M537.71,563.25v0h-.05Z" transform="translate(-385.3 -350.34)"/><path class="cls-33" d="M537.45,564.06h.06v.06h0v-.07Z" transform="translate(-385.3 -350.34)"/><polygon class="cls-33" points="151.91 213.54 151.91 213.54 151.91 213.54 151.91 213.53 151.91 213.53 151.91 213.54"/><path class="cls-33" d="M537.22,563.8l.11,0Z" transform="translate(-385.3 -350.34)"/><path class="cls-33" d="M538.12,564.61h0Z" transform="translate(-385.3 -350.34)"/><polygon class="cls-33" points="152.85 214.26 152.85 214.26 152.85 214.25 152.85 214.26"/><path class="cls-33" d="M538.16,564.59h0Z" transform="translate(-385.3 -350.34)"/><path class="cls-33" d="M538.18,564.6Z" transform="translate(-385.3 -350.34)"/><path class="cls-33" d="M538.18,564.6Z" transform="translate(-385.3 -350.34)"/><polygon class="cls-33" points="152.89 214.26 152.89 214.26 152.89 214.26 152.89 214.26"/><path class="cls-33" d="M538.19,564.59Z" transform="translate(-385.3 -350.34)"/><path class="cls-33" d="M538.18,564.59h0Z" transform="translate(-385.3 -350.34)"/><path class="cls-33" d="M538.18,564.59h0S538.18,564.6,538.18,564.59Z" transform="translate(-385.3 -350.34)"/><polygon class="cls-33" points="152.87 214.24 152.86 214.24 152.86 214.24 152.87 214.24"/><polygon class="cls-33" points="152.91 214.25 152.91 214.25 152.91 214.25 152.91 214.25"/><path class="cls-33" d="M538.2,564.59h0Z" transform="translate(-385.3 -350.34)"/><polygon class="cls-33" points="152.89 214.24 152.89 214.25 152.89 214.24 152.89 214.24"/><polygon class="cls-33" points="152.92 214.25 152.92 214.25 152.92 214.25 152.92 214.25"/><polygon class="cls-33" points="152.93 214.25 152.93 214.25 152.94 214.25 152.93 214.25"/><path class="cls-33" d="M538.23,564.58Z" transform="translate(-385.3 -350.34)"/><polygon class="cls-33" points="152.91 214.24 152.92 214.25 152.92 214.24 152.91 214.24"/><polygon class="cls-33" points="152.92 214.24 152.92 214.24 152.92 214.24 152.92 214.24"/><path class="cls-33" d="M538.21,564.58Z" transform="translate(-385.3 -350.34)"/><path class="cls-33" d="M538.19,564.58s0,0,0,0S538.2,564.58,538.19,564.58Z" transform="translate(-385.3 -350.34)"/><polygon class="cls-33" points="152.91 214.24 152.91 214.24 152.91 214.24 152.91 214.24"/><polygon class="cls-33" points="152.91 214.24 152.91 214.24 152.91 214.24 152.91 214.24"/><polygon class="cls-33" points="152.93 214.24 152.94 214.24 152.93 214.24 152.93 214.24"/><path class="cls-33" d="M538.22,564.58Z" transform="translate(-385.3 -350.34)"/><polygon class="cls-33" points="152.95 214.23 152.95 214.23 152.95 214.23 152.95 214.23"/><polygon class="cls-33" points="152.93 214.24 152.93 214.24 152.93 214.24 152.93 214.24"/><path class="cls-33" d="M538.24,564.58Z" transform="translate(-385.3 -350.34)"/><path class="cls-33" d="M538.22,564.58Z" transform="translate(-385.3 -350.34)"/><polygon class="cls-33" points="152.93 214.24 152.93 214.24 152.92 214.24 152.93 214.24"/><path class="cls-33" d="M538.25,564.54h0v0h0v0Z" transform="translate(-385.3 -350.34)"/><polygon class="cls-33" points="152.95 214.23 152.94 214.23 152.95 214.24 152.95 214.23 152.95 214.23 152.95 214.23"/><path class="cls-33" d="M538.23,564.57h0Z" transform="translate(-385.3 -350.34)"/><path class="cls-33" d="M538.19,564.56h0Z" transform="translate(-385.3 -350.34)"/><polygon class="cls-33" points="152.9 214.22 152.9 214.23 152.9 214.22 152.9 214.23 152.9 214.23 152.91 214.23 152.9 214.22"/><polygon class="cls-33" points="152.92 214.23 152.93 214.22 152.92 214.22 152.92 214.22 152.92 214.23"/><polygon class="cls-33" points="152.95 214.23 152.96 214.24 152.96 214.23 152.95 214.23"/><polygon class="cls-33" points="152.96 214.23 152.96 214.23 152.96 214.23 152.96 214.23"/><path class="cls-33" d="M538.23,564.47Z" transform="translate(-385.3 -350.34)"/><path class="cls-33" d="M538.21,564.48Z" transform="translate(-385.3 -350.34)"/><path class="cls-33" d="M538.16,564.51h0Z" transform="translate(-385.3 -350.34)"/><polygon class="cls-33" points="152.83 214.19 152.83 214.19 152.83 214.19 152.83 214.19"/><path class="cls-33" d="M538.12,564.51Z" transform="translate(-385.3 -350.34)"/><path class="cls-33" d="M538.22,564.52Z" transform="translate(-385.3 -350.34)"/><path class="cls-33" d="M538.26,564.51h0Z" transform="translate(-385.3 -350.34)"/><path class="cls-33" d="M538.23,564.52h0Z" transform="translate(-385.3 -350.34)"/><polygon class="cls-33" points="152.96 214.16 152.96 214.17 152.96 214.16 152.96 214.16"/><path class="cls-33" d="M538.08,564.46Z" transform="translate(-385.3 -350.34)"/><path class="cls-33" d="M538.16,564.48h0Z" transform="translate(-385.3 -350.34)"/><path class="cls-33" d="M538.29,564.56Z" transform="translate(-385.3 -350.34)"/><path class="cls-33" d="M538.27,564.55h0Z" transform="translate(-385.3 -350.34)"/><path class="cls-33" d="M538.24,564.53Z" transform="translate(-385.3 -350.34)"/><path class="cls-33" d="M538.28,564.56h0Z" transform="translate(-385.3 -350.34)"/><path class="cls-33" d="M538.28,564.56Z" transform="translate(-385.3 -350.34)"/><polygon class="cls-33" points="152.99 214.22 152.99 214.22 152.99 214.22 152.99 214.22"/><path class="cls-33" d="M538.11,564.51Z" transform="translate(-385.3 -350.34)"/><polygon class="cls-33" points="152.82 214.22 152.82 214.22 152.82 214.22 152.82 214.22"/><path class="cls-33" d="M538.11,564.56h0Z" transform="translate(-385.3 -350.34)"/><path class="cls-33" d="M538.26,564.51h0v0h0v.06h0v0h0s0,0,0,0h-.06s0,0,0,0h0s0,0,0,0h0v0h0l0,0v0h0v0h0v0h0s0,0,0,0h0s0,0,0,0h0v0h0s0,0,0,0h0s0,0,0,0h0v0h0s0,0,0,0h0s0,0,0,0h0s0,0,0,0h0s0,0,0,0h0l0,0h0s0,0,0,0,0,0,0,0h0s0,0,0,0h0v-.06h-.17s0,0,0,0h0v0h0s0,0,0,0h0s0,0,0,0h.08s0,0,0,0h0v0s0,0,0,0h0v0h-.09s0,0,0,0,0,0,0,0h-.07s0,0,0,0H538v0h.13v0H538v0h0v0h.08s0,0,0,0,0,0,0,0h0s0,0,0,0h.11v0h0a.43.43,0,0,0,0,0Zm-.06,0Zm-.09,0h0Zm.18,0Zm0,0Zm-.21-.08Z" transform="translate(-385.3 -350.34)"/><path class="cls-33" d="M538.12,564.51Z" transform="translate(-385.3 -350.34)"/><polygon class="cls-33" points="152.93 214.18 152.93 214.18 152.93 214.18 152.93 214.18"/><path class="cls-33" d="M538.22,564.55Z" transform="translate(-385.3 -350.34)"/><polygon class="cls-33" points="152.98 214.23 152.98 214.23 152.97 214.22 152.98 214.23"/><polygon class="cls-33" points="152.94 214.21 152.94 214.21 152.94 214.21 152.94 214.21"/><path class="cls-33" d="M538.26,564.55Z" transform="translate(-385.3 -350.34)"/><path class="cls-33" d="M538.26,564.55Z" transform="translate(-385.3 -350.34)"/><path class="cls-33" d="M538.29,564.55h0S538.3,564.55,538.29,564.55Z" transform="translate(-385.3 -350.34)"/><polygon class="cls-33" points="152.96 214.2 152.96 214.21 152.96 214.2 152.96 214.2"/><polygon class="cls-33" points="152.98 214.2 152.98 214.2 152.98 214.2 152.98 214.2"/><path class="cls-33" d="M538.27,564.54Z" transform="translate(-385.3 -350.34)"/><polygon class="cls-33" points="152.97 214.2 152.97 214.2 152.97 214.2 152.97 214.2"/><polygon class="cls-33" points="152.98 214.19 152.97 214.19 152.97 214.19 152.98 214.19"/><polygon class="cls-33" points="152.99 214.2 152.99 214.19 152.99 214.2 152.99 214.2"/><path class="cls-33" d="M538.27,564.54Z" transform="translate(-385.3 -350.34)"/><polygon class="cls-33" points="152.91 214.2 152.91 214.2 152.91 214.19 152.91 214.2"/><path class="cls-33" d="M538.16,564.56Z" transform="translate(-385.3 -350.34)"/><path class="cls-33" d="M538.16,564.56Z" transform="translate(-385.3 -350.34)"/><polygon class="cls-33" points="152.87 214.14 152.88 214.15 152.87 214.14 152.87 214.14"/><polygon class="cls-33" points="152.88 214.13 152.88 214.14 152.88 214.13 152.88 214.13"/><polygon class="cls-33" points="152.89 214.13 152.89 214.14 152.89 214.14 152.89 214.13"/><polygon class="cls-33" points="152.93 214.13 152.93 214.13 152.93 214.13 152.93 214.13"/><path class="cls-33" d="M538.25,564.53h0Z" transform="translate(-385.3 -350.34)"/><path class="cls-33" d="M538.32,564.42h0Z" transform="translate(-385.3 -350.34)"/><polygon class="cls-33" points="152.98 214.02 152.99 214.02 152.96 214.01 152.96 214.04 152.97 214.04 152.96 214.04 152.96 214.01 152.98 214.02"/><path class="cls-33" d="M538.26,564.34h0v0l.11,0v0h0v0l-.1,0v0Z" transform="translate(-385.3 -350.34)"/><path class="cls-33" d="M538.32,564.27h0Z" transform="translate(-385.3 -350.34)"/><path class="cls-33" d="M538.35,564.28Z" transform="translate(-385.3 -350.34)"/><path class="cls-33" d="M538.29,564.31h0v-.06h0v.06h0S538.31,564.31,538.29,564.31Z" transform="translate(-385.3 -350.34)"/><path class="cls-33" d="M538.32,564.3h0Z" transform="translate(-385.3 -350.34)"/><path class="cls-33" d="M538.27,564.31h0Z" transform="translate(-385.3 -350.34)"/><path class="cls-33" d="M538.27,564.27h0C538.34,564.29,538.34,564.28,538.27,564.27Z" transform="translate(-385.3 -350.34)"/><path class="cls-33" d="M538.27,564.33h0v0Z" transform="translate(-385.3 -350.34)"/><path class="cls-33" d="M538.35,564.2v0h0v0h0v-.06Z" transform="translate(-385.3 -350.34)"/><path class="cls-33" d="M538.36,564.22l0,0Z" transform="translate(-385.3 -350.34)"/><polygon class="cls-33" points="153.03 213.95 152.97 213.97 153.03 213.95 153.07 213.94 153.04 213.93 153.03 213.92 153.04 213.93 153.07 213.95 153.03 213.95 153.03 213.95"/><polygon class="cls-33" points="153.05 213.87 153.03 213.88 153.06 213.87 153.05 213.8 153.04 213.81 153.05 213.81 153.06 213.87 153.05 213.87"/><path class="cls-33" d="M538.26,564.14s0,0,0,0v.07s0,0,0,0l.06,0h-.07C538.25,564.07,538.26,564.17,538.26,564.14Z" transform="translate(-385.3 -350.34)"/><path class="cls-33" d="M538.32,564.11h0l.1,0-.09,0h0l.1,0-.11,0Z" transform="translate(-385.3 -350.34)"/><path class="cls-33" d="M538.29,564.22h0Z" transform="translate(-385.3 -350.34)"/><path class="cls-33" d="M538.3,564.21Z" transform="translate(-385.3 -350.34)"/><path class="cls-33" d="M538.28,564.22h0Z" transform="translate(-385.3 -350.34)"/><path class="cls-33" d="M538.29,564.26s.07,0,0,0S538.32,564.26,538.29,564.26Z" transform="translate(-385.3 -350.34)"/><path class="cls-33" d="M538.28,564.19h0Z" transform="translate(-385.3 -350.34)"/><polygon class="cls-33" points="152.99 213.87 152.98 213.88 152.98 213.84 152.99 213.85 152.98 213.84 152.98 213.88 152.98 213.88 152.99 213.87"/><path class="cls-33" d="M538.3,564.18h0l.08,0-.08,0h0l.08,0-.08,0h-.05S538.28,564.19,538.3,564.18Z" transform="translate(-385.3 -350.34)"/><path class="cls-33" d="M538.31,564.15Z" transform="translate(-385.3 -350.34)"/><polygon class="cls-33" points="152.95 213.72 152.96 213.72 152.96 213.72 152.95 213.72"/><path class="cls-33" d="M538.29,564.18h0v0h0v0Z" transform="translate(-385.3 -350.34)"/><path class="cls-33" d="M538.26,564.09h0Z" transform="translate(-385.3 -350.34)"/><path class="cls-33" d="M538.3,564.15Z" transform="translate(-385.3 -350.34)"/><path class="cls-33" d="M538.3,564.15h0Z" transform="translate(-385.3 -350.34)"/><path class="cls-33" d="M538.24,564.06l0,0h0s0,0,0,0h0v0h0v0h0v0h0l0,0h0l0,0S538.25,564.05,538.24,564.06Z" transform="translate(-385.3 -350.34)"/><path class="cls-33" d="M538.3,564.11h0l0,0,.08,0h0l-.07.05h0Z" transform="translate(-385.3 -350.34)"/><path class="cls-33" d="M538.29,564.11h0l0,0h0s0,0,0,0h0l0,0v0l0,0,0,0v0Z" transform="translate(-385.3 -350.34)"/><path class="cls-33" d="M538.34,564.24h0S538.33,564.23,538.34,564.24Z" transform="translate(-385.3 -350.34)"/><path class="cls-33" d="M538.32,564.22h0s0,0,0,0v0h0l-.05,0Z" transform="translate(-385.3 -350.34)"/><path class="cls-33" d="M538.3,564.16h0v0h0v0h0Z" transform="translate(-385.3 -350.34)"/><polygon class="cls-33" points="152.95 213.72 152.95 213.71 152.92 213.72 152.94 213.76 152.94 213.76 152.94 213.76 152.92 213.72 152.95 213.72"/><polygon class="cls-33" points="152.99 213.73 152.99 213.74 152.99 213.73 153.07 213.67 152.98 213.68 152.96 213.68 152.98 213.68 153.06 213.69 152.99 213.73 152.99 213.73"/><path class="cls-33" d="M538,563.73h0Z" transform="translate(-385.3 -350.34)"/><path class="cls-33" d="M537.85,563.72h0S537.86,563.72,537.85,563.72Z" transform="translate(-385.3 -350.34)"/><path class="cls-33" d="M538.12,563.89h0Z" transform="translate(-385.3 -350.34)"/><path class="cls-33" d="M538.13,563.84h0Z" transform="translate(-385.3 -350.34)"/><path class="cls-33" d="M538.15,563.82h0v0h0v0Z" transform="translate(-385.3 -350.34)"/><path class="cls-33" d="M538.12,563.74h0Z" transform="translate(-385.3 -350.34)"/><path class="cls-33" d="M538,564h0Z" transform="translate(-385.3 -350.34)"/><path class="cls-33" d="M537.93,563.77h0Z" transform="translate(-385.3 -350.34)"/><path class="cls-33" d="M538,564h-.06v0h0v0Z" transform="translate(-385.3 -350.34)"/><path class="cls-33" d="M538.1,563.49h0Z" transform="translate(-385.3 -350.34)"/><path class="cls-33" d="M538,563.38h0v0h0v0Z" transform="translate(-385.3 -350.34)"/><path class="cls-33" d="M538.25,564Z" transform="translate(-385.3 -350.34)"/><path class="cls-33" d="M538.21,564h0Z" transform="translate(-385.3 -350.34)"/><path class="cls-33" d="M538.16,564Z" transform="translate(-385.3 -350.34)"/><path class="cls-33" d="M538.27,564h0v0h0v0Z" transform="translate(-385.3 -350.34)"/><path class="cls-33" d="M538.28,564h0Z" transform="translate(-385.3 -350.34)"/><path class="cls-33" d="M538.23,564h0Z" transform="translate(-385.3 -350.34)"/><path class="cls-33" d="M538.11,563.59Z" transform="translate(-385.3 -350.34)"/><polygon class="cls-33" points="152.67 213.55 152.67 213.55 152.67 213.55 152.67 213.55"/><path class="cls-33" d="M538,563.88h0Z" transform="translate(-385.3 -350.34)"/><path class="cls-33" d="M538,563.74l0,0s-.09,0,0,0,.14,0,.17,0v0h-.32v0h0s0,0,.13,0h0s.06,0,.11,0-.1,0,0,0h.06l.07,0h0v-.05h-.08c-.07,0,0,0,0,0h-.16s0,0,0,0h-.07v0h0l.15,0h.19s0,0,0,0h-.08s0,0,0,0h0s0,0,0,0H538l-.18,0h0s0,0,0,0h0v0h0v0h.07s.07,0,.11,0h.21v0l-.15,0v0l-.14,0s0,0,0,0h-.08s0,0,0,0h-.09v0h0v0h0v0s0,0,0,0,0,0,0,0h.07s0,0,0,0H538c.09,0,.09,0,.17,0s0,0,0,0l.06,0h0l-.11,0h-.07l.17-.06v0h0v0h0l-.11,0-.08,0,.12,0a.63.63,0,0,1-.15,0s0,0,0,0l-.08,0h0l-.11,0v0h.07s0,0,0,0H538s0,0,0,0h.06s.09,0,0,0h.06l-.21,0h0s0,0,0,0H538s-.05,0,0,0h0s0,0,.14,0,0,0,0,0h.09v0a.28.28,0,0,1-.11,0s0,0,0,0l.11,0h0l.05,0h0l-.13,0h0l.14,0h0s.06,0,0,0h0v0l-.11,0h0v0h0v0h0v0h.07s0,0-.07,0v.05s0,0,0,0h.15v0l-.08,0s0,0,0,0h0s-.07,0,0,0h-.07v0l.07,0,0,0h0v0h-.28v0h0l.1,0h0l.12,0h0v-.06h-.36v0l.17,0h0l.22,0v0h-.42v0h.07l0,0s.05,0,0,0l.13,0h.15v0h-.39v0h0s0,0,0,0l.16,0h0c.07,0,.08,0,.08,0h.08s0,0,0,0h0v0s-.13,0-.13,0h-.14s0,0-.09,0v0H538a.88.88,0,0,1,.14,0h0l.09,0v0l0,0h0c-.08,0,0,0-.08,0s0,0,0,0l-.18,0h0v0h.32v0l-.14,0-.1,0h0v0H538l.1,0h.09s0,0,0,0h0s-.13-.06-.22-.08h0v0a2.05,2.05,0,0,0,.28,0h0v0h-.05c.09,0,0,0,0,0l-.05,0h0l-.11,0-.16,0v0l.29,0,.08,0h0l-.05,0h-.08l-.1,0h0s-.09,0-.06,0l0,0v0l.27,0h.06v0l-.09,0h0s-.09,0-.13,0-.14,0-.08,0h0v0h0l.32,0v0h0s0,0,0,0l-.06,0s0,0-.07,0,0,0,0,0l-.22-.06v0l.3,0v0l-.18-.06h0v0H538l.11,0v0h0v0h0s-.06,0-.05,0l-.12,0v0l.08,0h0l.09,0h0v0l-.25,0h0v0h0v0h0v0l.18,0h.05l0,0h0l.12,0h0v0h-.33v0h0l.18,0h.07s0,0,0,0h.07v0h-.14s0,0,0,0l-.2,0h0v0h0v0h0l0,0h.15l-.06,0,.08,0h-.2s0,0,0,0v.06h0v-.06h0v0h0c.09,0,0,0,0,0H538c.09,0,0,0,.11,0h0l.08,0v-.05h-.05l-.1,0h-.14l0,0h0l.17.06h0l0,0-.17,0h0c-.05,0,0,0,0,0h0v.05h0l.14,0Zm0,.07h0Zm0,0h0Zm.08.2Zm0,0Zm0-.47h0S538.07,563.54,538.08,563.54Z" transform="translate(-385.3 -350.34)"/><path class="cls-33" d="M538.15,563.83Z" transform="translate(-385.3 -350.34)"/><polygon class="cls-33" points="152.83 213.41 152.82 213.41 152.82 213.41 152.83 213.41"/><path class="cls-33" d="M538.05,564h0Z" transform="translate(-385.3 -350.34)"/><path class="cls-33" d="M538.12,564h0v.06h0V564h0v.06h0V564Z" transform="translate(-385.3 -350.34)"/><path class="cls-33" d="M538.28,564.1h0Z" transform="translate(-385.3 -350.34)"/><path class="cls-33" d="M538.16,564h0Z" transform="translate(-385.3 -350.34)"/><path class="cls-33" d="M538.22,564h0Z" transform="translate(-385.3 -350.34)"/><path class="cls-33" d="M538.19,564h0S538.12,564,538.19,564Z" transform="translate(-385.3 -350.34)"/><polygon class="cls-33" points="152.88 213.71 152.88 213.7 152.86 213.7 152.88 213.71"/><path class="cls-33" d="M538.27,564h0Z" transform="translate(-385.3 -350.34)"/><path class="cls-33" d="M538.21,564h0Z" transform="translate(-385.3 -350.34)"/><polygon class="cls-33" points="152.83 213.7 152.82 213.7 152.82 213.7 152.83 213.7 152.86 213.7 152.82 213.7 152.82 213.7 152.83 213.7"/><path class="cls-33" d="M538.09,564h0Z" transform="translate(-385.3 -350.34)"/><path class="cls-33" d="M538.19,564h0v0h0v0Z" transform="translate(-385.3 -350.34)"/><path class="cls-33" d="M538.1,564h0Z" transform="translate(-385.3 -350.34)"/><polygon class="cls-33" points="152.68 213.63 152.69 213.63 152.69 213.62 152.68 213.63"/><path class="cls-33" d="M538.07,564h0S538.06,563.94,538.07,564Z" transform="translate(-385.3 -350.34)"/><path class="cls-33" d="M538.11,563.94h0Z" transform="translate(-385.3 -350.34)"/><polygon class="cls-33" points="152.79 213.07 152.82 213.08 152.8 213.07 152.79 213.07"/><path class="cls-33" d="M538.12,563.36h0Z" transform="translate(-385.3 -350.34)"/><path class="cls-33" d="M538.1,563.85Z" transform="translate(-385.3 -350.34)"/><polygon class="cls-33" points="152.74 213.38 152.73 213.38 152.75 213.39 152.74 213.38"/><path class="cls-33" d="M537.91,563.66h0l0,.07h0l0-.07Z" transform="translate(-385.3 -350.34)"/><path class="cls-33" d="M537.64,563h.06v0h0s0,0,0,0h0s0,0,0,0h0V563a.11.11,0,0,1,0,0,.23.23,0,0,0,0-.14.61.61,0,0,0,0-.12,1,1,0,0,1-.05-.16.17.17,0,0,0,0-.12.25.25,0,0,1,0-.07.21.21,0,0,0-.07-.15l-.08-.05s0,0,0,0a.28.28,0,0,0,0,.12v0s0,0,0,0l0,0,0,0a.24.24,0,0,1,0,.08.14.14,0,0,0,0,.12.36.36,0,0,1,0,.09.22.22,0,0,1,0,.08s0,.05,0,.08a.18.18,0,0,0,.09.13Zm0-.19v0S537.59,562.83,537.62,562.83Z" transform="translate(-385.3 -350.34)"/><path class="cls-33" d="M537,562.48s0,0,0,0l0,0,0,.07a.67.67,0,0,0,.07.11h0l0,0s0,0,0,.05a.21.21,0,0,1,0,.11l0,.11h0s0,0,0,.05l.08.06h0a.1.1,0,0,0,0-.09.19.19,0,0,0,0-.14l0-.06a1.08,1.08,0,0,1-.08-.19v0a.08.08,0,0,1,0,0s0,0,0-.05l-.09-.19s0,0,0-.06v0l-.07-.07a.12.12,0,0,0-.08,0,.1.1,0,0,0-.08.09.81.81,0,0,1,0,.16s0,0,0,0h0Z" transform="translate(-385.3 -350.34)"/><path class="cls-33" d="M536.6,562.86s0,0,0,0h0v0l0,.07.07.07.07.08.09.1.06.07s0,.05,0,.08l0,0h.07l0,0h0a.18.18,0,0,0,0-.1l0,0h0a.14.14,0,0,0,0-.07h0l0,0L537,563h0s0,0,0,0l-.05-.07-.06-.08a.75.75,0,0,1-.06-.13s-.07-.08-.1-.11h-.08a.11.11,0,0,0-.09.1s0,0,0,0h0s0,0,0,0h0s0,0,0,0v0s0,0,0,.06Z" transform="translate(-385.3 -350.34)"/><path class="cls-33" d="M536.75,564a0,0,0,0,0,0,0s0,0,0,0l0,0,0,0,0,0a.09.09,0,0,0-.07,0h-.11a.16.16,0,0,0,0,.07.08.08,0,0,0,0,.09.27.27,0,0,0,.08.07h0l.08,0a.09.09,0,0,0,.11,0l0,0A.09.09,0,0,0,536.75,564Z" transform="translate(-385.3 -350.34)"/><path class="cls-33" d="M536.78,564.06s0,.06,0,.06h.07S536.84,564.08,536.78,564.06Z" transform="translate(-385.3 -350.34)"/><path class="cls-33" d="M538.19,563.32s0,0,0-.05a.2.2,0,0,0,0-.11s0,0,0,0l0,0v0h0s0,0,0,0v0a.24.24,0,0,0,0-.08.37.37,0,0,0,0-.11v0s0,0,0,0,0,0,0-.06a.17.17,0,0,0,0-.14.1.1,0,0,0-.05-.06h-.12a.05.05,0,0,0,0,0,.07.07,0,0,0,0,.06v0a.14.14,0,0,1,0,.08,0,0,0,0,0,0,0v.05s0,0,0,0h0V563s0,0,0,0,0,0,0,0h0s0,.07,0,.1,0,0,0,0,0,0,0,0l0,.06C538.16,563.35,538.19,563.32,538.19,563.32Z" transform="translate(-385.3 -350.34)"/></svg>