<svg id="Layer_1" data-name="Layer 1" xmlns="http://www.w3.org/2000/svg" viewBox="0 0 469.56 208.69"><defs><style>.cls-1{fill:#000104;}.cls-1,.cls-2{fill-rule:evenodd;}.cls-2{fill:#d7282f;}</style></defs><path class="cls-1" d="M353.33,644.35l5.34-.89.67-.88.13-1.44.67-1.54.27-7.73-.4-1.66-.14-3.09-.26-.77-.4-3.87-.4-.66-.67-9.28h8.41l.93,1.55.54.44.53,1.88.94.77-1.07,15.24.67,4.86.93,2.54,2.54,2.21h.8l1.87-.89,2.8.11,2,.78,1.07-.22.27-.67.53-.33.67.33,1.74.11,1.06.34.54-.11.93.44.54-1.22.93-4.64.13-3.09-.13-1.43.4-10.16.27-1.44.27-6.85.4-.77.26-5.3-.26-2.87,1.46-15-1.2-5.08.14-1.55-.27-2,.13-1.44-.26-4.75-.27-1.1-.27-2.87-.93-4-1.74-1.66-3.2-1.43-4-.11-2.93,1.1-.27.78-.54.55v.33l-1.73,8.17.27,1.33-2.67,29.81-.94.45-2.94-.12-.66.23-3.34.22-.54.22-2.93.22h-1.47l.53-21.87.67-3.31.4-12.26-.53-1.77-2.41-2.09-1.46-.67H354.4l-.8-.33-2.4.55h-.67l-.67.23-1.07.11-.93.33h-.8l-1.34.33-1.06,1.1.13.89-1.07,7.06-.4,9.83.13,2.87L342.92,607l.8,18.44-.13,1,1.2,13.25,1.33,2.76,3.21.11,1.2.66,1.47.22,1.33.89Zm50.73-3.76,2.27.44h1.87l2-.55,3.48.11,5.47-.77,2.67-1,.93-.89.94-.33,1.6-1.44,2.27-4.52.67-2,1.07-1.55.4-1.21.26.11.4,1.43v.34l.14.33.26,2.32v1.43l.27,2.54.67,2.32,1.47,2,1.6,1.54.53.34,1.61-1.11,1.73-.22,1.07.66.67-.55.13-.55h.4l.53-.22.4.22h.27l.67-.88h1.47l1.73-.34,1.07-1.43.27-2.32-.27-2.1V628l-.4-1.1-.8-7.73-.27-1.11v-1l-.66-1.66-.14-3.75-.4-.77.27-.56-.14-.44v-3.2l-1.06-6.63-1.2-2.87-.14-1.54L441,594.1h-.53l-2.14-.44-4.53.11-1.61.55-2,1.33v.55l-.53.66.13,1.44-.8,5.63-3.34,4.86-10.81,20-.27-.78-.27-2.54-.26-.77-.4-2.65-.14-15.9.8-4.09.67-1.55.27-2.65.13-.33-.13-.88-.8-1.55-1.61-.77-1.73-.66-2.54-.11-1.2.55-1.07.22-2,.88-1.47.34-.13,1h-.4l-.54.55-1.6.44-.4,1.22-2.67,12.92-.67,7.07v6l.94,7.07.8,2.43,1.6,2.87,2.41,2.54,1.86,1Zm59.95-2,2.67.45h.8l1.73-.45,1.87.34h6.14l2-.45h.13l2.27-.77,3.34-1.88,2-2.32.27-.77.8-.66,2-4.2.53-.77.67-2.65v-.88l.27-2.32-.8-.56-1.47-.11-.54-.88h-.93l-1.47-1.21-1.47.44-2.53-.22-.8,1.21-.94.66-.4,1.33-2.67,3.86-3.07,3.43-1.2-2.21-2.14-6.19-.4-.44-.67-2.21V616h4.54l3.34-.23h2l3.74-.55h2.14l4.67-.66.93-.33.67-.11,4.94-1.88.8-1.43-2.13-.23h-4.28l-.66-1-.27-1.55.4-1.21.4-3.2.53-.78-.93-5.08-1.74-3.09L488,593.44l-.14-.44-3.6-3.76-2-.55-2.14-.33-6.41.55-1.73.55-4.94.33-1.87.33-3.61,1.11-3.74,4.19-2.93,6.41-2.27,8.83v8.07l3.07,10.82,1.33,2.65,2.27,3.2,2.14,1.88.53.22.14.22,1.87.88Zm4.8-28.05v-3.86l.54-3.09.4-.67.26-2.09,1.07-3,1.34-2.54,1.33-1.32,1.34.77.13.44.53.67v1l.94,2.32.53,1L479,605v5.75h-9.61l-.54-.23Zm45,32.69,5.48-1.43,1.06-.67.14-2,.53-.56.13-1.76-.53-1.22.27-3.64-2.27-10.71-.8-7.18.13-1.55v-7.73l.13-1.77-.26-1-.27-5.3-.27-1-.13-3.65-.27-1.88v-.77l-.66-1.21-1.34-12-.4-1.66-2.14-2.65-.13-.77-.67-1.1-1.07-1.22-.53-1.1-2-1.77-1.74-.77-1.73-.34-1.47.67-1.47,1.21-.4,5.74-.4,1.22v1.44L499,594.43l.94,13.25v2l.93,10.82.27.78.13,1.21,1.61,6.08.13,1.65.4,1.22.93,4.86,1.21,4.19.8,1.33.26.33,1.2,1.1h.94l1.33-.66,1.74.33h.8l.67.33Zm27.5,0,5.48-1.43,1.06-.67.14-2,.53-.56.14-1.76-.54-1.22.27-3.64-2.27-10.71-.8-7.18.13-1.55v-7.73l.14-1.77-.27-1-.27-5.3-.27-1-.13-3.65-.27-1.88v-.77l-.66-1.21-1.34-12-.4-1.66-2.14-2.65-.13-.77L539,570,538,568.81l-.54-1.1-2-1.77-1.74-.77-1.73-.34-1.47.67L529,566.71l-.4,5.74-.4,1.22v1.44l-1.74,19.32.94,13.25v2l.93,10.82.27.78.13,1.21,1.61,6.08.13,1.65.4,1.22.93,4.86,1.21,4.19.8,1.33.26.33,1.21,1.1h.93l1.34-.66,1.73.33h.8l.67.33Zm45.93-.88.67.22h2.53v-.44l.54-.55,1.2.77.13-.55v-.44l1.87-1.11,1.33.22.81-.22.4.33-.54.66v.56h.94l.26-.89.14-.22v-1.43l-.14-.89v-.33l-.26-1.76v-2.77l-.27-1.32v-5.52l-.27-1v-1.43l-.93-9-.27-1v-.88l-.53-2.77v-2.42l-.54-1-.4-1.43V604l-1.2-4.86-.53-3.31V595l-1.74-3.53-2.13-2.21-2-1L586,588l-.67-.34-2.67-.77h-6.28l-10.28,3.65L562,593.33l-3.07,2.54-4,4.63-1.6,2.88v1.76l.67.33,2,.45,1.33-1.11,5.21-.55.53-.22,1.47-.22.4-.22.67-.11,2.4-1.22,3.74-2.87L572,599l1.33-1.33.81,2.32.53,5.41V609l-2.27.44-.4.22-2.67.88-4.94,2.88-5.34,2.76-4.81,4.3-2.67,4.09-.4,1.1v3.54l1.07,2.32,1.34,1.87,1.46.78.27.11,1.6.77,3.87.33,3.74.66h7.35l3.47-.22,3.33-.66.4,1.44.14.33v.77l.66,1.44,1.21,1.32.13.44.8.67,1.74.66.93-.44,1.74.55Zm-24-11.26-.54-1.55v-1.88l1.07-2.65,3.74-4.08,2-1.33,1.34-1.33,1.87-1,.93-.88,1.6-.67,1.07,9.72.8,3.43-3.47,1.43-3.74.89-1.07.11-1.33.33h-3.2l-1.07-.55Zm32.57,6.95v-.11H596v.22Z" transform="translate(-305.22 -435.65)"/><path class="cls-2" d="M741.46,596.65c1.84-.9,3.79,1.49,4.44,2.26s.57.2.86,1.25a9.14,9.14,0,0,1-2.91-1.69c-2-1.3-2.15-.82-2.39-1.82Zm21.09-63.87a13.08,13.08,0,0,1,2.15-4.55c2-2.54,2.22-5.72,2.28-8.88a3.53,3.53,0,0,0-1.92-3.52,4.36,4.36,0,0,1-1.37-1.81,1.2,1.2,0,0,1,.13-1.15,1.29,1.29,0,0,1,1.17-.09,1.87,1.87,0,0,0,2.42-.6,7.08,7.08,0,0,0,1.43-2.22,37.13,37.13,0,0,0,1.44-6.11c.39-3.16.47-6.36.7-9.54a7.15,7.15,0,0,1,.31-1.71c.41-1.17,1-2.28,1.32-3.47.49-1.67.7-3.43,1.28-5.07a18.1,18.1,0,0,0,0-11.32,7.24,7.24,0,0,0-4.58-5,15.2,15.2,0,0,0-9.8-.63,6.11,6.11,0,0,0-4.33,3.26c-.9,1.85-1.78,3.63-1.39,5.86.18,1.05-.06,2.17.75,3a19.84,19.84,0,0,1,3.91,6.85,9.56,9.56,0,0,1,.44,1.92c.14.86.15,1.75.33,2.61s.47,1.4.68,2.11-.1,1.1-.9,1c-.23,0-.45-.13-.68-.18-.68-.15-1.08,0-.91.81.28,1.48.53,3,.79,4.46.4,2.36.81,4.73,1.21,7.1.24,1.44.33,2.91.71,4.31s.92,2.42-.22,3.55a1.06,1.06,0,0,0-.19.54c-.38,2.88-.74,5.75-1.15,8.62-.08.54-.24,1.31-.62,1.53-.94.54-.85,1.2-.58,2l1.57,4.39c1.56,4.39,3.66,2,3.66,2ZM642.78,595.22c-2.2-.55-2,5,.27,4.77s4.61.3,5.39,0-.17-3.45-5.66-4.82Zm-2.83-4a9.69,9.69,0,0,0-.1-2.48c-.7-2.07-2.47-3.25-4.29-4.21a5,5,0,0,1-2.38-2.45,6.65,6.65,0,0,0-3.37-3.57A17.46,17.46,0,0,1,626.9,577a10.64,10.64,0,0,0-6.18-2c-2.73,0-5.46.22-8.19.35,0,.11,0,.21,0,.21a6.18,6.18,0,0,1-.74.66,10.26,10.26,0,0,0-3.7,5.89,7.82,7.82,0,0,0,2.3,7.87c2.15,2,4.44,3.94,6.67,5.88a3.46,3.46,0,0,0,.72.36c.69.33,1.4.64,2.08,1,2.4,1.3,4.68,2.94,7.22,3.85,3.24,1.18,6.5,1,9-2,.48-.57,1-1.07,1.53-1.62a8.32,8.32,0,0,0,2.38-6.25Zm-12.73-96.94c1.18.77,2.37,1.4,3.84.75a3.13,3.13,0,0,1,1-.08c-.11.71-.42,1.33-.24,1.72a32.22,32.22,0,0,0,2.9,5.56,79,79,0,0,0,5.61,6.54c1.86,2.05,3.77,4.05,5.69,6,2.76,2.85,5.69,5.5,7.94,8.82a37,37,0,0,0,5,5.94c2,1.92,3.94,3.74,4.62,6.56a3.47,3.47,0,0,0,1.59,2.14,13.16,13.16,0,0,0,3.69.65c.22,0,.48-.22.71-.37a7.15,7.15,0,0,0,1.15-.8c1.37-1.31,2.73-2.63,4-4a2,2,0,0,0,.37-1.41A17.09,17.09,0,0,0,672,524a10.06,10.06,0,0,0-1.63-1.38c-.23-.22-.54-.57-.52-.83.19-2-.8-3.75-1.55-5.53a2.43,2.43,0,0,0-.61-.68,22.59,22.59,0,0,1-3.14-3c-1.65-2.39-3-4.94-4.57-7.4a1.27,1.27,0,0,0-.84-.63c-1.45-.07-2.21-1-2.92-2.07-1.25-1.92-2.48-3.85-3.83-5.7-1.72-2.36-3.78-4.51-5.26-7a81.42,81.42,0,0,1-5.45-10.69c-1.7-4.13-5.29-6.3-8.44-9a1.08,1.08,0,0,0-.35-.18,15,15,0,0,0-6.47-.64c-4.28.76-7.29,4.1-7.19,8.09.06,2.38.39,2.72,2.8,2.87l.47,0c.88.14,1.31.58,1.11,1.52a1.28,1.28,0,0,0,.1,1c.82.93.48,1.81,0,2.7-.33.61-.74,1.19-1.09,1.8a3.52,3.52,0,0,0,1.3,4.92c1.13.71,2.24,1.44,3.35,2.17Zm29.75-32c.4-1.13.86-2.24,1.24-3.38a2.67,2.67,0,0,0,0-.93,1.25,1.25,0,0,0-1-.05c-2.58.81-2.71.83-2.94-1.86-.39-4.32-.74-8.65-.83-13-.09-4.07,2.59-6.5,6.27-7.19a9.31,9.31,0,0,1,6.95,1.13,14.68,14.68,0,0,1,5.47,5.85,13.13,13.13,0,0,1,.73,2.43,38.38,38.38,0,0,0,1.54,5.23c2.38,5.28,4.92,10.49,7.38,15.73a34,34,0,0,1,1.73,4.08,22.29,22.29,0,0,1,.57,3.49c.22,1.41.33,2.86.69,4.24a64.48,64.48,0,0,0,6.56,16c1.08,1.87,2.55,3.54,3.56,5.44,1.93,3.62,3.56,7.34,3.49,11.58a10,10,0,0,1-3.49,7.49,2.32,2.32,0,0,1-3.21.28,3.22,3.22,0,0,1-.39-.25,47.86,47.86,0,0,0-7.1-5.07c-1.53-.88-3.25-2.14-3.52-4.31l-.34.14c-.83-3.07-1.69-6.13-2.48-9.2-.85-3.31-1.46-6.69-3.23-9.69-.74-1.26-1.62-2.46-2.42-3.69-1-1.46-1.9-2.93-2.85-4.4a4.75,4.75,0,0,0-.78-1.15c-3-2.51-4.41-6-6.13-9.29-.91-1.72-1.66-3.52-2.47-5.28a5,5,0,0,0-2.37-2.64,1.27,1.27,0,0,1-.64-1.77Zm56.84,29.36a16.37,16.37,0,0,0-.54,2,12.29,12.29,0,0,0,0,1.82c-1.22-1.51-1.36-3.76.56-3.79Zm2.24,15.56a16.59,16.59,0,0,0,1.73.15c.58,0,1.17,0,1.75.09.42,0,1.1,0,1.21.27a21.22,21.22,0,0,1,1.06,3.12c.05.17-.21.52-.41.62-1.36.68-1.3,1.68-.68,2.78,0,0,.68-1,1-1.15.53-.16,1.58.77,2.13.83a5.2,5.2,0,0,0,1.48-.58,12.8,12.8,0,0,1-.17-2.72,10.37,10.37,0,0,0-.28-3.05,7.46,7.46,0,0,1-.27-4.57c1.32-3.72,1-7.6.3-11.27-.67-3.46-2.28-6.75-3.66-10.05a64.67,64.67,0,0,1-4.38-13.85,19.57,19.57,0,0,0-4.22-9.62,16.22,16.22,0,0,1-3.21-6.34c-1.32-4.43-2-9.07-6.09-12.36a18.87,18.87,0,0,0-7-3.77,2.69,2.69,0,0,0-3.31,1.27c-2,3.2-3.58,6.55-3.52,10.43a4.48,4.48,0,0,1-.06,1.16c-.48,1.95.65,3.31,1.74,4.67.65.81,1.43,1.51,2.09,2.31s1.42,1.84,2.09,2.79a8.14,8.14,0,0,1,1.65,6.14c-.63,3.8-.2,7.28,2.42,10.33a20.33,20.33,0,0,1,3.62,7.52,25.22,25.22,0,0,1,1.28,6.68,27,27,0,0,0,1,7c1.36,4.58,3.79,8.34,8.17,10.62a9.06,9.06,0,0,0,2.53.56ZM675.92,611.39a7.65,7.65,0,0,1,3.42,1.88c.62.55,2.28,1.56,3,2.09a35.29,35.29,0,0,0,3.27,2.11c1,.55,2.35,1.37,2.52,2.58-1.71,0-5.44-3.19-6.53-4-.72-.53-1-.59-1.64-1.08a6.84,6.84,0,0,0-1.6-1.12c-1-.57-2.42-1.05-2.46-2.46ZM695,625c-1.26,0-.92.17-1-.83.82-.28,1-.09,1,.83ZM675.71,628c.21.87.43,1.75,1.2,2.1,1.68.76,2.58-.85,5,2.8,1.22,1.84,1.72,3.14,3,4.39l.19-2.27c.79.3.62,1.64.88,3.14a29.35,29.35,0,0,0,10.16,4.48c3.45.89,6.12,1.75,9.76,1.67l-6.74-6.21c-.75-.54-1-.48-1-1.61,1.1.11,3.14,1.83,4.34,2.42l2.52,1.81c1.44.86.86,1.94,2.85,2.77a5.87,5.87,0,0,1,1,.57c3.78-.55,11.35-2.46,13.81-4.72,1.57-1.43,2.59-2.91,4-4.32l.23-.23c-1.53-1.11-3.15-2.17-4.57-3.38-1-.81-1.4-.74-2.49-1.56s-1.46-.63-2.15-1.61c-1.4-1.95-.43-.6-2.46-1.62a22.36,22.36,0,0,1-2.22-1.79c-1-.74-1.9-.81-1.75-2.18a1.62,1.62,0,0,1,1.86.32c1.23,1.26,1.8,1,3.18,2,.82.57,1.69,1,2.43,1.62l4.27,3.5a54.43,54.43,0,0,0,5.1,3.77c1.46-.89,2.2-.09,4.25.46,3.78,1,6.85.34,12.1,1.95a27.14,27.14,0,0,0,6.12.84l.47,0a15.11,15.11,0,0,0,.79-3.9c.14-1.45,0-.36-.49-1.52,1-1.72.69-.1,1.64-3.21.6-2,.52-1.91-.46-3.44-1.88-2.9-5.8-3.85-8.35-6.17l-2.52-1.72a9.32,9.32,0,0,1-2,0,3.86,3.86,0,0,0-1.24-.06c-.83.11-.32.2-1.16.12-3.73-.37-3.26.29-7.47-1-.48-.14-.56-.1-1-.24l-3.9-1.58c-1.21-.55-2.56-1.37-1-2.11a3.62,3.62,0,0,0-2.32-2.42c-1.38-.5-.91-.43-1.94-1.55a6.49,6.49,0,0,0-2-1.32,40,40,0,0,1-5.09-3.57c0-.74-.34-1.16-1.33-1.1l-1.07-.9a5.2,5.2,0,0,0-2.15-2.22,1.27,1.27,0,0,0-.68,0l-3.63-2.89c-1.4-1.05-2.52-2-4-2.92-3.11-2.11-3.79-2.28-6.86-1.9-4.06.5-1.68-1.69-2-2.45-.49-1.07-3.47-.82-3.67-4-.09-1.32.66-4.05,1.79-4.92a1.76,1.76,0,0,1,1.88,1c.1.22-1.4,3.79,1.84,2.21,2.34-1.14,2,.53,4,.57,1.21,0,2-1.7,2.13-2.78a24.06,24.06,0,0,0-3-2.22c-1.65-1-3.57-2.31-5.31-3.19a9.58,9.58,0,0,1-.28,1.42c-.43,1.49-2,4.82-4.24,2.87-1.25-1.09-2.49-2.94-5.7-.41-2.16,1.7-5,6-7.18,9.71l10.36,6.51c.47,4-2.14.8-3.12.29s-1.51-.6-2.42-1.15a15.41,15.41,0,0,0-2-1.27c-2.46-1.12-.91-.66-2-1.45s-.75,0-1.79-1.16c-.61,1.14-1.12,2.17-1.48,3s-.93,1.66-1.29,2.55a21.1,21.1,0,0,1-1.34,2.54c-1.56,2.74-1.37,2.6-.27,6.37a6.62,6.62,0,0,1,.17.71c1.84.46,3.65,2.35,5.22,2.94,1.07.4,1.18.16,1.46,1.27-.39.19.57.35-.83.2-.68-.07-1.45-.89-1.84-1.17s-.86-.41-1.37-.79a7.59,7.59,0,0,1-.94-.94c-.75-.09-1.25,0-1.58,0a3.76,3.76,0,0,1-2.31,3.31,16.47,16.47,0,0,1-3.8.89l.13.08c1.57,1,1,.93,1.41,2.51a8,8,0,0,0,1.37.55c1,.2.85-.11,1.94.27.55,1.31-.18.9,1,1.94a7.76,7.76,0,0,1,1.36,1.5c1.81.14,2.38-1,2.72,1,.12.69-.2,1,.43,1.18.85.29.25-.18,1.28-.51,1.86,1.21,1.78,1.34,1.24,2.66.43.33.73.68,1.13,1,1.13,1,.77.18,1.39,0,1-.39.68,0,1.42.54.52.42,1,.63,1.49,1l-1.67.39c.41,2,2,.66,1.94,3.1-3,0-2.7-1.35-3.37-1.5a8.42,8.42,0,0,0-1.44.45ZM709,597.18c-.28.72-.36,1-1.31.78s-.8-.68-.92-1.41l2.23.63Zm14-37.68a4.88,4.88,0,0,1,2.64-.63c.54.12,2.44.68,2.65,1.15.09.19-.13,3.79-.27,5.65,0,.52,1.81.38,1.79.52-.19,1.41-3.54,1.86-4.81,2.94l-2.06,2.59c-1.33,1.7-.8,4.82-.22,6.74.25.83-.16,1.2-.55,1.7l4.72,2.18c.63.45,1.09.9,1.66,1.29.92.61,1.35.42,2.13.92s.57.68,1.63,1.3l4.58,2.93c.11-1.35-.15-3.5.8-3.44.65,0,.42.7.74,1.4.11.23,1.29,1.24,1.68,1.9.79,1.34.5,1.49,1.69,1.84.79-.61,1.17-1.74,1.88-2a2.81,2.81,0,0,1,2.65.35c4.83,4.12,4.1.43,5.3,7.75.49,3,2.21,2.56,2.08,4,3.34,2.4,6.21,4.66,9.71,7.45l6.78,5.07h0a72.42,72.42,0,0,0-.48-8.65,66.23,66.23,0,0,1-.65-6.92c0-1,.06-2.07.15-3.08-1.45-1.21-2.93-2.49-4.47-3.67l-14.08-10.36c-.93-.64-1.68-.8-1.68-2,2.71.6,8.31,5.11,11,6.76,1.43.87,2.18,1.84,3.48,2.64s2.2,1.53,3.68,2.3c.83.43,1.6.9,2.33,1.37l.05-.42a52.31,52.31,0,0,0,.43-6.74c-.4-.25-.79-.47-1.17-.67-2.28-1.18-.34-.87-5.07-3.83-3.48-2.18-6.82-4.81-10.29-7.2l-5.15-3.47c-.87-.68-1.52-1.32-2.3-2-1.64-1.36-2.42-.15-2.21-2.46,1.15.41,3.91,2.31,5.12,2.94.86.45,2.29,1.85,4.62,3.16l4.82,3c1.75,1.22,3.12,2.06,4.78,3.09,2.36,1.46,4.81,3.21,7.21,4.94a8.66,8.66,0,0,0,.5-3.22c0-.91,0-1.72-.08-2.49l-7.68-5.48c-1.31-.68-13.11-8.34-13.55-9.53.77-.37,2.32,1.21,4,2.16s2.36,1.54,4.13,2.62l4.06,2.64c1.59.89,2.69,1.86,4.2,2.83s3.23,2,4.85,3a7.14,7.14,0,0,1,.5-2.09c.3-.72.61-1.38.88-2.06-.23-.19-.51-.43-.91-.79a100.52,100.52,0,0,0-10.76-8.54c-1.48-.93-1.34-1.42-2.61-2.26-1.06-.7-2-1.16-3-1.85s-2.05-2-2.54-2.26c-1-.5-.95,0-1.66-.83-.87-1.06.35-.42-1.09-1.27-1.13-.67-2.26-.73-3.14-1.75a10.72,10.72,0,0,0-2.37-2.39l-2-1.5c-.46-.42-.37-.19-.62-.78a1.3,1.3,0,0,1,1.34.08c.58.31.51.32,1.27.68l17.47,10.63c.86.57,1.34,1.13,2.16,1.58,2.89,1.59,6.31,3.8,9.35,5.87a24.28,24.28,0,0,0-.67-5.1c-2.54-1.57-4.94-3.25-7.41-5.1-3.14-2.33-6.22-4.29-9.12-6.77a15.85,15.85,0,0,0-2-1.7l-5.86-4.11c-.88-.66-.75-.21-.89-1.31,1.09-.5,1,.25,4.29,2.31l10.41,7.35c1.65.9,6,4.44,10.13,7.6a40.42,40.42,0,0,0-1.9-5.1c-1-.82-2.09-1.62-3.24-2.39-1.48-1-4.57-3.72-7.24-6.1-3.86.16-6.18-1.94-8.89-4.89-1.93-2.11-12.29-11.58-15.9-12.7a7.72,7.72,0,0,0-1.09-.26,2.2,2.2,0,0,1,.49,1,10.57,10.57,0,0,1-2-1c-.19,0-.39,0-.61.07-2.48.33-4.56,1.06-7.09.86a20,20,0,0,1-4.37-1c2.74,2,5.52,3.94,6.22,4.3,1.19.61,1.23.2,1.77,1.36-.42.24.52.59-1.14.17L724.29,531c-.88-.53-2.14-1.55-3.1-2.22-1.24-.88-2.25-1-3.56-1.9-1.06-.72-2.18-1.4-3.32-2.07-2.82-.64-5.48-.66-7.58,1.28-.28.26-.53.51-.77.75,1.86.44,3.68,2.36,5.27,3,1.07.4,1.18.17,1.46,1.27-.39.19.57.35-.83.2-.68-.07-1.45-.89-1.84-1.17s-.86-.41-1.37-.79a7.59,7.59,0,0,1-.94-.94c-1.58-.19-2.05.41-2.14-1.13a7.06,7.06,0,0,1-4.41,2.3c-2.26.36-5,.28-7,1.65-1.74,1.19-2.46,3.26-4.28,4.2a2.19,2.19,0,0,1-.41.17,9.25,9.25,0,0,1,1.16.63c1.14.73,4.55,2.39,4.94,3.72-3.44-.92-3.3-1.46-4.87-2-1.27-.46-.91.16-1.77-.73-.27-.28-.35-.74-1-1.11a3,3,0,0,0-.41-.19c-1.55.06-3.29-.17-4.4-.18-2.77,0-4.78.31-5.06,2.91-.38,3.48-.8,3-2.19,5.5-3.7,6.55-.88,7.61.65,9.69a60.73,60.73,0,0,0,5.09,3.37c3.73,1.9,5.28,4,6.52,4.8.46.3,1.19.56,1.81.9,1.54.85,4.41,2.21,4.54,4.17-1.27-.14-1-.17-2-.9a6.8,6.8,0,0,1-1.39-1.18c-1.11.28-.17.52-1.71.66,0-.12-.35-1.09-.37-1.11-.56-1,.27-.18-.94-.75-3-1.44-.29-1.77-3.77-2.65-1.35-.34-2.67-1.77-4.2-2.55-1.36-.69-.84-.45-1.79-1.43a7.53,7.53,0,0,0-1-.89c-.23,1.65-2,2.73.42,5a19.51,19.51,0,0,0,4.87,3.05c2,.84,2.75,1.8,5.37,2.19,3.37.49,2.7,1.18,2.46,4.24a16,16,0,0,0,.08,2.83l.55.37a28.4,28.4,0,0,1,3.87,2.63c2.69,2.48,3.78,1.94,5.23,3.3.15-.22.91.63,1.14.41s-.18-1.43,0-1.6l-1-.6c-.88-.49-1.7-1.2-2.42-1.16a1.82,1.82,0,0,1,.06-.46c.66-2.92,2-2.45,3.23-5.08l.83-1.79c1.87-4.85,2.6-4.47,3-5.19.73-1.31-2.17-1.25.1-3-.58-1.19-1-.59-1.92-1.31s-.75-1.34.27-1.81c3.77-1.73,3.81-.13,6.92,1,.71.25,1,.11,1.56.33,2.24.91,4.31,4,6.86,2.41.64-.39,1.77-1.13,3-1.77a2.3,2.3,0,0,0,1.52,1c1.06.22.75-.05,1-.22A2.35,2.35,0,0,0,723,559.5Zm-21,20.79c.16-1.51,0-.29.43-.75.44.12.6.45.51,1-.13.84-.24.52-.62.71-.09-.14-.42,0-.32-1Zm4.85,2.62c-.31.72-.49,1.09-1.43.46.08-.35-.46-.4.5-.65a1.09,1.09,0,0,1,.93.19Zm2.74,2.43c-1.34-.18-.71.34-.9-1,1.35.28.9-.37.9,1Zm.15.21a5.9,5.9,0,0,1,2.69,1.62s.18,1.19-1.76-.33c-.67-.54-.75-.48-.93-1.29Zm35.56,31.8a19,19,0,0,1,3.22.88,14.47,14.47,0,0,0,3,.85c.46.12.54.2,1,.29,2.44.45,1.36.35,3,1.09.76.37,2.74.37,1.67-2.6l0-.12c.58.47,1.14.93,1.67,1.4,3.39,3,7,3.51,4.34,8.83-2.73-.41-9.15-4.09-11.58-6.18a11.47,11.47,0,0,0-1.3-1.12,52,52,0,0,0-5-3.32Zm12.34-1.65a2,2,0,0,0,.12-.43c.19-.91.17-4.65-.31-5.69-.65-1.39-2.06-.48-2.92-2.32-.31-.68-.3-1.42-.57-2-.6-1.21-1.22-1.28-1-2.26a17.46,17.46,0,0,1,1.85,1.35c2.26,2.1,1.5,1.1,3.46,2.46,3.31,2.28,6.41,5.52,9.81,7.36a14.76,14.76,0,0,1,2.09,1.43c0,.7-.1,1.41-.17,2.12a49.56,49.56,0,0,1-1,6.23c-1.78-1.17-3.86-3.13-5.22-3.94l-6.15-4.36Zm-22-25.21-.39.26a2,2,0,0,1-1.67.38,30.38,30.38,0,0,0-3-1c-.93.43-.92.62-1.77,1-.82-1.77-.27-1.46-.76-2.51-.61-1.32-5.76-2.71-6.27-3.83-.37-.79,0-1.05,0-1.66s-.33-1-.23-1.76a2.23,2.23,0,0,1,.3-.86c1.62,1.33,5,3.2,6.13,4.08l6.47,5c.34.26.73.54,1.14.83Zm31.23-44.22,2,3.45-7.31-5.58,1.69-.06a4,4,0,0,1,3.66,2.19Zm-89.73.16c.55-.33-.79-.45.92-.28.74.07.29.17,1.55,1a13.37,13.37,0,0,0,1.27.63c1.25.65.49,0,.87.84-.08,0,0,.81-1.51,0-.78-.39-2.72-1.46-3.1-2.18Zm5,40.72c.3-.17-.44-.56.89-.23.58.14.63.61,1.06,1.41a2.58,2.58,0,0,1-1.43-.27c-.91-.57-.3.11-.52-.91Zm1.06-37.74c1.12.19,2.56.77,2.85,1.81-.27.17,0,.44-1,.22a2.1,2.1,0,0,1-1.83-2Zm.09,78c-.29.72-.37,1-1.32.77s-.8-.67-.92-1.4l2.24.63Zm.85-29.73c.18-1.66,0-.31.48-.82.48.13.67.49.56,1.14-.14.92-.27.57-.68.79-.11-.16-.47,0-.36-1.11Zm-3,32.53c.17-.41.15-1,1.15-.7.06,0,2.6,1.45,2.23,3.24-1.61,0-1.77-.67-1.87-2l-1.51-.51Zm4.27,2.42c1.39-.12,1.52.65,1.4,1.89a1.73,1.73,0,0,1-1-.79c-.63-.78-.44.09-.38-1.1Zm4.08-32c-.35.79-.55,1.2-1.59.51.09-.4-.5-.45.56-.73.53-.14.72.09,1,.22Zm3,2.68c-1.48-.2-.78.37-1-1.1,1.49.32,1-.4,1,1.1Zm-.09,33.86c0-.72-.23-1.44.74-1.42.73,0,.76.72.89,1l-1.63.41Zm.26-33.63a6.5,6.5,0,0,1,3,1.79s.19,1.32-1.94-.37c-.75-.58-.84-.52-1-1.42Zm1.7,29.1c-.2.06-.31.31-.85,0-.85-.44-.23-.15-.45-.65.41-.26,1.19-1.05,1.3.61Zm5.51-90.09c-1.15,0-1.09.22-.92-1,.89.06.88.18.92,1Zm-5,24.61c1.49-.56,1.1-.12,2.24.69.94.68,1.35.4,1.56,1.85-1.6-.33-.85-.41-3.14-1.71-.88-.49-.44-.31-.66-.83Zm15.08,53.61c-.27,1.47.25.54-.67.92,0-.07-.68,0-.07-.76.35-.45.25-.13.74-.16ZM714,532a7.53,7.53,0,0,1,3.42,1.87c.62.55,2.28,1.56,3,2.09a36.68,36.68,0,0,0,3.27,2.11c1,.55,2.35,1.37,2.52,2.58-1.71-.05-5.44-3.19-6.53-4-.71-.53-1-.59-1.64-1.08a7.25,7.25,0,0,0-1.6-1.12c-1-.57-2.42-1-2.46-2.45Zm19.09,13.55c-1.25,0-.92.17-1-.83.82-.28,1-.08,1,.83Zm5.24,85.7c1.56,0,1.46.91,2.76,1.82.58.41,1.82,1.11,2,1.94l-.07.37c-.28.09.26.66-1-.05a3.62,3.62,0,0,1-.58-.56c-2-2-2.68-1.77-3.12-3.52Zm6.33-46.07c1.81,0,3.65,1.79,4.85,2.86.74.65,1.52.74,2.52,1.54,1.56,1.25,1.72.26,1.89,2-1.77-.32-3.63-2.16-5-3s-4-2-4.23-3.4Zm18.09,12.17c1.39.36,2,.85,2.4,2.05-1.32-.18-2.29-.7-2.4-2.05Zm-46.2-40.63c.55-.33-.79-.45.93-.28.74.07.28.16,1.54.94.52.32.88.43,1.28.64,1.25.64.48,0,.86.83-.08.05,0,.81-1.51,0-.78-.39-2.71-1.45-3.1-2.17Zm31,44.89c.11-.94.34-1.08.93-1.23a3.86,3.86,0,0,1,0,2.49c-.82-.09-1.06-.31-.94-1.26Zm1.6-6.68c1.25-.14,1.45-.08,1.52,1.17C749.48,596,749.3,595.9,749.09,594.89Z" transform="translate(-305.22 -435.65)"/><path class="cls-1" d="M315.9,563.15h11.61l2.14-.77,2.67-.34,4.14-1.76,1.47-1,1.07-.22.26-.22.4.22.54-1,2.53-1,1.2-1,2.27-1.32.81-.89,3.07-2.54.66-1.21,1.47-1.77,2.27-5.08V540.4l-.4-1.11V537.2l.53-2.1L355,531l.66-1.43V527l-.26-.78v-3l.26-1V518l-1.2-4.86-.27-.55V511l-.93-2.21v-1l-.4-.88v-.44l-.27-3.32-1.33-2.43-.8-1.76-2.54-3.76-1.74-2-.26-.33-2.27-2.65-3.74-2.43-.4-.44-4.67-1.66-4.94-1h-5.74l-9.08-1.21h-2.54l-.8-.11h-2l-1.34,1-.4,1.21.14.89-2.41,17.34-.53,37.21.4,6v1.66l.13.55v.45l.54,5.41,1.2,2.32-.4.66v1l1.07,1.44,1.2,1,1.07.44,5.47,1.22Zm6.41-7.51.8-1.66.8-2.21.27-1.21V537l.53-5v-6.63l-.27-1.88v-3.64l-.53-2.32v-3.09l-.53-1.88v-3.64l-.27-1.77v-2.32l-.8-7.4-.67-1.88-.27-2.65-1.2-2.43-.53-1.54v-.67l3.6,1,2.67,1.77,2.81,3.2,2.53,4.3,4.27,14.14L337.39,527l1.07,4V541l-4.67,10.49-1.6,2.21-2.54,1.66-4.27,1.21-3.47.44.4-1.32Zm50.06,2.76,2.67.44h.8l1.74-.44,1.87.33h6.14l2-.44h.13l2.27-.77,3.34-1.88,2-2.32.27-.77.8-.67,2-4.19.54-.78.66-2.65v-.88l.27-2.32-.8-.55-1.47-.11-.53-.88h-.94l-1.47-1.22-1.46.44-2.54-.22-.8,1.22-.94.66-.4,1.32-2.67,3.87L382.78,549l-1.2-2.21-2.13-6.18-.4-.44-.67-2.21v-2.21h4.54l3.33-.22h2L392,535h2.13l4.67-.67.94-.33.67-.11,4.93-1.87.81-1.44-2.14-.22h-4.27l-.67-1-.27-1.55.4-1.22.4-3.2.54-.77-.94-5.08-1.73-3.09-1.07-1.22-.13-.44L392.66,509l-2-.56-2.14-.33-6.4.55-1.74.56-4.94.33-1.87.33L370,511l-3.74,4.2-2.94,6.41L361,530.46v8.06l3.07,10.82,1.34,2.65,2.27,3.21,2.13,1.87.54.23.13.22,1.87.88Zm4.81-28v-3.87l.53-3.09.4-.66.27-2.1,1.07-3,1.33-2.54,1.34-1.33,1.33.78.13.44.54.66v1l.93,2.31.54,1,1.73,4.86v5.74h-9.61l-.53-.22Zm25.76,50.47.67-1.77-.27-1.66,3.47-12.25.8-4.09.67-7.07v-7.62l-1.87-23.74-.26-1.55v-4.64l.53-2.09,1.34-.45,1.2-.55,2.13-.55H413l1.86.33,2.54,1.33,2.14,1.76.4,1.33,1.73,10.05,2.27,7.73v2.21l.27.88.4,4.31v8.17l-.67,8.83-.4,1.22-.8,1.1-.67,1.77-.4,2.1-.26.55-.94,3.31-.67,1.55-.53,1.77-1.6,2.32-.27.33-2.14,3-1.6.11-.4.22h-.8l-1.33,1.22-2.14.33-.4.44-1.87.44-1.2-.33-.54.22h-1.06l-.54.22h-.4v-.77Zm11.88-80.51.4.44H416l.93-.44,2.14-3.09.8-4.64.4-1-.54-.89-1.73-.77-3.34-2.1-2-.66h-2.81l-.93.44-2,.44-1.07,1.66-1.07,3.53v3.65l1.07,2.87h.8l1.6-.66,3.21,1.1.53.33H413l.93-.33.93.11ZM466,562.15l.66.23h2.54v-.45l.53-.55,1.2.77.14-.55v-.44l1.87-1.1,1.33.22.8-.22.4.33-.53.66v.55h.93l.27-.88.14-.22v-1.44l-.14-.88v-.33l-.27-1.77v-2.76l-.26-1.33v-5.52l-.27-1V544l-.93-8.94-.27-1v-.88l-.54-2.76V528l-.53-1-.4-1.44v-1.77l-1.2-4.86-.54-3.31v-.88l-1.73-3.54L467,509l-2-1-.27-.22-.66-.33-2.67-.77h-6.28l-10.28,3.64-4.14,2.76-3.07,2.54-4,4.64-1.6,2.87v1.77l.66.33,2,.44,1.33-1.1,5.21-.56.53-.22,1.47-.22.4-.22.67-.11,2.4-1.21,3.74-2.87.27-.45,1.33-1.32.8,2.32.54,5.41v3.64l-2.27.45-.4.22-2.67.88-4.94,2.87L437.79,536,433,540.29l-2.67,4.08-.4,1.11V549l1.07,2.32,1.33,1.88,1.47.77.27.11,1.6.78,3.87.33,3.74.66h7.34l3.47-.22,3.34-.66.4,1.43.14.33v.78l.66,1.43,1.2,1.33.14.44.8.66,1.73.66.94-.44,1.73.55Zm-24-11.26-.53-1.55v-1.87l1.07-2.65,3.74-4.09,2-1.32,1.33-1.33,1.87-1,.94-.89,1.6-.66,1.07,9.72.8,3.42-3.47,1.44-3.74.88-1.07.11-1.33.33H443l-1.07-.55Zm32.58,7v-.11h.27V558l-.27-.11Zm16.29,2.87,1.2.66.53-.77,2.14.44.8-.77.13-.22.67-1.55.53-2.76,3.34-9.17.67-.22,2.14-8.61,3.87-11.27.4,1.88,1.87,22.75-.27,4,1.2,2.65,1.2,1,1.74.55,2-.22,3.47,1.22h1.47l.4-.67.94.11.4-.88h.13l.13.66.4-.22h1.61l.26-.88.27.11.4-.22h.53V559l2.27-.66-.26-.44.13-1.55.27-.22.53-13.69-.53-3.1v-.22l-.14-4.52-.53-1.22-1.34-9.16v-2.88l-.53-4.08-.8-2.76-.53-.56-.14-.44-1.33-1.21-1.47-.77-2.54-.34-4.14.34-2.53.44-.8-.11-1.34.44h-.53l-3.47.66-2.94,2.32-2.54,2.87-1.87,3.31-2.4,5.53-1.2-9.28-.67-1.11-.13-1.43-1.34-1.1-.53-1.77-.94-.77-1.87-.56-3.73.33-1.74.89-1.6.55-.53,1,.13,12.81.4,1.11-.13,2.1,1.33,19.1-.13,2.65.53,3V555l.8,4,.67,1.11,1.07.55,1.33-.55,3.21.66Zm70.89-1,1.2.23H564l1.73-1.33.67.44,1.33.44h3.48l.26-.77.94.33.26-.55,2.27.55.94-1.43V553l-.4-2.65.66-6.3v-1.32l.41-1.88V534l.53-1.76v-1.66l.27-1,.13-2.1.27-.78-.27-5,.53-1.11v-7.07l.54-2.43L578,505l.4-.77v-.78l-.93-3.75v-2.76l-1.2-6.41-.94-2.87-1.73-2.43-1.47-1-3.47-.66-.67.22-2.14.22-.66.55-1.74.77-.93.66-3.74,25.52-1.47-1-2.94-.55-2.8.22-1.07.33-2.27.44-1.73.78-1.34.22-4,2.1-1.34.44-2.27,1.87-1.6,3.32L534,525.05l-.4,10.82.94,4.53,2.13,7.51,1.87,3.2,3.61,2.87,2,1.22,3.6,1,3.47.33,2.14-.44h3.74l.53.22h1.07l.4.44.67,1.33,1.87,1.65ZM555.94,547l-.81-.55-2.93-4.86-.27-1-.27-.33-.93-1.55-1.34-3.31-.53-2.43-.53-1.55v-7.51l.26-.88V521.4l.8-1.43.27-1.44.8-1,.27-.55,1.33-.45.67.23,1.6,1.21,1.87,4,.94,3.75v17.23l.53,5.08-1.73-1Zm46.19,13.7,4.54-.33,1.6-.22,2.4.11,2.27-.11,3.2-1.77,1.87-1.77,1.34-2,.8-1.54.93-1.44.41-1.21,1.06-1.77.54-2.1.67-1.32.93-2.65.4-.67-.53-.22.26-1.1v-1.1l.27-.89.4-2.76H625v.22l-.14.89-.13-2.1-.13-.33-.14-3.87.14-3.2-.8-4.42-.41-.88-.26-1.33-.54-.77-.4-1.77-.8-1.1v-.78l-.4-.11v-1l-.4-.66.4-.33-.53-1.22-.27-.11-1.47-2-.13-.33-2.27-2.21-1.34-.33-5.07.22-.93-.33h-1.61l-3.87,1-.8-.11-.8.66-3.6.11-1.07,1.77-.27,1.65-.53.44-1.47.67-2.67.33-1.74.55-2.93,3.2-1.61,2.1-.8,2.76-.8,1.55-1.07,2.76-1.46,5.41-.14,7.18,1.07,5.63,2.54,6.29,2.13,3,3.21,2.87.4.11,2.67,1.54,2.4.67,2.67-.22,3.34.77Zm.67-11.49-2-2.65-1.33-2.76-.54-1.43-.66-1.11-.4-2.87.53-9.61.8-2.76,1.07-2.65.53-.55.67-1.66.93-1.21,1.07-.88.14-1.33-.4-.77.53-1,.53-.33.8,1.22.54,1.1,1.47,2.1.53,4.2-.4.33V526l.4.22-.4.89.13,3L606.67,545l-1.87,4-.94,1.66-1.06-1.44Zm22.42-15.13h.54v.45h-.54Z" transform="translate(-305.22 -435.65)"/></svg>